0
SECTION
2
HEADER
9
$INSUNITS
70
4
9
$ACADVER
1
AC1014
9
$HANDSEED
5
FFFF
0
ENDSEC
0
SECTION
2
TABLES
0
TABLE
2
VPORT
5
8
100
AcDbSymbolTable
0
ENDTAB
0
TABLE
2
LTYPE
5
5
100
AcDbSymbolTable
0
LTYPE
5
14
100
AcDbSymbolTableRecord
100
AcDbLinetypeTableRecord
2
BYBLOCK
70
0
0
LTYPE
5
15
100
AcDbSymbolTableRecord
100
AcDbLinetypeTableRecord
2
BYLAYER
70
0
0
LTYPE
5
16
100
AcDbSymbolTableRecord
100
AcDbLinetypeTableRecord
2
DASHED
70
0
3
Dashed __ __ __ __ __ __ __ __ __ __ __ __ __ _
72
65
73
2
40
0.75
49
0.5
74
0
49
-0.25
74
0
0
ENDTAB
0
TABLE
2
LAYER
5
2
100
AcDbSymbolTable
70
2
0
LAYER
5
50
100
AcDbSymbolTableRecord
100
AcDbLayerTableRecord
2
0
70
0
62
7
6
CONTINUOUS
0
ENDTAB
0
TABLE
2
STYLE
5
3
100
AcDbSymbolTable
70
1
0
STYLE
5
11
100
AcDbSymbolTableRecord
100
AcDbTextStyleTableRecord
2
STANDARD
70
0
0
ENDTAB
0
TABLE
2
VIEW
5
6
100
AcDbSymbolTable
70
0
0
ENDTAB
0
TABLE
2
UCS
5
7
100
AcDbSymbolTable
70
0
0
ENDTAB
0
TABLE
2
APPID
5
9
100
AcDbSymbolTable
70
2
0
APPID
5
12
100
AcDbSymbolTableRecord
100
AcDbRegAppTableRecord
2
ACAD
70
0
0
ENDTAB
0
TABLE
2
DIMSTYLE
5
A
100
AcDbSymbolTable
70
1
0
ENDTAB
0
TABLE
2
BLOCK_RECORD
5
1
100
AcDbSymbolTable
70
1
0
BLOCK_RECORD
5
1F
100
AcDbSymbolTableRecord
100
AcDbBlockTableRecord
2
*MODEL_SPACE
0
BLOCK_RECORD
5
1B
100
AcDbSymbolTableRecord
100
AcDbBlockTableRecord
2
*PAPER_SPACE
0
ENDTAB
0
ENDSEC
0
SECTION
2
BLOCKS
0
BLOCK
5
20
100
AcDbEntity
100
AcDbBlockBegin
2
*MODEL_SPACE
0
ENDBLK
5
21
100
AcDbEntity
100
AcDbBlockEnd
0
BLOCK
5
1C
100
AcDbEntity
100
AcDbBlockBegin
2
*PAPER_SPACE
0
ENDBLK
5
1D
100
AcDbEntity
100
AcDbBlockEnd
0
ENDSEC
0
SECTION
2
ENTITIES
0
LWPOLYLINE
5
100
100
AcDbEntity
8
0
100
AcDbPolyline
90
8
70
1
43
0.0
10
-102.38206839658915
20
82.853128517322077
42
0.4142135623730846
10
-101.88204589894329
20
83.353151014967906
10
-101.88204589894332
20
96.353735953759553
42
0.41421356237312623
10
-102.38206839658915
20
96.853758451405398
10
-115.38265333538085
20
96.853758451405412
42
0.4142135623730846
10
-115.88267583302667
20
96.353735953759582
10
-115.88267583302668
20
83.353151014967906
42
0.4142135623730846
10
-115.38265333538085
20
82.853128517322062
0
LWPOLYLINE
5
101
100
AcDbEntity
8
0
100
AcDbPolyline
90
8
70
1
43
0.0
10
-349.09116669183987
20
63.801268809466492
42
0.41421356237312623
10
-348.59114419419404
20
64.301291307112351
10
-348.59114419419404
20
77.301876245904012
42
0.4142135623731783
10
-349.09116669183987
20
77.80189874354987
10
-362.09175163063151
20
77.801898743549827
42
0.41421356237315227
10
-362.59177412827739
20
77.301876245904054
10
-362.59177412827734
20
64.301291307112351
42
0.4142135623731783
10
-362.09175163063151
20
63.801268809466535
0
LWPOLYLINE
5
102
100
AcDbEntity
8
0
100
AcDbPolyline
90
8
70
1
43
0.0
10
-70.947653018126999
20
140.00569770931949
42
0.41421356237307422
10
-70.447630520481169
20
140.50572020696532
10
-70.447630520481169
20
153.50630514575695
42
0.41421356237307422
10
-70.947653018126999
20
154.00632764340281
10
-83.948238433777291
20
154.00632764340281
42
0.4142135623730846
10
-84.448260931423107
20
153.50630514575695
10
-84.448260931423121
20
140.50572020696532
42
0.4142135623730846
10
-83.948238433777291
20
140.00569770931949
0
LWPOLYLINE
5
103
100
AcDbEntity
8
0
100
AcDbPolyline
90
8
70
1
43
0.0
10
-134.25894359112442
20
96.104289168736429
10
-121.54302457752749
20
93.401437144731787
42
-0.41421356237312557
10
-121.15790662256947
20
92.808407498956015
10
-123.86075864657406
20
80.092488485359056
42
-0.41421356237309287
10
-124.45378829234983
20
79.707370530401036
10
-137.16970730594682
20
82.410222554405664
42
-0.41421356237312557
10
-137.55482526090483
20
83.003252200181436
10
-134.85197323690022
20
95.719171213778395
42
-0.41421356237309875
0
LWPOLYLINE
5
104
100
AcDbEntity
8
0
100
AcDbPolyline
90
8
70
1
43
0.0
10
-112.85953718763018
20
36.178026685789817
42
0.41421356237309503
10
-112.35951468998435
20
36.678049183435647
10
-112.35951468998435
20
49.678633645368691
42
0.41421356237308982
10
-112.85953718763018
20
50.178656143014507
10
-125.86012212642181
20
50.178656143014528
42
0.41421356237308982
10
-126.36014462406763
20
49.678633645368691
10
-126.36014462406764
20
36.678049183435647
42
0.41421356237309503
10
-125.86012212642181
20
36.178026685789803
0
LWPOLYLINE
5
105
100
AcDbEntity
8
0
100
AcDbPolyline
90
8
70
1
43
0.0
10
-316.89472600335193
20
120.95483749711812
42
0.4142135623730846
10
-316.3947035057061
20
121.45485999476394
10
-316.3947035057061
20
134.45544493355561
42
0.41421356237318868
10
-316.89472600335205
20
134.95546743120141
10
-329.89529568266801
20
134.95546743120141
42
0.41421356237316787
10
-330.39531818031389
20
134.45544493355561
10
-330.39531818031384
20
121.45485999476398
42
0.41421356237313667
10
-329.89529568266801
20
120.95483749711809
0
LWPOLYLINE
5
106
100
AcDbEntity
8
0
100
AcDbPolyline
90
8
70
1
43
0.0
10
-324.32506825329642
20
36.178026685789831
42
0.41421356237317569
10
-323.82504575565059
20
36.678049183435647
10
-323.82504575565059
20
49.678633645368691
42
0.4142135623731783
10
-324.32506825329642
20
50.178656143014507
10
-337.32565319208817
20
50.17865614301455
42
0.41421356237312623
10
-337.82567568973388
20
49.678633645368691
10
-337.825675689734
20
36.678049183435647
42
0.41421356237313145
10
-337.32565319208817
20
36.178026685789803
0
LWPOLYLINE
5
107
100
AcDbEntity
8
0
100
AcDbPolyline
90
8
70
1
43
0.0
10
-297.84386579115062
20
120.95483749711809
42
0.41421356237309503
10
-297.34384329350479
20
121.45485999476394
10
-297.34384329350485
20
134.45544493355561
42
0.41421356237313667
10
-297.84386579115062
20
134.95546743120141
10
-310.84445072994231
20
134.95546743120141
42
0.4142135623730846
10
-311.3444732275882
20
134.45544493355561
10
-311.34447322758808
20
121.45485999476394
42
0.41421356237313667
10
-310.84445072994231
20
120.95483749711809
0
LWPOLYLINE
5
108
100
AcDbEntity
8
0
100
AcDbPolyline
90
8
70
1
43
0.0
10
-69.653594645439725
20
121.95488249240978
42
0.41421356237307422
10
-69.153572147793895
20
122.45490499005561
10
-69.153572147793895
20
136.45553492413893
42
0.41421356237307422
10
-69.653594645439725
20
136.95555742178476
10
-75.653864617189726
20
136.95555742178476
42
0.41421356237307422
10
-76.153887114835541
20
136.45553492413893
10
-76.153887114835555
20
122.45490499005561
42
0.41421356237307422
10
-75.653864617189726
20
121.95488249240979
0
LWPOLYLINE
5
109
100
AcDbEntity
8
0
100
AcDbPolyline
90
8
70
1
43
0.0
10
-355.75845886259799
20
142.86282851927018
42
0.41421356237316787
10
-355.25843636495216
20
143.36285101691598
10
-355.25843636495216
20
156.3634359557077
42
0.41421356237312623
10
-355.75845886259799
20
156.8634584533535
10
-368.75904380138962
20
156.86345845335356
42
0.41421356237311585
10
-369.25906629903551
20
156.3634359557077
10
-369.25906629903545
20
143.36285101691598
42
0.41421356237312623
10
-368.75904380138962
20
142.86282851927018
0
LWPOLYLINE
5
110
100
AcDbEntity
8
0
100
AcDbPolyline
90
8
70
1
43
0.0
10
-291.5064144917767
20
133.83351850176294
10
-278.79049547817993
20
136.53637052576761
42
-0.41421356237299911
10
-278.19746583240419
20
136.15125257080956
10
-275.49461380839955
20
123.43533355721266
42
-0.41421356237307405
10
-275.8797317633576
20
122.84230391143689
10
-288.59565077695441
20
120.1394518874323
42
-0.41421356237316415
10
-289.18868042273027
20
120.52456984239028
10
-291.89153244673486
20
133.24048885598722
42
-0.41421356237312712
0
LWPOLYLINE
5
111
100
AcDbEntity
8
0
100
AcDbPolyline
90
8
70
1
43
0.0
10
-190.30668982288262
20
62.711001308622386
10
-193.00954184688726
20
49.995082295025426
42
-0.41421356237303364
10
-193.60257149266303
20
49.609964340067414
10
-206.31849050625999
20
52.312816364072063
42
-0.41421356237312773
10
-206.70360846121807
20
52.905846009847849
10
-204.00075643721351
20
65.621765023444809
42
-0.41421356237306206
10
-203.40772679143768
20
66.006882978402814
10
-190.69180777784069
20
63.304030954398257
42
-0.41421356237310675
0
LWPOLYLINE
5
112
100
AcDbEntity
8
0
100
AcDbPolyline
90
8
70
1
43
0.0
10
-393.86017928700073
20
142.8628285192701
42
0.41421356237303258
10
-393.3601567893549
20
143.36285101691598
10
-393.3601567893549
20
156.3634359557077
42
0.41421356237312623
10
-393.86017928700073
20
156.8634584533535
10
-406.86076422579231
20
156.8634584533535
42
0.41421356237316787
10
-407.36078672343808
20
156.3634359557077
10
-407.36078672343814
20
143.36285101691598
42
0.41421356237312623
10
-406.86076422579231
20
142.86282851927018
0
LWPOLYLINE
5
113
100
AcDbEntity
8
0
100
AcDbPolyline
90
8
70
1
43
0.0
10
-295.74877030525658
20
79.613980549688904
42
0.41421356237309503
10
-295.2487478076107
20
80.114003047334762
10
-295.24874780761075
20
93.114587986126423
42
0.41421356237313667
10
-295.74877030525658
20
93.614610483772282
10
-308.74935524404816
20
93.614610483772239
42
0.4142135623730846
10
-309.24937774169405
20
93.114587986126423
10
-309.24937774169399
20
80.114003047334762
42
0.41421356237314705
10
-308.74935524404816
20
79.613980549688947
0
LWPOLYLINE
5
114
100
AcDbEntity
8
0
100
AcDbPolyline
90
8
70
1
43
0.0
10
-272.87270269779799
20
137.79423621184125
10
-260.15678368420095
20
140.49708823584584
42
-0.41421356237308277
10
-259.5637540384252
20
140.11197028088785
10
-256.86090201442062
20
127.39605126729094
42
-0.41421356237314011
10
-257.24601996937861
20
126.80302162151519
10
-269.9619389829756
20
124.10016959751061
42
-0.41421356237308277
10
-270.55496862875134
20
124.48528755246861
10
-273.25782065275598
20
137.20120656606548
42
-0.41421356237307105
0
LWPOLYLINE
5
115
100
AcDbEntity
8
0
100
AcDbPolyline
90
8
70
1
43
0.0
10
-295.89475455900441
20
113.43037517970905
10
-283.17883554540754
20
116.13322720371366
42
-0.4142135623730463
10
-282.58580589963185
20
115.74810924875563
10
-279.88295387562721
20
103.03219023515872
42
-0.41421356237304352
10
-280.2680718305852
20
102.43916058938294
10
-292.98399084418213
20
99.73630856537838
42
-0.41421356237308277
10
-293.57702048995782
20
100.12142652033637
10
-296.27987251396257
20
112.83734553393319
42
-0.41421356237315304
0
LWPOLYLINE
5
116
100
AcDbEntity
8
0
100
AcDbPolyline
90
8
70
1
43
0.0
10
-171.52636717908229
20
104.02572458889304
10
-158.81044816548538
20
101.3228725648884
42
-0.4142135623730645
10
-158.42533021052736
20
100.72984291911263
10
-161.12818223453192
20
88.013923905515682
42
-0.41421356237302753
10
-161.72121188030772
20
87.628805950557648
10
-174.43713089390474
20
90.331657974562333
42
-0.41421356237306239
10
-174.82224884886273
20
90.924687620338091
10
-172.1193968248582
20
103.64060663393502
42
-0.414213562373066
0
LWPOLYLINE
5
117
100
AcDbEntity
8
0
100
AcDbPolyline
90
8
70
1
43
0.0
10
-152.89265538510335
20
100.06500687881471
10
-140.17673637150642
20
97.362154854810115
42
-0.41421356237312557
10
-139.7916184165484
20
96.769125209034343
10
-142.49447044055299
20
84.053206195437383
42
-0.41421356237310308
10
-143.08750008632879
20
83.668088240479364
10
-155.80341909992569
20
86.370940264483963
42
-0.41421356237312773
10
-156.18853705488374
20
86.963969910259763
10
-153.48568503087915
20
99.679888923856709
42
-0.4142135623730463
0
LWPOLYLINE
5
118
100
AcDbEntity
8
0
100
AcDbPolyline
90
8
70
1
43
0.0
10
-93.530668403682427
20
121.95488249240978
42
0.4142135623730846
10
-93.030645906036568
20
122.45490499005561
10
-93.030645906036597
20
136.45553492413893
42
0.4142135623730846
10
-93.530668403682427
20
136.95555742178476
10
-99.530938375432427
20
136.95555742178476
42
0.4142135623730846
10
-100.03096087307824
20
136.45553492413893
10
-100.03096087307826
20
122.45490499005561
42
0.4142135623730846
10
-99.530938375432427
20
121.95488249240979
0
LWPOLYLINE
5
119
100
AcDbEntity
8
0
100
AcDbPolyline
90
8
70
1
43
0.0
10
-271.44125877890934
20
99.156235532099416
10
-258.72533976531241
20
101.85908755610401
42
-0.41421356237308277
10
-258.13231011953667
20
101.47396960114604
10
-255.42945809553208
20
88.758050587549093
42
-0.41421356237307622
10
-255.81457605049007
20
88.165020941773349
10
-268.53049506408701
20
85.462168917768793
42
-0.41421356237308277
10
-269.12352470986269
20
85.847286872726784
10
-271.82637673386739
20
98.563205886323658
42
-0.41421356237313572
0
LWPOLYLINE
5
120
100
AcDbEntity
8
0
100
AcDbPolyline
90
8
70
1
43
0.0
10
-276.7975508691199
20
78.533970297346642
10
-264.08163185552291
20
81.236822321351212
42
-0.41421356237308277
10
-263.48860220974723
20
80.851704366393221
10
-260.78575018574259
20
68.135785352796333
42
-0.41421356237311618
10
-261.17086814070058
20
67.542755707020532
10
-273.88678715429751
20
64.839903683015962
42
-0.41421356237308893
10
-274.47981680007325
20
65.225021637973967
10
-277.18266882407789
20
77.940940651570884
42
-0.41421356237313978
0
LWPOLYLINE
5
121
100
AcDbEntity
8
0
100
AcDbPolyline
90
8
70
1
43
0.0
10
-257.9950959133206
20
161.93440778563149
10
-255.0842012712117
20
148.23972520684597
42
-0.41421356237307466
10
-255.46933655466435
20
147.64666887752836
10
-261.33848623128677
20
146.3991426023388
42
-0.41421356237309287
10
-261.93154256060444
20
146.78427788579148
10
-264.84243720271343
20
160.47896046457703
42
-0.41421356237300933
10
-264.45730191926077
20
161.07201679389462
10
-258.58815224263839
20
162.31954306908432
42
-0.4142135623731284
0
LWPOLYLINE
5
122
100
AcDbEntity
8
0
100
AcDbPolyline
90
8
70
1
43
0.0
10
-252.80754698493041
20
103.11695324217771
10
-240.09162797133354
20
105.81980526618227
42
-0.41421356237308277
10
-239.49859832555779
20
105.43468731122429
10
-236.79574630155312
20
92.718768297627449
42
-0.41421356237313794
10
-237.18086425651114
20
92.125738651851663
10
-249.8967832701081
20
89.422886627847049
42
-0.41421356237308277
10
-250.48981291588382
20
89.80800458280504
10
-253.19266493988846
20
102.52392359640196
42
-0.41421356237312773
0
LWPOLYLINE
5
123
100
AcDbEntity
8
0
100
AcDbPolyline
90
8
70
1
43
0.0
10
-260.68771331823859
20
43.323849551681718
10
-273.40363233183558
20
40.62099752767709
42
-0.41421356237310014
10
-273.99666197761132
20
41.00611548263511
10
-276.69951400161602
20
53.722034496232034
42
-0.41421356237313967
10
-276.31439604665798
20
54.315064142007834
10
-263.59847703306104
20
57.017916166012419
42
-0.41421356237308893
10
-263.00544738728524
20
56.632798211054421
10
-260.30259536328066
20
43.916879197457462
42
-0.41421356237307039
0
LWPOLYLINE
5
124
100
AcDbEntity
8
0
100
AcDbPolyline
90
8
70
1
43
0.0
10
-223.42028973028073
20
51.245284971838331
10
-236.13620874387772
20
48.542432947833724
42
-0.41421356237308893
10
-236.72923838965346
20
48.927550902791722
10
-239.43209041365802
20
61.643469916388639
42
-0.41421356237316226
10
-239.04697245870005
20
62.236499562164447
10
-226.33105344510312
20
64.939351586169082
42
-0.41421356237309503
10
-225.73802379932732
20
64.554233631211048
10
-223.03517177532271
20
51.838314617614081
42
-0.41421356237313978
0
LWPOLYLINE
5
125
100
AcDbEntity
8
0
100
AcDbPolyline
90
8
70
1
43
0.0
10
-241.10199204708181
20
166.03634115706291
42
0.41421356237313572
10
-241.48712733053452
20
165.44328482774532
10
-238.57623268842556
20
151.74860224895977
42
0.4142135623731234
10
-237.98317635910792
20
151.36346696550706
10
-232.11402668248553
20
152.61099324069659
42
0.41421356237308704
10
-231.72889139903276
20
153.20404957001426
10
-234.63978604114178
20
166.89873214879978
42
0.41421356237307039
10
-235.23284237045942
20
167.28386743225252
0
LWPOLYLINE
5
126
100
AcDbEntity
8
0
100
AcDbPolyline
90
8
70
1
43
0.0
10
-277.26104276502559
20
117.3910928897873
10
-264.54512375142866
20
120.09394491379186
42
-0.41421356237308277
10
-263.95209410565292
20
119.70882695883388
10
-261.24924208164833
20
106.99290794523704
42
-0.41421356237310086
10
-261.63436003660632
20
106.39987829946125
10
-274.35027905020326
20
103.69702627545664
42
-0.41421356237308277
10
-274.94330869597894
20
104.08214423041463
10
-277.64616071998364
20
116.79806324401154
42
-0.41421356237313572
0
LWPOLYLINE
5
127
100
AcDbEntity
8
0
100
AcDbPolyline
90
8
70
1
43
0.0
10
-254.238990903819
20
141.75495392191954
10
-241.5230718902221
20
144.45780594592412
42
-0.41421356237302753
10
-240.93004224444633
20
144.07268799096613
10
-238.22719022044171
20
131.35676897736926
42
-0.41421356237312923
10
-238.61230817539976
20
130.76373933159348
10
-251.32822718899672
20
128.06088730758887
42
-0.41421356237308277
10
-251.92125683477244
20
128.44600526254686
10
-254.62410885877705
20
141.16192427614376
42
-0.41421356237312773
0
LWPOLYLINE
5
128
100
AcDbEntity
8
0
100
AcDbPolyline
90
8
70
1
43
0.0
10
-290.74493101577843
20
139.67200055430081
10
-293.44778303978296
20
152.38791956789765
42
-0.41421356237307039
10
-293.06266508482491
20
152.98094921367345
10
-280.3467460712281
20
155.68380123767813
42
-0.4142135623730136
10
-279.75371642545235
20
155.29868328272005
10
-277.05086440144777
20
142.58276426912317
42
-0.41421356237307105
10
-277.43598235640576
20
141.9897346233474
10
-290.15190137000258
20
139.28688259934276
42
-0.41421356237309137
0
LWPOLYLINE
5
129
100
AcDbEntity
8
0
100
AcDbPolyline
90
8
70
1
43
0.0
10
-150.80247307928104
20
41.023692879612867
10
-148.09962105527637
20
53.73961189320984
42
-0.41421356237310769
10
-147.50659140950063
20
54.124729848167874
10
-134.7906723959037
20
51.421877824163218
42
-0.41421356237311358
10
-134.40555444094568
20
50.828848178387446
10
-137.10840646495035
20
38.112929164790501
42
-0.41421356237310153
10
-137.70143611072612
20
37.727811209832467
10
-150.41735512432302
20
40.430663233837123
42
-0.41421356237310736
0
LWPOLYLINE
5
130
100
AcDbEntity
8
0
100
AcDbPolyline
90
8
70
1
43
0.0
10
-185.37170881068818
20
87.480148514454243
10
-172.65578979709124
20
84.777296490449601
42
-0.4142135623730645
10
-172.27067184213325
20
84.184266844673843
10
-174.9735238661379
20
71.468347831076912
42
-0.4142135623730423
10
-175.56655351191367
20
71.083229876118878
10
-188.28247252551057
20
73.786081900123506
42
-0.41421356237307144
10
-188.66759048046859
20
74.379111545899292
10
-185.96473845646392
20
87.095030559496223
42
-0.4142135623730383
0
LWPOLYLINE
5
131
100
AcDbEntity
8
0
100
AcDbPolyline
90
8
70
1
43
0.0
10
-258.62733097104666
20
121.35181059986559
10
-245.91141195744979
20
124.0546626238702
42
-0.41421356237308277
10
-245.31838231167404
20
123.66954466891221
10
-242.61553028766943
20
110.95362565531528
42
-0.41421356237312923
10
-243.00064824262748
20
110.36059600953951
10
-255.71656725622444
20
107.65774398553496
42
-0.41421356237308277
10
-256.30959690200018
20
108.04286194049295
10
-259.01244892600471
20
120.75878095408981
42
-0.41421356237302531
0
LWPOLYLINE
5
132
100
AcDbEntity
8
0
100
AcDbPolyline
90
8
70
1
43
0.0
10
-171.67297802890369
20
58.750283598544101
10
-174.37583005290833
20
46.034364584947099
42
-0.41421356237303364
10
-174.96885969868407
20
45.649246629989086
10
-187.684778712281
20
48.352098653993743
42
-0.41421356237307577
10
-188.06989666723899
20
48.945128299769529
10
-185.36704464323449
20
61.661047313366481
42
-0.41421356237306206
10
-184.77401499745866
20
62.046165268324494
10
-172.05809598386168
20
59.343313244319845
42
-0.41421356237312773
0
LWPOLYLINE
5
133
100
AcDbEntity
8
0
100
AcDbPolyline
90
8
70
1
43
0.0
10
-178.18497882040248
20
144.42987467933068
10
-165.46905980680555
20
141.72702265532604
42
-0.41421356237302381
10
-165.08394185184761
20
141.13399300955027
10
-167.78679387585217
20
128.41807399595336
42
-0.41421356237303619
10
-168.37982352162797
20
128.03295604099534
10
-181.09574253522493
20
130.73580806499996
42
-0.41421356237306239
10
-181.48086049018289
20
131.3288377107757
10
-178.77800846617828
20
144.04475672437263
42
-0.41421356237303397
0
LWPOLYLINE
5
134
100
AcDbEntity
8
0
100
AcDbPolyline
90
8
70
1
43
0.0
10
-173.76945612215144
20
124.01920735558006
10
-161.05353710855451
20
121.31635533157542
42
-0.41421356237306017
10
-160.66841915359652
20
120.72332568579967
10
-163.37127117760107
20
108.00740667220269
42
-0.41421356237302753
10
-163.96430082337687
20
107.62228871724467
10
-176.68021983697389
20
110.32514074124931
42
-0.41421356237306239
10
-177.06533779193188
20
110.91817038702507
10
-174.36248576792724
20
123.63408940062203
42
-0.41421356237302531
0
LWPOLYLINE
5
135
100
AcDbEntity
8
0
100
AcDbPolyline
90
8
70
1
43
0.0
10
-340.65279874084609
20
64.801313804758195
42
0.41421356237316787
10
-340.15277624320026
20
65.30133630240401
10
-340.15277624320026
20
79.301966236487345
42
0.4142135623731783
10
-340.65279874084609
20
79.801988734133204
10
-346.65306871259617
20
79.801988734133204
42
0.41421356237311585
10
-347.15309121024188
20
79.301966236487388
10
-347.153091210242
20
65.30133630240401
42
0.4142135623731783
10
-346.65306871259617
20
64.801313804758195
0
LWPOLYLINE
5
136
100
AcDbEntity
8
0
100
AcDbPolyline
90
8
70
1
43
0.0
10
-78.568995740316225
20
82.853128517322077
42
0.41421356237307422
10
-78.068973242670396
20
83.353151014967906
10
-78.068973242670396
20
96.353735953759582
42
0.41421356237307422
10
-78.568995740316225
20
96.853758451405398
10
-91.569581632825106
20
96.853758451405412
42
0.4142135623730846
10
-92.069604130470921
20
96.353735953759582
10
-92.069604130470935
20
83.353151014967921
42
0.41421356237312623
10
-91.569581632825106
20
82.853128517322062
0
LWPOLYLINE
5
137
100
AcDbEntity
8
0
100
AcDbPolyline
90
8
70
1
43
0.0
10
-343.08988959469787
20
120.95483749711812
42
0.41421356237316787
10
-342.58986709705204
20
121.45485999476394
10
-342.58986709705204
20
134.45544493355561
42
0.41421356237312623
10
-343.08988959469787
20
134.95546743120141
10
-356.0904745334895
20
134.95546743120147
42
0.41421356237311585
10
-356.59049703113538
20
134.45544493355561
10
-356.59049703113533
20
121.45485999476394
42
0.41421356237312623
10
-356.0904745334895
20
120.95483749711809
0
LWPOLYLINE
5
138
100
AcDbEntity
8
0
100
AcDbPolyline
90
8
70
1
43
0.0
10
-320.89589785043501
20
101.90398491465453
42
0.41421356237313667
10
-320.39587535278918
20
102.4040074123004
10
-320.39587535278918
20
115.40459235109205
42
0.41421356237312623
10
-320.89589785043501
20
115.90461484873791
10
-333.89648278922664
20
115.90461484873786
42
0.41421356237316787
10
-334.39650528687253
20
115.40459235109205
10
-334.39650528687247
20
102.40400741230039
42
0.41421356237312623
10
-333.89648278922664
20
101.90398491465453
0
LWPOLYLINE
5
139
100
AcDbEntity
8
0
100
AcDbPolyline
90
8
70
1
43
0.0
10
-333.85049072965927
20
82.853128517322091
42
0.41421356237316787
10
-333.35046823201344
20
83.353151014967906
10
-333.35046823201344
20
96.353735953759582
42
0.41421356237312623
10
-333.85049072965927
20
96.853758451405398
10
-346.8510756684509
20
96.853758451405426
42
0.41421356237311585
10
-347.35109816609679
20
96.353735953759582
10
-347.35109816609673
20
83.353151014967906
42
0.41421356237312623
10
-346.8510756684509
20
82.853128517322062
0
LWPOLYLINE
5
140
100
AcDbEntity
8
0
100
AcDbPolyline
90
8
70
1
43
0.0
10
-391.00305610678788
20
93.902625456667067
42
0.41421356237316787
10
-390.50303360914205
20
94.402647954312883
10
-390.50303360914205
20
107.40323289310454
42
0.41421356237313667
10
-391.00305610678788
20
107.9032553907504
10
-404.00364104557951
20
107.90325539075036
42
0.41421356237316787
10
-404.5036635432254
20
107.40323289310454
10
-404.50366354322534
20
94.402647954312883
42
0.41421356237312623
10
-404.00364104557951
20
93.902625456667067
0
LWPOLYLINE
5
141
100
AcDbEntity
8
0
100
AcDbPolyline
90
8
70
1
43
0.0
10
-67.13848137737223
20
36.178026685789817
42
0.41421356237309243
10
-66.6384588797264
20
36.678049183435647
10
-66.6384588797264
20
49.678633645368691
42
0.4142135623730846
10
-67.13848137737223
20
50.178656143014507
10
-80.139067031451816
20
50.178656143014528
42
0.41421356237308982
10
-80.639089529097703
20
49.678633645368691
10
-80.639089529097646
20
36.678049183435647
42
0.41421356237309503
10
-80.139067031451816
20
36.178026685789803
0
LWPOLYLINE
5
142
100
AcDbEntity
8
0
100
AcDbPolyline
90
8
70
1
43
0.0
10
-140.92100631880683
20
136.52063515786838
10
-128.11946193178429
20
133.79803713200752
42
-0.41418728981302921
10
-127.73440316171988
20
133.20500686882019
10
-130.4498513881766
20
120.43144945997247
42
-0.41419849899641908
10
-131.04286582643979
20
120.04634147371792
10
-143.84262933618817
20
122.76667265452051
42
-0.41417899208792575
10
-144.22777474062548
20
123.35963471189586
10
-141.51410739170171
20
136.13545896563798
42
-0.41428947137977085
0
LWPOLYLINE
5
143
100
AcDbEntity
8
0
100
AcDbPolyline
90
8
70
1
43
0.0
10
-131.26644046557834
20
139.5732744337499
10
-144.06620397532771
20
142.29360561455266
42
-0.41417899208733411
10
-144.45134937976405
20
142.88656767192779
10
-141.73768203084097
20
155.66239192566661
42
-0.41428947138182332
10
-141.14458095794535
20
156.04756811790028
10
-128.34303657092107
20
153.32497009203911
42
-0.41418728981192893
10
-127.95797780085842
20
152.73193982885215
10
-130.67342602731492
20
139.95838242000562
42
-0.41419849899710137
0
LWPOLYLINE
5
144
100
AcDbEntity
8
0
100
AcDbPolyline
90
8
70
1
43
0.0
10
-116.66970999304425
20
59.992097407141109
42
0.41421356237308982
10
-116.16968749539842
20
60.492119904786946
10
-116.16968749539842
20
73.492706751013031
42
0.4142135623730378
10
-116.66970999304418
20
73.99272924865889
10
-129.67129824235897
20
73.992729248658861
42
0.41421356237308982
10
-130.17132074000477
20
73.492706751013031
10
-130.1713207400048
20
60.492119904786932
42
0.41421356237310542
10
-129.67129824235897
20
59.992097407141088
0
LWPOLYLINE
5
145
100
AcDbEntity
8
0
100
AcDbPolyline
90
8
70
1
43
0.0
10
-104.28715289186172
20
101.90398491465456
42
0.41421356237312623
10
-103.78713039421589
20
102.4040074123004
10
-103.78713039421589
20
115.40459235109205
42
0.4142135623730846
10
-104.28715289186172
20
115.90461484873791
10
-117.28773783065343
20
115.90461484873788
42
0.4142135623730846
10
-117.78776032829924
20
115.40459235109205
10
-117.78776032829926
20
102.40400741230039
42
0.4142135623730846
10
-117.28773783065343
20
101.90398491465453
0
LWPOLYLINE
5
146
100
AcDbEntity
8
0
100
AcDbPolyline
90
8
70
1
43
0.0
10
-109.0503676927392
20
120.95483749711811
42
0.4142135623730846
10
-108.55034519509334
20
121.45485999476394
10
-108.55034519509337
20
134.45544493355561
42
0.4142135623730846
10
-109.0503676927392
20
134.95546743120141
10
-122.05095263153083
20
134.95546743120144
42
0.4142135623730846
10
-122.55097512917665
20
134.45544493355561
10
-122.55097512917666
20
121.45485999476394
42
0.4142135623730846
10
-122.05095263153083
20
120.95483749711809
0
LWPOLYLINE
5
147
100
AcDbEntity
8
0
100
AcDbPolyline
90
8
70
1
43
0.0
10
-388.14492580118298
20
74.851765244465597
42
0.41421356237307944
10
-387.64490330353709
20
75.351787742111483
10
-387.64490330353715
20
88.352372680903159
42
0.41421356237312623
10
-388.14492580118298
20
88.852395178549003
10
-401.14551073997461
20
88.852395178548974
42
0.41421356237316787
10
-401.6455332376205
20
88.352372680903159
10
-401.64553323762044
20
75.351787742111483
42
0.4142135623731783
10
-401.14551073997461
20
74.851765244465668
0
LWPOLYLINE
5
148
100
AcDbEntity
8
0
100
AcDbPolyline
90
8
70
1
43
0.0
10
-136.5054836205195
20
116.10996783411002
10
-123.70393923349333
20
113.38736980824841
42
-0.41418728980695946
10
-123.31888046347503
20
112.79433954503983
10
-126.03432868992547
20
100.02078213622168
42
-0.41419849899634936
10
-126.62734312818863
20
99.635674149967301
10
-139.42710663785095
20
102.35600533075154
42
-0.41417899210862785
10
-139.8122520423853
20
102.94896738809369
10
-137.09858469345556
20
115.7247916418641
42
-0.41428947141536965
0
LWPOLYLINE
5
149
100
AcDbEntity
8
0
100
AcDbPolyline
90
8
70
1
43
0.0
10
-301.84503763823358
20
101.90398491465457
42
0.41421356237315748
10
-301.34501514058775
20
102.40400741230042
10
-301.34501514058775
20
115.40459235109205
42
0.41421356237313667
10
-301.84503763823358
20
115.90461484873791
10
-314.84562257702532
20
115.90461484873791
42
0.41421356237309503
10
-315.3456450746711
20
115.40459235109205
10
-315.34564507467115
20
102.40400741230039
42
0.41421356237313667
10
-314.84562257702532
20
101.90398491465453
0
LWPOLYLINE
5
150
100
AcDbEntity
8
0
100
AcDbPolyline
90
8
70
1
43
0.0
10
-385.28780262097001
20
55.800908847133201
42
0.41421356237316787
10
-384.78778012332418
20
56.300931344779002
10
-384.78778012332418
20
69.300516787916507
42
0.4142135623732251
10
-385.28780262097018
20
69.800539285562365
10
-398.28838755976176
20
69.800539285562323
42
0.41421356237315227
10
-398.78841005740753
20
69.30051678791655
10
-398.78841005740759
20
56.300931344779016
42
0.4142135623731783
10
-398.28838755976176
20
55.800908847133201
0
LWPOLYLINE
5
151
100
AcDbEntity
8
0
100
AcDbPolyline
90
8
70
1
43
0.0
10
-320.51486874380004
20
63.801268809466535
42
0.41421356237316787
10
-320.01484624615421
20
64.301291307112336
10
-320.01484624615421
20
77.301876245904012
42
0.4142135623731783
10
-320.51486874380004
20
77.80189874354987
10
-333.51545368259167
20
77.80189874354987
42
0.41421356237311585
10
-334.01547618023756
20
77.301876245904054
10
-334.0154761802375
20
64.301291307112351
42
0.4142135623731783
10
-333.51545368259167
20
63.801268809466535
0
LWPOLYLINE
5
152
100
AcDbEntity
8
0
100
AcDbPolyline
90
8
70
1
43
0.0
10
-301.46402379107428
20
59.992097407141088
42
0.41421356237309503
10
-300.96400129342845
20
60.492119904786946
10
-300.96400129342845
20
73.492706751013031
42
0.41421356237314705
10
-301.46402379107428
20
73.99272924865889
10
-314.46460872986592
20
73.992729248658847
42
0.41421356237309503
10
-314.9646312275118
20
73.492706751013031
10
-314.96463122751175
20
60.492119904786946
42
0.41421356237314705
10
-314.46460872986592
20
59.992097407141088
0
LWPOLYLINE
5
153
100
AcDbEntity
8
0
100
AcDbPolyline
90
8
70
1
43
0.0
10
-314.79963051745784
20
82.853128517322091
42
0.4142135623730846
10
-314.29960801981201
20
83.353151014967906
10
-314.29960801981201
20
96.353735953759582
42
0.41421356237318868
10
-314.79963051745801
20
96.853758451405398
10
-327.80020019677397
20
96.853758451405398
42
0.41421356237316787
10
-328.30022269441986
20
96.353735953759582
10
-328.30022269441974
20
83.353151014967949
42
0.41421356237313667
10
-327.80020019677397
20
82.853128517322062
0
LWPOLYLINE
5
154
100
AcDbEntity
8
0
100
AcDbPolyline
90
8
70
1
43
0.0
10
-374.80933433427492
20
123.81196830706878
42
0.41421356237311585
10
-374.30931183662915
20
124.31199080471464
10
-374.30931183662915
20
137.3125757435063
42
0.41421356237316787
10
-374.80933433427492
20
137.81259824115213
10
-387.80991927306661
20
137.81259824115216
42
0.41421356237303258
10
-388.3099417707125
20
137.31257574350627
10
-388.30994177071238
20
124.31199080471464
42
0.41421356237312623
10
-387.80991927306661
20
123.81196830706878
0
LWPOLYLINE
5
155
100
AcDbEntity
8
0
100
AcDbPolyline
90
8
70
1
43
0.0
10
-179.1819419326869
20
166.11040522022768
10
-173.31305632828418
20
164.86293507532116
42
-0.41421356237311541
10
-172.92793837332613
20
164.26990542954542
10
-175.83870204477475
20
150.57583901927214
42
-0.41421356237308277
10
-176.43173169055052
20
150.19072106431415
10
-182.30061729495333
20
151.43819120922066
42
-0.41421356237320117
10
-182.6857352499114
20
152.03122085499641
10
-179.77497157846278
20
165.72528726526969
42
-0.41421356237304569
0
LWPOLYLINE
5
156
100
AcDbEntity
8
0
100
AcDbPolyline
90
8
70
1
43
0.0
10
-374.80933433427492
20
142.86282851927015
42
0.41421356237311585
10
-374.30931183662915
20
143.36285101691598
10
-374.30931183662915
20
156.36343595570773
42
0.41421356237316787
10
-374.80933433427492
20
156.8634584533535
10
-387.80991927306661
20
156.86345845335359
42
0.41421356237303258
10
-388.3099417707125
20
156.3634359557077
10
-388.30994177071238
20
143.36285101691598
42
0.41421356237312623
10
-387.80991927306661
20
142.86282851927018
0
LWPOLYLINE
5
157
100
AcDbEntity
8
0
100
AcDbPolyline
90
8
70
1
43
0.0
10
-343.41491642574823
20
102.9040299099462
42
0.41421356237313667
10
-342.9148939281024
20
103.40405240759208
10
-342.9148939281024
20
117.40468234167538
42
0.41421356237312623
10
-343.41491642574823
20
117.90470483932124
10
-349.4151863974983
20
117.9047048393212
42
0.41421356237316787
10
-349.91520889514402
20
117.40468234167538
10
-349.91520889514413
20
103.40405240759205
42
0.41421356237312623
10
-349.4151863974983
20
102.9040299099462
0
LWPOLYLINE
5
158
100
AcDbEntity
8
0
100
AcDbPolyline
90
8
70
1
43
0.0
10
-166.73799701670924
20
83.519430804375943
10
-154.02207800311231
20
80.816578780371316
42
-0.4142135623731299
10
-153.63696004815429
20
80.22354913459553
10
-156.33981207215888
20
67.507630120998584
42
-0.41421356237310919
10
-156.93284171793468
20
67.122512166040565
10
-169.64876073153161
20
69.825364190045207
42
-0.41421356237313212
10
-170.03387868648969
20
70.418393835820993
10
-167.33102666248504
20
83.134312849417924
42
-0.414213562373066
0
LWPOLYLINE
5
159
100
AcDbEntity
8
0
100
AcDbPolyline
90
8
70
1
43
0.0
10
-364.52984960987533
20
64.801313804758195
42
0.41421356237316787
10
-364.02982711222955
20
65.30133630240401
10
-364.02982711222955
20
79.301966236487345
42
0.4142135623731783
10
-364.52984960987533
20
79.801988734133204
10
-370.53011958162529
20
79.801988734133204
42
0.41421356237311585
10
-371.03014207927117
20
79.301966236487388
10
-371.03014207927112
20
65.30133630240401
42
0.4142135623731783
10
-370.53011958162529
20
64.801313804758195
0
LWPOLYLINE
5
160
100
AcDbEntity
8
0
100
AcDbPolyline
90
10
70
1
43
0.0
10
-174.73061202907309
20
149.30757100284276
10
-172.01694468015037
20
162.08339525657993
42
-0.14002109353637962
10
-171.88828303466167
20
162.32605304776934
42
-0.2648830566906723
10
-171.4165930476847
20
162.47627394041047
10
-158.61504866065951
20
159.75367591454906
42
-0.41418728981138825
10
-158.22998989059781
20
159.1606456513623
10
-160.94543811705432
20
146.38708824251586
42
-0.13997789778820172
10
-161.07408215086696
20
146.14451333169279
42
-0.26484529877773066
10
-161.54570311488749
20
145.99427776466487
10
-174.34546662463674
20
148.7146089454676
42
-0.41417899208738312
0
LWPOLYLINE
5
161
100
AcDbEntity
8
0
100
AcDbPolyline
90
8
70
1
43
0.0
10
-329.08727592878193
20
140.00569770931952
42
0.41421356237316787
10
-328.58725343113611
20
140.50572020696532
10
-328.58725343113611
20
153.50630514575695
42
0.41421356237312623
10
-329.08727592878193
20
154.00632764340281
10
-342.08786086757357
20
154.00632764340281
42
0.41421356237311585
10
-342.58788336521945
20
153.50630514575695
10
-342.5878833652194
20
140.50572020696532
42
0.41421356237312623
10
-342.08786086757357
20
140.00569770931949
0
LWPOLYLINE
5
162
100
AcDbEntity
8
0
100
AcDbPolyline
90
8
70
1
43
0.0
10
-204.00542060466719
20
91.44086622453257
10
-191.28950159107021
20
88.738014200527971
42
-0.41421356237308704
10
-190.90438363611216
20
88.144984554752114
10
-193.60723566011686
20
75.429065541155197
42
-0.41421356237307871
10
-194.20026530589263
20
75.04394758619722
10
-206.91618431948953
20
77.746799610201776
42
-0.41421356237310086
10
-207.30130227444758
20
78.339829255977591
10
-204.59845025044299
20
91.055748269574565
42
-0.41421356237308277
0
LWPOLYLINE
5
163
100
AcDbEntity
8
0
100
AcDbPolyline
90
8
70
1
43
0.0
10
-219.97859638142089
20
134.72445704167177
10
-232.69451539501776
20
132.02160501766718
42
-0.41421356237308277
10
-233.28754504079347
20
132.40672297262518
10
-235.99039706479806
20
145.12264198622205
42
-0.414213562373066
10
-235.60527910984007
20
145.71567163199782
10
-222.88936009624325
20
148.41852365600249
42
-0.41421356237311174
10
-222.29633045046742
20
148.03340570104444
10
-219.59347842646287
20
135.31748668744751
42
-0.41421356237302104
0
LWPOLYLINE
5
164
100
AcDbEntity
8
0
100
AcDbPolyline
90
8
70
1
43
0.0
10
-224.3669364486486
20
114.32131371961782
10
-237.08285546224556
20
111.61846169561322
42
-0.41421356237308277
10
-237.67588510802128
20
112.00357965057121
10
-240.37873713202589
20
124.71949866416813
42
-0.41421356237313794
10
-239.99361917706784
20
125.3125283099439
10
-227.27770016347097
20
128.01538033394851
42
-0.41421356237310736
10
-226.68467051769514
20
127.63026237899047
10
-223.98181849369055
20
114.91434336539359
42
-0.41421356237302531
0
LWPOLYLINE
5
165
100
AcDbEntity
8
0
100
AcDbPolyline
90
8
70
1
43
0.0
10
-218.54715246253227
20
96.086456361929947
10
-231.26307147612923
20
93.383604337925377
42
-0.41421356237308277
10
-231.85610112190494
20
93.768722292883368
10
-234.55895314590953
20
106.48464130648021
42
-0.41421356237315027
10
-234.17383519095154
20
107.07767095225603
10
-221.45791617735472
20
109.78052297626064
42
-0.41421356237310736
10
-220.86488653157889
20
109.39540502130258
10
-218.16203450757428
20
96.679486007705705
42
-0.41421356237302964
0
LWPOLYLINE
5
166
100
AcDbEntity
8
0
100
AcDbPolyline
90
8
70
1
43
0.0
10
-258.16383907514091
20
82.494688007424926
10
-245.44792006154407
20
85.197540031429526
42
-0.41421356237308277
10
-244.85489041576835
20
84.812422076471549
10
-242.15203839176357
20
72.096503062874646
42
-0.41421356237303641
10
-242.53715634672162
20
71.50347341709886
10
-255.2530753603186
20
68.800621393094261
42
-0.41421356237308893
10
-255.84610500609438
20
69.185739348052252
10
-258.54895703009896
20
81.90165836164914
42
-0.41421356237305001
0
LWPOLYLINE
5
167
100
AcDbEntity
8
0
100
AcDbPolyline
90
8
70
1
43
0.0
10
-242.47791331478552
20
163.18791357482547
10
-239.77493971854145
20
150.47142260881037
42
-0.41421356237308704
10
-240.16007500199422
20
149.8783662794927
10
-252.87656596800929
20
147.17539268324867
42
-0.41421356237311324
10
-253.46962229732694
20
147.56052796670136
10
-256.1725958935711
20
160.27701893271649
42
-0.41421356237311974
10
-255.78746061011827
20
160.87007526203416
10
-243.0709696441032
20
163.57304885827824
42
-0.41421356237309503
0
LWPOLYLINE
5
168
100
AcDbEntity
8
0
100
AcDbPolyline
90
8
70
1
43
0.0
10
-295.43126266309883
20
74.573252587268342
10
-282.71534364950185
20
77.27610461127297
42
-0.41421356237304308
10
-282.1223140037261
20
76.890986656314936
10
-279.41946197972152
20
64.175067642718034
42
-0.41421356237306822
10
-279.80457993467951
20
63.582037996942233
10
-292.5204989482765
20
60.879185972937613
42
-0.41421356237300744
10
-293.11352859405213
20
61.264303927895639
10
-295.81638061805688
20
73.980222941492528
42
-0.41421356237307128
0
LWPOLYLINE
5
169
100
AcDbEntity
8
0
100
AcDbPolyline
90
8
70
1
43
0.0
10
-223.90344455274274
20
75.464191127177131
10
-236.61936356633973
20
72.761339103172546
42
-0.41421356237308893
10
-237.2123932121155
20
73.146457058130551
10
-239.91524523612011
20
85.862376071727454
42
-0.41421356237313856
10
-239.53012728116207
20
86.45540571750324
10
-226.81420826756516
20
89.158257741507867
42
-0.41421356237310308
10
-226.22117862178936
20
88.773139786549805
10
-223.51832659778469
20
76.057220772952917
42
-0.41421356237314411
0
LWPOLYLINE
5
170
100
AcDbEntity
8
0
100
AcDbPolyline
90
8
70
1
43
0.0
10
-294.94810784063691
20
50.354346431929514
10
-282.23218882703998
20
53.057198455934149
42
-0.41421356237304385
10
-281.63915918126423
20
52.672080500976094
10
-278.93630715725959
20
39.95616148737917
42
-0.41421356237302115
10
-279.32142511221764
20
39.363131841603405
10
-292.03734412581457
20
36.660279817598813
42
-0.41421356237308893
10
-292.63037377159031
20
37.045397772556811
10
-295.3332257955949
20
49.761316786153735
42
-0.41421356237308671
0
LWPOLYLINE
5
171
100
AcDbEntity
8
0
100
AcDbPolyline
90
8
70
1
43
0.0
10
-242.05400152425966
20
47.284567261760003
10
-254.76992053785665
20
44.581715237755432
42
-0.41421356237308893
10
-255.36295018363239
20
44.966833192713423
10
-258.06580220763703
20
57.682752206310354
42
-0.4142135623731264
10
-257.68068425267899
20
58.275781852086126
10
-244.96476523908206
20
60.978633876090733
42
-0.41421356237309614
10
-244.37173559330631
20
60.593515921132727
10
-241.66888356930161
20
47.877596907535789
42
-0.41421356237302132
0
LWPOLYLINE
5
172
100
AcDbEntity
8
0
100
AcDbPolyline
90
8
70
1
43
0.0
10
-148.10428522273028
20
79.558713094297616
10
-135.3883662091333
20
76.855861070293003
42
-0.4142135623731103
10
-135.00324825417528
20
76.262831424517231
10
-137.70610027817992
20
63.546912410920257
42
-0.41421356237309287
10
-138.29912992395572
20
63.16179445596223
10
-151.01504893755262
20
65.864646479966893
42
-0.41421356237311469
10
-151.40016689251064
20
66.457676125742665
10
-148.69731486850606
20
79.173595139339611
42
-0.41421356237306239
0
LWPOLYLINE
5
173
100
AcDbEntity
8
0
100
AcDbPolyline
90
8
70
1
43
0.0
10
-156.33514790470508
20
41.68852891991078
10
-169.05106691830207
20
44.391380943915387
42
-0.41421356237310414
10
-169.43618487326009
20
44.984410589691201
10
-166.73333284925545
20
57.700329603288168
42
-0.41421356237306778
10
-166.14030320347965
20
58.085447558246173
10
-153.42438418988266
20
55.382595534241545
42
-0.41421356237310919
10
-153.03926623492464
20
54.789565888465773
10
-155.74211825892928
20
42.073646874868807
42
-0.41421356237309692
0
LWPOLYLINE
5
174
100
AcDbEntity
8
0
100
AcDbPolyline
90
8
70
1
43
0.0
10
-186.20768724827784
20
165.0988929700668
10
-188.92313547473435
20
152.32533556122038
42
-0.41419849899713623
10
-189.51614991299778
20
151.94022757496467
10
-202.31591342274703
20
154.6605587557674
42
-0.41417899208738312
10
-202.7010588271834
20
155.25352081314256
10
-199.98739147826083
20
168.0293450668789
42
-0.41428947138320787
10
-199.3942904053647
20
168.41452125911496
10
-186.59274601833957
20
165.69192323325365
42
-0.41418728981140429
0
LWPOLYLINE
5
175
100
AcDbEntity
8
0
100
AcDbPolyline
90
8
70
1
43
0.0
10
-190.16007897306125
20
107.98644229897134
10
-177.44415995946434
20
105.28359027496674
42
-0.4142135623730725
10
-177.0590420045063
20
104.69056062919091
10
-179.76189402851099
20
91.974641615594024
42
-0.41421356237312623
10
-180.35492367428674
20
91.58952366063599
10
-193.07084268788367
20
94.292375684640589
42
-0.41421356237310525
10
-193.45596064284169
20
94.885405330416404
10
-190.75310861883702
20
107.60132434401331
42
-0.41421356237316909
0
LWPOLYLINE
5
176
100
AcDbEntity
8
0
100
AcDbPolyline
90
8
70
1
43
0.0
10
-196.81869061438141
20
148.39059238940897
10
-184.10277160078451
20
145.68774036540432
42
-0.41421356237311757
10
-183.71765364582646
20
145.09471071962855
10
-186.42050566983113
20
132.37879170603162
42
-0.41421356237303619
10
-187.01353531560693
20
131.9936737510736
10
-199.72945432920383
20
134.69652577507824
42
-0.41421356237310952
10
-200.11457228416188
20
135.28955542085407
10
-197.41172026015727
20
148.00547443445097
42
-0.41421356237304569
0
LWPOLYLINE
5
177
100
AcDbEntity
8
0
100
AcDbPolyline
90
8
70
1
43
0.0
10
-367.2919978137287
20
102.90402990994623
42
0.41421356237318868
10
-366.79197531608287
20
103.40405240759209
10
-366.79197531608287
20
117.40468234167538
42
0.41421356237312623
10
-367.2919978137287
20
117.90470483932124
10
-373.29226778547877
20
117.90470483932124
42
0.41421356237311585
10
-373.79229028312466
20
117.40468234167538
10
-373.7922902831246
20
103.40405240759205
42
0.41421356237312623
10
-373.29226778547877
20
102.9040299099462
0
LWPOLYLINE
5
178
100
AcDbEntity
8
0
100
AcDbPolyline
90
8
70
1
43
0.0
10
-290.07497057288816
20
95.195517822021131
10
-277.35905155929129
20
97.898369846025759
42
-0.41421356237305001
10
-276.76602191351554
20
97.513251891067711
10
-274.06316988951102
20
84.797332877470836
42
-0.41421356237305151
10
-274.44828784446895
20
84.20430323169505
10
-287.16420685806588
20
81.501451207690465
42
-0.41421356237308277
10
-287.75723650384157
20
81.886569162648456
10
-290.46008852784632
20
94.602488176245345
42
-0.41421356237314438
0
LWPOLYLINE
5
179
100
AcDbEntity
8
0
100
AcDbPolyline
90
8
70
1
43
0.0
10
-159.5512670264236
20
140.46915696925237
10
-146.83534801282661
20
137.76630494524773
42
-0.41421356237312557
10
-146.45023005786859
20
137.17327529947195
10
-149.15308208187324
20
124.45735628587505
42
-0.41421356237310308
10
-149.74611172764904
20
124.07223833091703
10
-162.46203074124591
20
126.77509035492163
42
-0.41421356237312773
10
-162.84714869620399
20
127.36812000069742
10
-160.14429667219943
20
140.08403901429435
42
-0.414213562373066
0
LWPOLYLINE
5
180
100
AcDbEntity
8
0
100
AcDbPolyline
90
8
70
1
43
0.0
10
-192.4031679161304
20
127.97992506565835
10
-179.6872489025335
20
125.27707304165372
42
-0.41421356237311757
10
-179.30213094757545
20
124.68404339587795
10
-182.00498297158009
20
111.96812438228099
42
-0.41421356237303619
10
-182.59801261735589
20
111.58300642732297
10
-195.31393163095282
20
114.2858584513276
42
-0.41421356237310952
10
-195.69904958591084
20
114.87888809710341
10
-192.99619756190623
20
127.59480711070032
42
-0.41421356237307466
0
LWPOLYLINE
5
181
100
AcDbEntity
8
0
100
AcDbPolyline
90
8
70
1
43
0.0
10
-155.8266320605081
20
161.14608085705947
10
-149.95774645610533
20
159.8986107121529
42
-0.41421356237308277
10
-149.57262850114731
20
159.30558106637713
10
-152.48339217259596
20
145.61151465610391
42
-0.41421356237313212
10
-153.07642181837173
20
145.22639670114589
10
-158.94530742277453
20
146.47386684605243
42
-0.41421356237310952
10
-159.33042537773252
20
147.0668964918282
10
-156.41966170628396
20
160.76096290210148
42
-0.41421356237314372
0
LWPOLYLINE
5
182
100
AcDbEntity
8
0
100
AcDbPolyline
90
8
70
1
43
0.0
10
-155.13574432817251
20
120.05848964550174
10
-142.41982531457552
20
117.3556376214971
42
-0.41421356237312557
10
-142.0347073596175
20
116.76260797572132
10
-144.73755938362214
20
104.04668896212436
42
-0.41421356237310308
10
-145.33058902939794
20
103.66157100716634
10
-158.04650804299484
20
106.36442303117094
42
-0.41421356237312346
10
-158.43162599795289
20
106.95745267694674
10
-155.72877397394831
20
119.67337169054373
42
-0.41421356237307905
0
LWPOLYLINE
5
183
100
AcDbEntity
8
0
100
AcDbPolyline
90
8
70
1
43
0.0
10
-357.66354335787042
20
82.853128517322091
42
0.41421356237316787
10
-357.16352086022459
20
83.353151014967906
10
-357.16352086022459
20
96.353735953759582
42
0.41421356237312623
10
-357.66354335787042
20
96.853758451405398
10
-370.66412829666217
20
96.853758451405426
42
0.41421356237311585
10
-371.16415079430794
20
96.353735953759582
10
-371.164150794308
20
83.353151014967906
42
0.41421356237312623
10
-370.66412829666217
20
82.853128517322062
0
LWPOLYLINE
5
184
100
AcDbEntity
8
0
100
AcDbPolyline
90
8
70
1
43
0.0
10
-97.618853595711727
20
63.801268809466514
42
0.41421356237310542
10
-97.118831098065911
20
64.301291307112351
10
-97.118831098065911
20
77.301876245904012
42
0.41421356237308982
10
-97.618853595711741
20
77.80189874354987
10
-110.61943853450346
20
77.801898743549856
42
0.41421356237305862
10
-111.11946103214926
20
77.301876245904054
10
-111.11946103214927
20
64.301291307112351
42
0.41421356237308982
10
-110.61943853450344
20
63.801268809466535
0
LWPOLYLINE
5
185
100
AcDbEntity
8
0
100
AcDbPolyline
90
8
70
1
43
0.0
10
-93.808680790297672
20
36.178026685789817
42
0.41421356237309503
10
-93.308658292651842
20
36.678049183435647
10
-93.308658292651842
20
49.678633645368706
42
0.41421356237310542
10
-93.808680790297672
20
50.178656143014507
10
-106.80926572908938
20
50.178656143014528
42
0.41421356237308982
10
-107.30928822673519
20
49.678633645368691
10
-107.30928822673521
20
36.67804918343564
42
0.41421356237310281
10
-106.80926572908938
20
36.178026685789803
0
LWPOLYLINE
5
186
100
AcDbEntity
8
0
100
AcDbPolyline
90
8
70
1
43
0.0
10
-78.568995740316211
20
63.801268809466514
42
0.41421356237310025
10
-78.068973242670396
20
64.301291307112351
10
-78.068973242670396
20
77.301876245904012
42
0.41421356237310542
10
-78.568995740316225
20
77.80189874354987
10
-91.56958163282512
20
77.801898743549856
42
0.41421356237305862
10
-92.069604130470921
20
77.301876245904054
10
-92.069604130470935
20
64.301291307112351
42
0.41421356237309503
10
-91.569581632825106
20
63.801268809466535
0
LWPOLYLINE
5
187
100
AcDbEntity
8
0
100
AcDbPolyline
90
8
70
1
43
0.0
10
-78.091974041040174
20
101.90398491465456
42
0.41421356237310542
10
-77.591951543394345
20
102.4040074123004
10
-77.591951543394359
20
115.40459235109205
42
0.41421356237307422
10
-78.091974041040189
20
115.90461484873791
10
-91.092558979831892
20
115.90461484873788
42
0.4142135623730846
10
-91.592581477477708
20
115.40459235109205
10
-91.592581477477722
20
102.40400741230039
42
0.4142135623730846
10
-91.092558979831892
20
101.90398491465453
0
LWPOLYLINE
5
188
100
AcDbEntity
8
0
100
AcDbPolyline
90
8
70
1
43
0.0
10
-351.85328437674201
20
101.90398491465457
42
0.41421356237318868
10
-351.35326187909618
20
102.40400741230042
10
-351.35326187909618
20
115.40459235109205
42
0.41421356237312623
10
-351.85328437674201
20
115.90461484873791
10
-364.85386931553364
20
115.90461484873791
42
0.41421356237311585
10
-365.35389181317953
20
115.40459235109205
10
-365.35389181317947
20
102.40400741230039
42
0.41421356237312623
10
-364.85386931553364
20
101.90398491465453
0
LWPOLYLINE
5
189
100
AcDbEntity
8
0
100
AcDbPolyline
90
8
70
1
43
0.0
10
-78.091974041040189
20
120.95483749711811
42
0.41421356237307422
10
-77.591951543394359
20
121.45485999476394
10
-77.591951543394359
20
134.45544493355561
42
0.41421356237307422
10
-78.091974041040189
20
134.95546743120141
10
-91.092558979831892
20
134.95546743120144
42
0.4142135623730846
10
-91.592581477477708
20
134.45544493355561
10
-91.592581477477722
20
121.45485999476394
42
0.4142135623730846
10
-91.092558979831892
20
120.95483749711809
0
LWPOLYLINE
5
190
100
AcDbEntity
8
0
100
AcDbPolyline
90
8
70
1
43
0.0
10
-305.27419278161943
20
36.178026685789803
42
0.41421356237309243
10
-304.7741702839736
20
36.678049183435647
10
-304.7741702839736
20
49.678633645368691
42
0.41421356237314705
10
-305.27419278161943
20
50.178656143014507
10
-318.27477772041107
20
50.178656143014507
42
0.41421356237309503
10
-318.77480021805695
20
49.678633645368691
10
-318.7748002180569
20
36.678049183435647
42
0.41421356237314189
10
-318.27477772041107
20
36.178026685789803
0
LWPOLYLINE
5
191
100
AcDbEntity
8
0
100
AcDbPolyline
90
8
70
1
43
0.0
10
-382.42967231536522
20
36.750052211371425
42
0.41421356237317569
10
-381.92964981771945
20
37.250074709017241
10
-381.92964981771945
20
50.250659886238211
42
0.4142135623731783
10
-382.42967231536522
20
50.750682383884055
10
-395.43025725415691
20
50.750682383884026
42
0.41421356237317308
10
-395.93027975180263
20
50.250659886238211
10
-395.93027975180269
20
37.250074709017241
42
0.41421356237313145
10
-395.43025725415691
20
36.750052211371425
0
LWPOLYLINE
5
192
100
AcDbEntity
8
0
100
AcDbPolyline
90
87
70
1
43
0.0
10
-226.24449999999996
20
175.38431000000026
10
-226.24449999999996
20
172.57158426192319
10
-283.64844070198188
20
160.37
10
-332.25999999999999
20
160.37
10
-332.25999999999999
20
163.37000000000003
10
-322.25999999999897
20
163.3700000000006
10
-322.25999999999999
20
167.37
10
-372.25999999999999
20
167.37
10
-372.25999999999783
20
163.37000000000202
10
-362.25999999999783
20
163.37000000000188
10
-362.25999999999999
20
160.37
10
-410.87999999999994
20
160.37
10
-410.87999999999994
20
143.54570000000001
10
-413.88000000000005
20
143.54570000000001
10
-413.88000000000005
20
153.54569999999936
10
-417.88
20
153.54570000000001
10
-417.88
20
103.54570000000001
10
-413.87999999999977
20
103.54569999999944
10
-413.88000000000005
20
113.54570000000001
10
-410.87999999999994
20
113.54570000000001
10
-410.87999999999994
20
79.897492999999983
10
-413.88000000000005
20
79.897492999999983
10
-413.88000000000005
20
89.897492999999372
10
-417.88
20
89.897493000000011
10
-417.88
20
39.897492999999983
10
-413.87999999999977
20
39.897492999999415
10
-413.87999999999977
20
49.897492999999486
10
-410.87999999999994
20
49.897492999999983
10
-410.87999999999994
20
33.073492999999999
10
-362.25999999999999
20
33.073492999999999
10
-362.25999999999999
20
30.073493000000031
10
-372.26000000000045
20
30.073493000000031
10
-372.25999999999999
20
26.07349300000001
10
-322.25999999999999
20
26.07349300000001
10
-322.26000000000084
20
30.073492999999605
10
-332.26000000000084
20
30.07349299999964
10
-332.25999999999999
20
33.073492999999999
10
-226.24450000000024
20
33.073492999999715
10
-226.2445000000001
20
30.073492999999711
10
-236.2445000000001
20
30.073492999999694
10
-236.2445000000001
20
26.07349299999969
10
-186.2445000000001
20
26.07349299999969
10
-186.2445000000001
20
30.073492999999694
10
-196.24450000000019
20
30.073492999999747
10
-196.24450000000019
20
33.073492999999715
10
-115.91999999999999
20
33.073492999999999
10
-115.91999999999999
20
30.073492999999996
10
-125.92000000000041
20
30.073493000000031
10
-125.91999999999999
20
26.07349300000001
10
-75.919999999999987
20
26.07349300000001
10
-75.92000000000084
20
30.073492999999605
10
-85.919999999999987
20
30.073492999999996
10
-85.919999999999987
20
33.073492999999999
10
-62.980000000000018
20
33.073492999999999
10
-62.980000000000018
20
49.897793000000007
10
-59.980000000000047
20
49.897793000000007
10
-59.980000000000047
20
39.897793000000604
10
-55.980000000000061
20
39.897792999999965
10
-55.97999999999999
20
89.897793000000007
10
-59.980000000000189
20
89.897793000000576
10
-59.980000000000189
20
79.897793000000533
10
-62.980000000000018
20
79.897793000000007
10
-62.980000000000018
20
113.54599999999999
10
-59.980000000000047
20
113.54599999999999
10
-59.980000000000047
20
103.5460000000006
10
-55.980000000000061
20
103.54599999999996
10
-55.97999999999999
20
153.54599999999999
10
-59.980000000000189
20
153.54600000000056
10
-59.980000000000189
20
143.54600000000053
10
-62.980000000000018
20
143.54599999999999
10
-62.980000000000018
20
160.37
10
-85.919999999999987
20
160.37
10
-85.919999999999987
20
163.37000000000003
10
-75.919999999999987
20
163.37000000000012
10
-75.919999999999987
20
167.37
10
-125.91999999999999
20
167.37
10
-125.91999999999999
20
163.37000000000012
10
-115.91999999999999
20
163.37000000000003
10
-115.91999999999999
20
160.37
10
-138.84051029801697
20
160.37
10
-196.24449999999982
20
172.5715946771947
10
-196.24450000000002
20
175.38431000000031
10
-186.24450000000002
20
175.38431000000031
10
-186.24450000000002
20
179.38431000000031
10
-211.24450000000002
20
179.38431000007307
10
-236.24450000000002
20
179.38431000000031
10
-236.2445000000001
20
175.38431000000031
0
ENDSEC
0
SECTION
2
OBJECTS
0
DICTIONARY
5
C
100
AcDbDictionary
3
ACAD_GROUP
350
D
3
ACAD_MLINESTYLE
350
17
0
DICTIONARY
5
D
100
AcDbDictionary
0
DICTIONARY
5
1A
330
C
100
AcDbDictionary
0
DICTIONARY
5
17
100
AcDbDictionary
0
ENDSEC
0
EOF
