0
SECTION
2
HEADER
9
$INSUNITS
70
4
9
$ACADVER
1
AC1014
9
$HANDSEED
5
FFFF
0
ENDSEC
0
SECTION
2
TABLES
0
TABLE
2
VPORT
5
8
100
AcDbSymbolTable
0
ENDTAB
0
TABLE
2
LTYPE
5
5
100
AcDbSymbolTable
0
LTYPE
5
14
100
AcDbSymbolTableRecord
100
AcDbLinetypeTableRecord
2
BYBLOCK
70
0
0
LTYPE
5
15
100
AcDbSymbolTableRecord
100
AcDbLinetypeTableRecord
2
BYLAYER
70
0
0
LTYPE
5
16
100
AcDbSymbolTableRecord
100
AcDbLinetypeTableRecord
2
DASHED
70
0
3
Dashed __ __ __ __ __ __ __ __ __ __ __ __ __ _
72
65
73
2
40
0.75
49
0.5
74
0
49
-0.25
74
0
0
ENDTAB
0
TABLE
2
LAYER
5
2
100
AcDbSymbolTable
70
2
0
LAYER
5
50
100
AcDbSymbolTableRecord
100
AcDbLayerTableRecord
2
0
70
0
62
7
6
CONTINUOUS
0
ENDTAB
0
TABLE
2
STYLE
5
3
100
AcDbSymbolTable
70
1
0
STYLE
5
11
100
AcDbSymbolTableRecord
100
AcDbTextStyleTableRecord
2
STANDARD
70
0
0
ENDTAB
0
TABLE
2
VIEW
5
6
100
AcDbSymbolTable
70
0
0
ENDTAB
0
TABLE
2
UCS
5
7
100
AcDbSymbolTable
70
0
0
ENDTAB
0
TABLE
2
APPID
5
9
100
AcDbSymbolTable
70
2
0
APPID
5
12
100
AcDbSymbolTableRecord
100
AcDbRegAppTableRecord
2
ACAD
70
0
0
ENDTAB
0
TABLE
2
DIMSTYLE
5
A
100
AcDbSymbolTable
70
1
0
ENDTAB
0
TABLE
2
BLOCK_RECORD
5
1
100
AcDbSymbolTable
70
1
0
BLOCK_RECORD
5
1F
100
AcDbSymbolTableRecord
100
AcDbBlockTableRecord
2
*MODEL_SPACE
0
BLOCK_RECORD
5
1B
100
AcDbSymbolTableRecord
100
AcDbBlockTableRecord
2
*PAPER_SPACE
0
ENDTAB
0
ENDSEC
0
SECTION
2
BLOCKS
0
BLOCK
5
20
100
AcDbEntity
100
AcDbBlockBegin
2
*MODEL_SPACE
0
ENDBLK
5
21
100
AcDbEntity
100
AcDbBlockEnd
0
BLOCK
5
1C
100
AcDbEntity
100
AcDbBlockBegin
2
*PAPER_SPACE
0
ENDBLK
5
1D
100
AcDbEntity
100
AcDbBlockEnd
0
ENDSEC
0
SECTION
2
ENTITIES
0
CIRCLE
5
100
100
AcDbEntity
8
0
100
AcDbCircle
10
-235.61537446414263
20
140.59623392031267
30
0
40
2.5499999999999901
210
-7.8886090522101181e-31
220
-0
230
1
0
SPLINE
5
101
100
AcDbEntity
8
0
100
AcDbSpline
70
4
71
3
72
8
73
4
74
0
42
0.000000001
43
0.0000000001
44
0.0000000001
40
-1
40
-1
40
-1
40
-1
40
0
40
0
40
0
40
0
41
1
41
1
41
1
41
1
10
-321.21525000000008
20
-1.0198299999999987
30
0
10
-321.25716000000006
20
-1.0312599999999976
30
0
10
-321.48957000000007
20
-1.0388799999999991
30
0
10
-321.7296
20
-1.0426899999999999
30
0
0
SPLINE
5
102
100
AcDbEntity
8
0
100
AcDbSpline
70
4
71
3
72
8
73
4
74
0
42
0.000000001
43
0.0000000001
44
0.0000000001
40
-1
40
-1
40
-1
40
-1
40
0
40
0
40
0
40
0
41
1
41
1
41
1
41
1
10
-321.7296
20
-1.0426899999999999
30
0
10
-322.62495000000001
20
-1.050309999999997
30
0
10
-323.59269000000006
20
-0.8026599999999966
30
0
10
-324.56805000000003
20
-0.31878999999999924
30
0
0
SPLINE
5
103
100
AcDbEntity
8
0
100
AcDbSpline
70
4
71
3
72
8
73
4
74
0
42
0.000000001
43
0.0000000001
44
0.0000000001
40
-1
40
-1
40
-1
40
-1
40
0
40
0
40
0
40
0
41
1
41
1
41
1
41
1
10
-324.56805000000003
20
-0.31878999999999924
30
0
10
-326.20254
20
0.48893000000000253
30
0
10
-327.66939000000008
20
1.7729000000000059
30
0
10
-328.70571000000007
20
3.2969000000000066
30
0
0
SPLINE
5
104
100
AcDbEntity
8
0
100
AcDbSpline
70
4
71
3
72
8
73
4
74
0
42
0.000000001
43
0.0000000001
44
0.0000000001
40
-1
40
-1
40
-1
40
-1
40
0
40
0
40
0
40
0
41
1
41
1
41
1
41
1
10
-328.70571000000007
20
3.2969000000000066
30
0
10
-329.65821000000005
20
4.6951700000000036
30
0
10
-330.40878000000009
20
6.5963600000000078
30
0
10
-330.66405000000003
20
8.2499000000000073
30
0
0
SPLINE
5
105
100
AcDbEntity
8
0
100
AcDbSpline
70
4
71
3
72
8
73
4
74
0
42
0.000000001
43
0.0000000001
44
0.0000000001
40
-1
40
-1
40
-1
40
-1
40
0
40
0
40
0
40
0
41
1
41
1
41
1
41
1
10
-330.66405000000003
20
8.2499000000000073
30
0
10
-330.69834000000009
20
8.4708800000000082
30
0
10
-330.73644000000002
20
9.0195200000000053
30
0
10
-330.74787000000003
20
9.4767200000000074
30
0
0
SPLINE
5
106
100
AcDbEntity
8
0
100
AcDbSpline
70
4
71
3
72
8
73
4
74
0
42
0.000000001
43
0.0000000001
44
0.0000000001
40
-1
40
-1
40
-1
40
-1
40
0
40
0
40
0
40
0
41
1
41
1
41
1
41
1
10
-330.74787000000003
20
9.4767200000000074
30
0
10
-330.76311000000004
20
10.074890000000011
30
0
10
-330.78216000000003
20
10.30730000000001
30
0
10
-330.81264000000004
20
10.30730000000001
30
0
0
SPLINE
5
107
100
AcDbEntity
8
0
100
AcDbSpline
70
4
71
3
72
8
73
4
74
0
42
0.000000001
43
0.0000000001
44
0.0000000001
40
-1
40
-1
40
-1
40
-1
40
0
40
0
40
0
40
0
41
1
41
1
41
1
41
1
10
-330.81264000000004
20
10.30730000000001
30
0
10
-330.85455000000013
20
10.30730000000001
30
0
10
-330.93837000000008
20
10.242530000000007
30
0
10
-331.4565300000001
20
9.8081900000000068
30
0
0
SPLINE
5
108
100
AcDbEntity
8
0
100
AcDbSpline
70
4
71
3
72
8
73
4
74
0
42
0.000000001
43
0.0000000001
44
0.0000000001
40
-1
40
-1
40
-1
40
-1
40
0
40
0
40
0
40
0
41
1
41
1
41
1
41
1
10
-331.4565300000001
20
9.8081900000000068
30
0
10
-332.03946000000002
20
9.316700000000008
30
0
10
-332.49666000000002
20
9.0119000000000078
30
0
10
-333.0643500000001
20
8.7375800000000066
30
0
0
SPLINE
5
109
100
AcDbEntity
8
0
100
AcDbSpline
70
4
71
3
72
8
73
4
74
0
42
0.000000001
43
0.0000000001
44
0.0000000001
40
-1
40
-1
40
-1
40
-1
40
0
40
0
40
0
40
0
41
1
41
1
41
1
41
1
10
-333.0643500000001
20
8.7375800000000066
30
0
10
-333.4720200000001
20
8.543270000000005
30
0
10
-333.49107000000004
20
8.5356500000000075
30
0
10
-333.82635000000005
20
8.5356500000000075
30
0
0
SPLINE
5
110
100
AcDbEntity
8
0
100
AcDbSpline
70
4
71
3
72
8
73
4
74
0
42
0.000000001
43
0.0000000001
44
0.0000000001
40
-1
40
-1
40
-1
40
-1
40
0
40
0
40
0
40
0
41
1
41
1
41
1
41
1
10
-333.82635000000005
20
8.5356500000000075
30
0
10
-334.10448000000002
20
8.5356500000000075
30
0
10
-334.20354000000003
20
8.5508900000000096
30
0
10
-334.35975000000008
20
8.6232800000000065
30
0
0
SPLINE
5
111
100
AcDbEntity
8
0
100
AcDbSpline
70
4
71
3
72
8
73
4
74
0
42
0.000000001
43
0.0000000001
44
0.0000000001
40
-1
40
-1
40
-1
40
-1
40
0
40
0
40
0
40
0
41
1
41
1
41
1
41
1
10
-334.35975000000008
20
8.6232800000000065
30
0
10
-334.75980000000004
20
8.8061600000000091
30
0
10
-335.02269000000007
20
9.1833500000000079
30
0
10
-335.05698000000007
20
9.6215000000000099
30
0
0
SPLINE
5
112
100
AcDbEntity
8
0
100
AcDbSpline
70
4
71
3
72
8
73
4
74
0
42
0.000000001
43
0.0000000001
44
0.0000000001
40
-1
40
-1
40
-1
40
-1
40
0
40
0
40
0
40
0
41
1
41
1
41
1
41
1
10
-335.05698000000007
20
9.6215000000000099
30
0
10
-335.06460000000004
20
9.7586600000000061
30
0
10
-335.11032000000006
20
9.9377300000000073
30
0
10
-335.15223000000003
20
10.02155000000001
30
0
0
SPLINE
5
113
100
AcDbEntity
8
0
100
AcDbSpline
70
4
71
3
72
8
73
4
74
0
42
0.000000001
43
0.0000000001
44
0.0000000001
40
-1
40
-1
40
-1
40
-1
40
0
40
0
40
0
40
0
41
1
41
1
41
1
41
1
10
-335.15223000000003
20
10.02155000000001
30
0
10
-335.19414000000006
20
10.105370000000011
30
0
10
-335.23605000000003
20
10.280630000000009
30
0
10
-335.24748
20
10.41017000000001
30
0
0
SPLINE
5
114
100
AcDbEntity
8
0
100
AcDbSpline
70
4
71
3
72
8
73
4
74
0
42
0.000000001
43
0.0000000001
44
0.0000000001
40
-1
40
-1
40
-1
40
-1
40
0
40
0
40
0
40
0
41
1
41
1
41
1
41
1
10
-335.24748
20
10.41017000000001
30
0
10
-335.25891000000001
20
10.543520000000012
30
0
10
-335.27796000000012
20
10.661630000000009
30
0
10
-335.29701
20
10.673060000000007
30
0
0
SPLINE
5
115
100
AcDbEntity
8
0
100
AcDbSpline
70
4
71
3
72
8
73
4
74
0
42
0.000000001
43
0.0000000001
44
0.0000000001
40
-1
40
-1
40
-1
40
-1
40
0
40
0
40
0
40
0
41
1
41
1
41
1
41
1
10
-335.29701
20
10.673060000000007
30
0
10
-335.31225000000006
20
10.680680000000006
30
0
10
-335.39988000000005
20
10.593050000000011
30
0
10
-335.49132000000009
20
10.474940000000007
30
0
0
SPLINE
5
116
100
AcDbEntity
8
0
100
AcDbSpline
70
4
71
3
72
8
73
4
74
0
42
0.000000001
43
0.0000000001
44
0.0000000001
40
-1
40
-1
40
-1
40
-1
40
0
40
0
40
0
40
0
41
1
41
1
41
1
41
1
10
-335.49132000000009
20
10.474940000000007
30
0
10
-335.91042000000004
20
9.9224900000000087
30
0
10
-336.00948000000005
20
9.804380000000009
30
0
10
-336.52764000000002
20
9.2062100000000093
30
0
0
SPLINE
5
117
100
AcDbEntity
8
0
100
AcDbSpline
70
4
71
3
72
8
73
4
74
0
42
0.000000001
43
0.0000000001
44
0.0000000001
40
-1
40
-1
40
-1
40
-1
40
0
40
0
40
0
40
0
41
1
41
1
41
1
41
1
10
-336.52764000000002
20
9.2062100000000093
30
0
10
-336.96579000000008
20
8.703290000000008
30
0
10
-337.44585000000001
20
8.3489600000000088
30
0
10
-337.75445999999999
20
8.3032400000000077
30
0
0
SPLINE
5
118
100
AcDbEntity
8
0
100
AcDbSpline
70
4
71
3
72
8
73
4
74
0
42
0.000000001
43
0.0000000001
44
0.0000000001
40
-1
40
-1
40
-1
40
-1
40
0
40
0
40
0
40
0
41
1
41
1
41
1
41
1
10
-337.75445999999999
20
8.3032400000000077
30
0
10
-338.28405000000004
20
8.2270400000000077
30
0
10
-338.7564900000001
20
8.5166000000000075
30
0
10
-338.89746000000002
20
9.0042800000000067
30
0
0
SPLINE
5
119
100
AcDbEntity
8
0
100
AcDbSpline
70
4
71
3
72
8
73
4
74
0
42
0.000000001
43
0.0000000001
44
0.0000000001
40
-1
40
-1
40
-1
40
-1
40
0
40
0
40
0
40
0
41
1
41
1
41
1
41
1
10
-338.89746000000002
20
9.0042800000000067
30
0
10
-338.96223000000009
20
9.2252600000000111
30
0
10
-338.94699000000003
20
9.4500500000000098
30
0
10
-338.85174000000006
20
9.6786500000000082
30
0
0
SPLINE
5
120
100
AcDbEntity
8
0
100
AcDbSpline
70
4
71
3
72
8
73
4
74
0
42
0.000000001
43
0.0000000001
44
0.0000000001
40
-1
40
-1
40
-1
40
-1
40
0
40
0
40
0
40
0
41
1
41
1
41
1
41
1
10
-338.85174000000006
20
9.6786500000000082
30
0
10
-338.82126000000005
20
9.7510400000000086
30
0
10
-338.79840000000002
20
9.8158100000000044
30
0
10
-338.79840000000002
20
9.8196200000000111
30
0
0
SPLINE
5
121
100
AcDbEntity
8
0
100
AcDbSpline
70
4
71
3
72
8
73
4
74
0
42
0.000000001
43
0.0000000001
44
0.0000000001
40
-1
40
-1
40
-1
40
-1
40
0
40
0
40
0
40
0
41
1
41
1
41
1
41
1
10
-338.79840000000002
20
9.8196200000000111
30
0
10
-338.79840000000002
20
9.8272400000000086
30
0
10
-338.99271000000005
20
9.8310500000000101
30
0
10
-339.22512000000012
20
9.8310500000000101
30
0
0
SPLINE
5
122
100
AcDbEntity
8
0
100
AcDbSpline
70
4
71
3
72
8
73
4
74
0
42
0.000000001
43
0.0000000001
44
0.0000000001
40
-1
40
-1
40
-1
40
-1
40
0
40
0
40
0
40
0
41
1
41
1
41
1
41
1
10
-339.22512000000012
20
9.8310500000000101
30
0
10
-339.61755000000011
20
9.8310500000000101
30
0
10
-339.67470000000003
20
9.8424800000000072
30
0
10
-339.84615000000008
20
9.9301100000000062
30
0
0
SPLINE
5
123
100
AcDbEntity
8
0
100
AcDbSpline
70
4
71
3
72
8
73
4
74
0
42
0.000000001
43
0.0000000001
44
0.0000000001
40
-1
40
-1
40
-1
40
-1
40
0
40
0
40
0
40
0
41
1
41
1
41
1
41
1
10
-339.84615000000008
20
9.9301100000000062
30
0
10
-340.06332000000009
20
10.048220000000011
30
0
10
-340.40241000000009
20
10.387310000000006
30
0
10
-340.5014700000001
20
10.589240000000007
30
0
0
SPLINE
5
124
100
AcDbEntity
8
0
100
AcDbSpline
70
4
71
3
72
8
73
4
74
0
42
0.000000001
43
0.0000000001
44
0.0000000001
40
-1
40
-1
40
-1
40
-1
40
0
40
0
40
0
40
0
41
1
41
1
41
1
41
1
10
-340.5014700000001
20
10.589240000000007
30
0
10
-340.5357600000001
20
10.665440000000007
30
0
10
-340.57767000000007
20
10.726400000000012
30
0
10
-340.59291000000002
20
10.726400000000012
30
0
0
SPLINE
5
125
100
AcDbEntity
8
0
100
AcDbSpline
70
4
71
3
72
8
73
4
74
0
42
0.000000001
43
0.0000000001
44
0.0000000001
40
-1
40
-1
40
-1
40
-1
40
0
40
0
40
0
40
0
41
1
41
1
41
1
41
1
10
-340.59291000000002
20
10.726400000000012
30
0
10
-340.60434000000009
20
10.726400000000012
30
0
10
-340.66149000000007
20
10.627340000000007
30
0
10
-340.71483000000006
20
10.50542000000001
30
0
0
SPLINE
5
126
100
AcDbEntity
8
0
100
AcDbSpline
70
4
71
3
72
8
73
4
74
0
42
0.000000001
43
0.0000000001
44
0.0000000001
40
-1
40
-1
40
-1
40
-1
40
0
40
0
40
0
40
0
41
1
41
1
41
1
41
1
10
-340.71483000000006
20
10.50542000000001
30
0
10
-340.76817000000005
20
10.387310000000006
30
0
10
-340.91676000000007
20
10.055840000000007
30
0
10
-341.04630000000009
20
9.7739000000000082
30
0
0
SPLINE
5
127
100
AcDbEntity
8
0
100
AcDbSpline
70
4
71
3
72
8
73
4
74
0
42
0.000000001
43
0.0000000001
44
0.0000000001
40
-1
40
-1
40
-1
40
-1
40
0
40
0
40
0
40
0
41
1
41
1
41
1
41
1
10
-341.04630000000009
20
9.7739000000000082
30
0
10
-341.17584000000011
20
9.4919600000000095
30
0
10
-341.40063000000009
20
8.9661800000000085
30
0
10
-341.54922000000005
20
8.6118500000000076
30
0
0
SPLINE
5
128
100
AcDbEntity
8
0
100
AcDbSpline
70
4
71
3
72
8
73
4
74
0
42
0.000000001
43
0.0000000001
44
0.0000000001
40
-1
40
-1
40
-1
40
-1
40
0
40
0
40
0
40
0
41
1
41
1
41
1
41
1
10
-341.54922000000005
20
8.6118500000000076
30
0
10
-341.69781000000006
20
8.2537100000000088
30
0
10
-341.84640000000002
20
7.9031900000000066
30
0
10
-341.8845
20
7.8308000000000089
30
0
0
SPLINE
5
129
100
AcDbEntity
8
0
100
AcDbSpline
70
4
71
3
72
8
73
4
74
0
42
0.000000001
43
0.0000000001
44
0.0000000001
40
-1
40
-1
40
-1
40
-1
40
0
40
0
40
0
40
0
41
1
41
1
41
1
41
1
10
-341.8845
20
7.8308000000000089
30
0
10
-342.03309000000002
20
7.5336200000000053
30
0
10
-342.03309000000002
20
7.5412400000000073
30
0
10
-341.70924000000008
20
7.5145700000000044
30
0
0
SPLINE
5
130
100
AcDbEntity
8
0
100
AcDbSpline
70
4
71
3
72
8
73
4
74
0
42
0.000000001
43
0.0000000001
44
0.0000000001
40
-1
40
-1
40
-1
40
-1
40
0
40
0
40
0
40
0
41
1
41
1
41
1
41
1
10
-341.70924000000008
20
7.5145700000000044
30
0
10
-341.18346000000003
20
7.4764700000000062
30
0
10
-340.72245000000009
20
7.171670000000006
30
0
10
-340.52052000000003
20
6.7335200000000057
30
0
0
SPLINE
5
131
100
AcDbEntity
8
0
100
AcDbSpline
70
4
71
3
72
8
73
4
74
0
42
0.000000001
43
0.0000000001
44
0.0000000001
40
-1
40
-1
40
-1
40
-1
40
0
40
0
40
0
40
0
41
1
41
1
41
1
41
1
10
-340.52052000000003
20
6.7335200000000057
30
0
10
-340.44051000000013
20
6.5544500000000072
30
0
10
-340.42146000000002
20
6.4592000000000072
30
0
10
-340.42146000000002
20
6.1925000000000079
30
0
0
SPLINE
5
132
100
AcDbEntity
8
0
100
AcDbSpline
70
4
71
3
72
8
73
4
74
0
42
0.000000001
43
0.0000000001
44
0.0000000001
40
-1
40
-1
40
-1
40
-1
40
0
40
0
40
0
40
0
41
1
41
1
41
1
41
1
10
-340.42146000000002
20
6.1925000000000079
30
0
10
-340.42146000000002
20
5.9181800000000067
30
0
10
-340.43670000000009
20
5.8381700000000052
30
0
10
-340.52433000000008
20
5.6552900000000061
30
0
0
SPLINE
5
133
100
AcDbEntity
8
0
100
AcDbSpline
70
4
71
3
72
8
73
4
74
0
42
0.000000001
43
0.0000000001
44
0.0000000001
40
-1
40
-1
40
-1
40
-1
40
0
40
0
40
0
40
0
41
1
41
1
41
1
41
1
10
-340.52433000000008
20
5.6552900000000061
30
0
10
-340.74531000000007
20
5.2019000000000055
30
0
10
-341.38158000000004
20
4.7561300000000042
30
0
10
-342.13596000000007
20
4.5313400000000055
30
0
0
SPLINE
5
134
100
AcDbEntity
8
0
100
AcDbSpline
70
4
71
3
72
8
73
4
74
0
42
0.000000001
43
0.0000000001
44
0.0000000001
40
-1
40
-1
40
-1
40
-1
40
0
40
0
40
0
40
0
41
1
41
1
41
1
41
1
10
-342.13596000000007
20
4.5313400000000055
30
0
10
-342.48648000000003
20
4.4284700000000035
30
0
10
-343.01607000000001
20
4.3941800000000049
30
0
10
-343.52280000000007
20
4.4399000000000068
30
0
0
LINE
5
135
100
AcDbEntity
8
0
100
AcDbLine
10
-343.52280000000013
20
4.4399000000000068
30
0
11
-343.73235000000011
21
4.4589500000000006
31
0
0
LINE
5
136
100
AcDbEntity
8
0
100
AcDbLine
10
-343.73235000000011
20
4.4589500000000006
30
0
11
-344.07906000000014
21
3.853159999999995
31
0
0
SPLINE
5
137
100
AcDbEntity
8
0
100
AcDbSpline
70
4
71
3
72
8
73
4
74
0
42
0.000000001
43
0.0000000001
44
0.0000000001
40
-1
40
-1
40
-1
40
-1
40
0
40
0
40
0
40
0
41
1
41
1
41
1
41
1
10
-344.07906000000014
20
3.8531600000000017
30
0
10
-344.49054000000001
20
3.133070000000004
30
0
10
-344.60484000000008
20
2.9882900000000041
30
0
10
-344.86773000000005
20
2.8511300000000035
30
0
0
SPLINE
5
138
100
AcDbEntity
8
0
100
AcDbSpline
70
4
71
3
72
8
73
4
74
0
42
0.000000001
43
0.0000000001
44
0.0000000001
40
-1
40
-1
40
-1
40
-1
40
0
40
0
40
0
40
0
41
1
41
1
41
1
41
1
10
-344.86773000000005
20
2.8511300000000035
30
0
10
-345.03156000000001
20
2.763500000000005
30
0
10
-345.11538000000002
20
2.7444500000000045
30
0
10
-345.35160000000008
20
2.7444500000000045
30
0
0
SPLINE
5
139
100
AcDbEntity
8
0
100
AcDbSpline
70
4
71
3
72
8
73
4
74
0
42
0.000000001
43
0.0000000001
44
0.0000000001
40
-1
40
-1
40
-1
40
-1
40
0
40
0
40
0
40
0
41
1
41
1
41
1
41
1
10
-345.35160000000008
20
2.7444500000000045
30
0
10
-345.59544000000005
20
2.7444500000000045
30
0
10
-345.66402000000011
20
2.7596900000000053
30
0
10
-345.81641999999999
20
2.8473200000000038
30
0
0
SPLINE
5
140
100
AcDbEntity
8
0
100
AcDbSpline
70
4
71
3
72
8
73
4
74
0
42
0.000000001
43
0.0000000001
44
0.0000000001
40
-1
40
-1
40
-1
40
-1
40
0
40
0
40
0
40
0
41
1
41
1
41
1
41
1
10
-345.81641999999999
20
2.8473200000000038
30
0
10
-346.04121000000009
20
2.9806700000000026
30
0
10
-346.20884999999998
20
3.1864100000000013
30
0
10
-346.28886000000011
20
3.4226300000000038
30
0
0
SPLINE
5
141
100
AcDbEntity
8
0
100
AcDbSpline
70
4
71
3
72
8
73
4
74
0
42
0.000000001
43
0.0000000001
44
0.0000000001
40
-1
40
-1
40
-1
40
-1
40
0
40
0
40
0
40
0
41
1
41
1
41
1
41
1
10
-346.28886000000011
20
3.4226300000000038
30
0
10
-346.34982000000008
20
3.6055100000000024
30
0
10
-346.34982000000008
20
3.6436100000000033
30
0
10
-346.29267000000004
20
4.4399000000000068
30
0
0
LINE
5
142
100
AcDbEntity
8
0
100
AcDbLine
10
-346.29267000000004
20
4.4399000000000068
30
0
11
-346.28505000000007
21
4.5732500000000078
31
0
0
LINE
5
143
100
AcDbEntity
8
0
100
AcDbLine
10
-346.28505000000007
20
4.5732500000000078
30
0
11
-346.57842000000005
21
4.5999199999999965
31
0
0
SPLINE
5
144
100
AcDbEntity
8
0
100
AcDbSpline
70
4
71
3
72
8
73
4
74
0
42
0.000000001
43
0.0000000001
44
0.0000000001
40
-1
40
-1
40
-1
40
-1
40
0
40
0
40
0
40
0
41
1
41
1
41
1
41
1
10
-346.57842000000005
20
4.5999200000000036
30
0
10
-347.13468000000006
20
4.6494500000000052
30
0
10
-347.49663000000004
20
4.9047200000000037
30
0
10
-347.62236000000001
20
5.3352500000000074
30
0
0
SPLINE
5
145
100
AcDbEntity
8
0
100
AcDbSpline
70
4
71
3
72
8
73
4
74
0
42
0.000000001
43
0.0000000001
44
0.0000000001
40
-1
40
-1
40
-1
40
-1
40
0
40
0
40
0
40
0
41
1
41
1
41
1
41
1
10
-347.62236000000001
20
5.3352500000000074
30
0
10
-347.73666000000003
20
5.7314900000000062
30
0
10
-347.63379000000009
20
6.0286700000000053
30
0
10
-347.23374000000007
20
6.4515800000000052
30
0
0
SPLINE
5
146
100
AcDbEntity
8
0
100
AcDbSpline
70
4
71
3
72
8
73
4
74
0
42
0.000000001
43
0.0000000001
44
0.0000000001
40
-1
40
-1
40
-1
40
-1
40
0
40
0
40
0
40
0
41
1
41
1
41
1
41
1
10
-347.23374000000007
20
6.4515800000000052
30
0
10
-346.84512000000012
20
6.8592500000000083
30
0
10
-346.04502000000014
20
7.3012100000000091
30
0
10
-345.37065000000007
20
7.4764700000000062
30
0
0
LINE
5
147
100
AcDbEntity
8
0
100
AcDbLine
10
-345.37065000000007
20
7.4764700000000053
30
0
11
-345.10395000000005
21
7.5488600000000083
31
0
0
LINE
5
148
100
AcDbEntity
8
0
100
AcDbLine
10
-345.10395000000005
20
7.5488600000000083
30
0
11
-344.79534000000007
21
8.3070500000000003
31
0
0
SPLINE
5
149
100
AcDbEntity
8
0
100
AcDbSpline
70
4
71
3
72
8
73
4
74
0
42
0.000000001
43
0.0000000001
44
0.0000000001
40
-1
40
-1
40
-1
40
-1
40
0
40
0
40
0
40
0
41
1
41
1
41
1
41
1
10
-344.79534000000007
20
8.3070500000000091
30
0
10
-344.51721000000009
20
9.0080900000000081
30
0
10
-344.30385000000001
20
9.5567300000000071
30
0
10
-344.06763000000007
20
10.189190000000007
30
0
0
SPLINE
5
150
100
AcDbEntity
8
0
100
AcDbSpline
70
4
71
3
72
8
73
4
74
0
42
0.000000001
43
0.0000000001
44
0.0000000001
40
-1
40
-1
40
-1
40
-1
40
0
40
0
40
0
40
0
41
1
41
1
41
1
41
1
10
-344.06763000000007
20
10.189190000000007
30
0
10
-344.01810000000012
20
10.322540000000009
30
0
10
-343.98381000000006
20
10.448270000000011
30
0
10
-343.98762000000005
20
10.467320000000013
30
0
0
SPLINE
5
151
100
AcDbEntity
8
0
100
AcDbSpline
70
4
71
3
72
8
73
4
74
0
42
0.000000001
43
0.0000000001
44
0.0000000001
40
-1
40
-1
40
-1
40
-1
40
0
40
0
40
0
40
0
41
1
41
1
41
1
41
1
10
-343.98762000000005
20
10.467320000000013
30
0
10
-343.99524000000008
20
10.486370000000012
30
0
10
-344.13240000000002
20
10.30730000000001
30
0
10
-344.29623000000004
20
10.071080000000006
30
0
0
SPLINE
5
152
100
AcDbEntity
8
0
100
AcDbSpline
70
4
71
3
72
8
73
4
74
0
42
0.000000001
43
0.0000000001
44
0.0000000001
40
-1
40
-1
40
-1
40
-1
40
0
40
0
40
0
40
0
41
1
41
1
41
1
41
1
10
-344.29623000000004
20
10.071080000000006
30
0
10
-344.81439000000012
20
9.3014600000000094
30
0
10
-345.66402000000011
20
8.5508900000000096
30
0
10
-346.26600000000008
20
8.3222900000000077
30
0
0
SPLINE
5
153
100
AcDbEntity
8
0
100
AcDbSpline
70
4
71
3
72
8
73
4
74
0
42
0.000000001
43
0.0000000001
44
0.0000000001
40
-1
40
-1
40
-1
40
-1
40
0
40
0
40
0
40
0
41
1
41
1
41
1
41
1
10
-346.26600000000008
20
8.3222900000000077
30
0
10
-346.6812900000001
20
8.1622700000000048
30
0
10
-347.27946000000003
20
8.2003700000000066
30
0
10
-347.68332000000009
20
8.4061100000000089
30
0
0
SPLINE
5
154
100
AcDbEntity
8
0
100
AcDbSpline
70
4
71
3
72
8
73
4
74
0
42
0.000000001
43
0.0000000001
44
0.0000000001
40
-1
40
-1
40
-1
40
-1
40
0
40
0
40
0
40
0
41
1
41
1
41
1
41
1
10
-347.68332000000009
20
8.4061100000000089
30
0
10
-348.14052000000004
20
8.6385200000000051
30
0
10
-348.43770000000006
20
9.1643000000000097
30
0
10
-348.43770000000006
20
9.73580000000001
30
0
0
SPLINE
5
155
100
AcDbEntity
8
0
100
AcDbSpline
70
4
71
3
72
8
73
4
74
0
42
0.000000001
43
0.0000000001
44
0.0000000001
40
-1
40
-1
40
-1
40
-1
40
0
40
0
40
0
40
0
41
1
41
1
41
1
41
1
10
-348.43770000000006
20
9.73580000000001
30
0
10
-348.43770000000006
20
10.151090000000007
30
0
10
-348.38817000000006
20
10.341590000000007
30
0
10
-348.17481000000009
20
10.775930000000006
30
0
0
SPLINE
5
156
100
AcDbEntity
8
0
100
AcDbSpline
70
4
71
3
72
8
73
4
74
0
42
0.000000001
43
0.0000000001
44
0.0000000001
40
-1
40
-1
40
-1
40
-1
40
0
40
0
40
0
40
0
41
1
41
1
41
1
41
1
10
-348.17481000000009
20
10.775930000000006
30
0
10
-348.05289000000005
20
11.019770000000012
30
0
10
-348.01098000000013
20
11.141690000000008
30
0
10
-348.04908000000012
20
11.126450000000009
30
0
0
SPLINE
5
157
100
AcDbEntity
8
0
100
AcDbSpline
70
4
71
3
72
8
73
4
74
0
42
0.000000001
43
0.0000000001
44
0.0000000001
40
-1
40
-1
40
-1
40
-1
40
0
40
0
40
0
40
0
41
1
41
1
41
1
41
1
10
-348.04908000000012
20
11.126450000000009
30
0
10
-348.35769000000005
20
11.008340000000008
30
0
10
-348.65106000000014
20
11.023580000000006
30
0
10
-348.93300000000011
20
11.164550000000011
30
0
0
SPLINE
5
158
100
AcDbEntity
8
0
100
AcDbSpline
70
4
71
3
72
8
73
4
74
0
42
0.000000001
43
0.0000000001
44
0.0000000001
40
-1
40
-1
40
-1
40
-1
40
0
40
0
40
0
40
0
41
1
41
1
41
1
41
1
10
-348.93300000000011
20
11.164550000000011
30
0
10
-349.23018000000008
20
11.316950000000009
30
0
10
-349.40925000000004
20
11.587460000000007
30
0
10
-349.45116000000007
20
11.957030000000008
30
0
0
SPLINE
5
159
100
AcDbEntity
8
0
100
AcDbSpline
70
4
71
3
72
8
73
4
74
0
42
0.000000001
43
0.0000000001
44
0.0000000001
40
-1
40
-1
40
-1
40
-1
40
0
40
0
40
0
40
0
41
1
41
1
41
1
41
1
10
-349.45116000000007
20
11.957030000000008
30
0
10
-349.48545000000013
20
12.246590000000008
30
0
10
-349.39401000000004
20
12.51710000000001
30
0
10
-349.13112000000007
20
12.920960000000008
30
0
0
SPLINE
5
160
100
AcDbEntity
8
0
100
AcDbSpline
70
4
71
3
72
8
73
4
74
0
42
0.000000001
43
0.0000000001
44
0.0000000001
40
-1
40
-1
40
-1
40
-1
40
0
40
0
40
0
40
0
41
1
41
1
41
1
41
1
10
-349.13112000000007
20
12.920960000000008
30
0
10
-348.43770000000006
20
13.976330000000008
30
0
10
-347.40519000000006
20
15.016460000000009
30
0
10
-346.42983000000009
20
15.652730000000009
30
0
0
SPLINE
5
161
100
AcDbEntity
8
0
100
AcDbSpline
70
4
71
3
72
8
73
4
74
0
42
0.000000001
43
0.0000000001
44
0.0000000001
40
-1
40
-1
40
-1
40
-1
40
0
40
0
40
0
40
0
41
1
41
1
41
1
41
1
10
-346.42983000000009
20
15.652730000000009
30
0
10
-345.5992500000001
20
16.189940000000011
30
0
10
-344.51721000000009
20
16.186130000000013
30
0
10
-343.93047000000013
20
15.64511000000001
30
0
0
SPLINE
5
162
100
AcDbEntity
8
0
100
AcDbSpline
70
4
71
3
72
8
73
4
74
0
42
0.000000001
43
0.0000000001
44
0.0000000001
40
-1
40
-1
40
-1
40
-1
40
0
40
0
40
0
40
0
41
1
41
1
41
1
41
1
10
-343.93047000000013
20
15.64511000000001
30
0
10
-343.83903000000004
20
15.557480000000009
30
0
10
-343.74759000000012
20
15.48890000000001
30
0
10
-343.72854000000007
20
15.48890000000001
30
0
0
SPLINE
5
163
100
AcDbEntity
8
0
100
AcDbSpline
70
4
71
3
72
8
73
4
74
0
42
0.000000001
43
0.0000000001
44
0.0000000001
40
-1
40
-1
40
-1
40
-1
40
0
40
0
40
0
40
0
41
1
41
1
41
1
41
1
10
-343.72854000000007
20
15.48890000000001
30
0
10
-343.70949000000007
20
15.48890000000001
30
0
10
-343.52280000000007
20
15.64511000000001
30
0
10
-343.31325000000004
20
15.839420000000013
30
0
0
SPLINE
5
164
100
AcDbEntity
8
0
100
AcDbSpline
70
4
71
3
72
8
73
4
74
0
42
0.000000001
43
0.0000000001
44
0.0000000001
40
-1
40
-1
40
-1
40
-1
40
0
40
0
40
0
40
0
41
1
41
1
41
1
41
1
10
-343.31325000000004
20
15.839420000000013
30
0
10
-342.46362000000005
20
16.612850000000012
30
0
10
-342.05595000000005
20
16.814780000000013
30
0
10
-341.41206000000011
20
16.77668000000001
30
0
0
SPLINE
5
165
100
AcDbEntity
8
0
100
AcDbSpline
70
4
71
3
72
8
73
4
74
0
42
0.000000001
43
0.0000000001
44
0.0000000001
40
-1
40
-1
40
-1
40
-1
40
0
40
0
40
0
40
0
41
1
41
1
41
1
41
1
10
-341.41206000000011
20
16.77668000000001
30
0
10
-341.01963000000012
20
16.75001000000001
30
0
10
-340.74150000000003
20
16.624280000000013
30
0
10
-340.47861000000012
20
16.34996000000001
30
0
0
SPLINE
5
166
100
AcDbEntity
8
0
100
AcDbSpline
70
4
71
3
72
8
73
4
74
0
42
0.000000001
43
0.0000000001
44
0.0000000001
40
-1
40
-1
40
-1
40
-1
40
0
40
0
40
0
40
0
41
1
41
1
41
1
41
1
10
-340.47861000000012
20
16.34996000000001
30
0
10
-340.2804900000001
20
16.136600000000012
30
0
10
-340.14333000000011
20
15.82799000000001
30
0
10
-340.10523000000006
20
15.515570000000011
30
0
0
SPLINE
5
167
100
AcDbEntity
8
0
100
AcDbSpline
70
4
71
3
72
8
73
4
74
0
42
0.000000001
43
0.0000000001
44
0.0000000001
40
-1
40
-1
40
-1
40
-1
40
0
40
0
40
0
40
0
41
1
41
1
41
1
41
1
10
-340.10523000000006
20
15.515570000000011
30
0
10
-340.08618000000007
20
15.366980000000009
30
0
10
-340.07094000000006
20
15.336500000000012
30
0
10
-340.02141000000006
20
15.355550000000013
30
0
0
SPLINE
5
168
100
AcDbEntity
8
0
100
AcDbSpline
70
4
71
3
72
8
73
4
74
0
42
0.000000001
43
0.0000000001
44
0.0000000001
40
-1
40
-1
40
-1
40
-1
40
0
40
0
40
0
40
0
41
1
41
1
41
1
41
1
10
-340.02141000000006
20
15.355550000000013
30
0
10
-339.80424000000005
20
15.439370000000014
30
0
10
-339.43467000000004
20
15.49271000000001
30
0
10
-339.17178000000007
20
15.481280000000011
30
0
0
SPLINE
5
169
100
AcDbEntity
8
0
100
AcDbSpline
70
4
71
3
72
8
73
4
74
0
42
0.000000001
43
0.0000000001
44
0.0000000001
40
-1
40
-1
40
-1
40
-1
40
0
40
0
40
0
40
0
41
1
41
1
41
1
41
1
10
-339.17178000000007
20
15.481280000000011
30
0
10
-338.77173000000005
20
15.458420000000013
30
0
10
-338.45931000000007
20
15.302210000000009
30
0
10
-338.17356000000007
20
14.989790000000012
30
0
0
LINE
5
170
100
AcDbEntity
8
0
100
AcDbLine
10
-338.17356000000007
20
14.98979000000001
30
0
11
-337.96401000000003
21
14.757380000000015
31
0
0
LINE
5
171
100
AcDbEntity
8
0
100
AcDbLine
10
-337.96401000000003
20
14.757380000000015
30
0
11
-337.87257000000011
21
14.905970000000011
31
0
0
SPLINE
5
172
100
AcDbEntity
8
0
100
AcDbSpline
70
4
71
3
72
8
73
4
74
0
42
0.000000001
43
0.0000000001
44
0.0000000001
40
-1
40
-1
40
-1
40
-1
40
0
40
0
40
0
40
0
41
1
41
1
41
1
41
1
10
-337.87257000000011
20
14.905970000000014
30
0
10
-337.82304000000011
20
14.985980000000009
30
0
10
-337.65539999999999
20
15.252680000000009
30
0
10
-337.49919000000006
20
15.504140000000014
30
0
0
SPLINE
5
173
100
AcDbEntity
8
0
100
AcDbSpline
70
4
71
3
72
8
73
4
74
0
42
0.000000001
43
0.0000000001
44
0.0000000001
40
-1
40
-1
40
-1
40
-1
40
0
40
0
40
0
40
0
41
1
41
1
41
1
41
1
10
-337.49919000000006
20
15.504140000000014
30
0
10
-337.01532000000009
20
16.27376000000001
30
0
10
-336.29142000000002
20
16.963370000000015
30
0
10
-335.80374000000006
20
17.11196000000001
30
0
0
SPLINE
5
174
100
AcDbEntity
8
0
100
AcDbSpline
70
4
71
3
72
8
73
4
74
0
42
0.000000001
43
0.0000000001
44
0.0000000001
40
-1
40
-1
40
-1
40
-1
40
0
40
0
40
0
40
0
41
1
41
1
41
1
41
1
10
-335.80374000000006
20
17.11196000000001
30
0
10
-335.57514000000003
20
17.180540000000015
30
0
10
-335.46846000000005
20
17.180540000000015
30
0
10
-335.21319000000005
20
17.104340000000011
30
0
0
SPLINE
5
175
100
AcDbEntity
8
0
100
AcDbSpline
70
4
71
3
72
8
73
4
74
0
42
0.000000001
43
0.0000000001
44
0.0000000001
40
-1
40
-1
40
-1
40
-1
40
0
40
0
40
0
40
0
41
1
41
1
41
1
41
1
10
-335.21319000000005
20
17.104340000000011
30
0
10
-335.05317000000002
20
17.058620000000015
30
0
10
-334.96173000000005
20
16.997660000000007
30
0
10
-334.79409000000004
20
16.82621000000001
30
0
0
SPLINE
5
176
100
AcDbEntity
8
0
100
AcDbSpline
70
4
71
3
72
8
73
4
74
0
42
0.000000001
43
0.0000000001
44
0.0000000001
40
-1
40
-1
40
-1
40
-1
40
0
40
0
40
0
40
0
41
1
41
1
41
1
41
1
10
-334.79409000000004
20
16.82621000000001
30
0
10
-334.52358000000004
20
16.551890000000014
30
0
10
-334.41309000000001
20
16.281380000000013
30
0
10
-334.38642000000004
20
15.839420000000013
30
0
0
SPLINE
5
177
100
AcDbEntity
8
0
100
AcDbSpline
70
4
71
3
72
8
73
4
74
0
42
0.000000001
43
0.0000000001
44
0.0000000001
40
-1
40
-1
40
-1
40
-1
40
0
40
0
40
0
40
0
41
1
41
1
41
1
41
1
10
-334.38642000000004
20
15.839420000000013
30
0
10
-334.37118000000004
20
15.58796000000001
30
0
10
-334.35975000000008
20
15.527000000000012
30
0
10
-334.31403
20
15.54224000000001
30
0
0
SPLINE
5
178
100
AcDbEntity
8
0
100
AcDbSpline
70
4
71
3
72
8
73
4
74
0
42
0.000000001
43
0.0000000001
44
0.0000000001
40
-1
40
-1
40
-1
40
-1
40
0
40
0
40
0
40
0
41
1
41
1
41
1
41
1
10
-334.31403
20
15.54224000000001
30
0
10
-333.60537000000011
20
15.81656000000001
30
0
10
-332.83956000000001
20
15.73274000000001
30
0
10
-332.35950000000003
20
15.33269000000001
30
0
0
LINE
5
179
100
AcDbEntity
8
0
100
AcDbLine
10
-332.35950000000003
20
15.332690000000014
30
0
11
-332.12709000000007
21
15.142190000000006
31
0
0
LINE
5
180
100
AcDbEntity
8
0
100
AcDbLine
10
-332.12709000000007
20
15.142190000000006
30
0
11
-331.81467000000004
21
15.435560000000006
31
0
0
SPLINE
5
181
100
AcDbEntity
8
0
100
AcDbSpline
70
4
71
3
72
8
73
4
74
0
42
0.000000001
43
0.0000000001
44
0.0000000001
40
-1
40
-1
40
-1
40
-1
40
0
40
0
40
0
40
0
41
1
41
1
41
1
41
1
10
-331.81467000000004
20
15.435560000000009
30
0
10
-331.46796000000006
20
15.759410000000006
30
0
10
-331.00695000000002
20
16.079450000000012
30
0
10
-330.61833000000007
20
16.262330000000009
30
0
0
SPLINE
5
182
100
AcDbEntity
8
0
100
AcDbSpline
70
4
71
3
72
8
73
4
74
0
42
0.000000001
43
0.0000000001
44
0.0000000001
40
-1
40
-1
40
-1
40
-1
40
0
40
0
40
0
40
0
41
1
41
1
41
1
41
1
10
-330.61833000000007
20
16.262330000000009
30
0
10
-330.37830000000008
20
16.372820000000011
30
0
10
-330.32877000000008
20
16.384250000000012
30
0
10
-329.95920000000007
20
16.384250000000012
30
0
0
SPLINE
5
183
100
AcDbEntity
8
0
100
AcDbSpline
70
4
71
3
72
8
73
4
74
0
42
0.000000001
43
0.0000000001
44
0.0000000001
40
-1
40
-1
40
-1
40
-1
40
0
40
0
40
0
40
0
41
1
41
1
41
1
41
1
10
-329.95920000000007
20
16.384250000000012
30
0
10
-329.59725000000003
20
16.384250000000012
30
0
10
-329.53629000000006
20
16.372820000000011
30
0
10
-329.32293000000004
20
16.27376000000001
30
0
0
SPLINE
5
184
100
AcDbEntity
8
0
100
AcDbSpline
70
4
71
3
72
8
73
4
74
0
42
0.000000001
43
0.0000000001
44
0.0000000001
40
-1
40
-1
40
-1
40
-1
40
0
40
0
40
0
40
0
41
1
41
1
41
1
41
1
10
-329.32293000000004
20
16.27376000000001
30
0
10
-329.06385000000006
20
16.155650000000009
30
0
10
-328.78572000000008
20
15.888950000000012
30
0
10
-328.67523000000006
20
15.664160000000006
30
0
0
SPLINE
5
185
100
AcDbEntity
8
0
100
AcDbSpline
70
4
71
3
72
8
73
4
74
0
42
0.000000001
43
0.0000000001
44
0.0000000001
40
-1
40
-1
40
-1
40
-1
40
0
40
0
40
0
40
0
41
1
41
1
41
1
41
1
10
-328.67523000000006
20
15.664160000000006
30
0
10
-328.64094000000011
20
15.58796000000001
30
0
10
-328.59141000000011
20
15.527000000000012
30
0
10
-328.56474000000003
20
15.527000000000012
30
0
0
SPLINE
5
186
100
AcDbEntity
8
0
100
AcDbSpline
70
4
71
3
72
8
73
4
74
0
42
0.000000001
43
0.0000000001
44
0.0000000001
40
-1
40
-1
40
-1
40
-1
40
0
40
0
40
0
40
0
41
1
41
1
41
1
41
1
10
-328.56474000000003
20
15.527000000000012
30
0
10
-328.54188000000011
20
15.527000000000012
30
0
10
-328.36662000000001
20
15.572720000000015
30
0
10
-328.18374000000006
20
15.62606000000001
30
0
0
SPLINE
5
187
100
AcDbEntity
8
0
100
AcDbSpline
70
4
71
3
72
8
73
4
74
0
42
0.000000001
43
0.0000000001
44
0.0000000001
40
-1
40
-1
40
-1
40
-1
40
0
40
0
40
0
40
0
41
1
41
1
41
1
41
1
10
-328.18374000000006
20
15.62606000000001
30
0
10
-327.56652000000003
20
15.805130000000013
30
0
10
-326.93786999999998
20
15.942290000000012
30
0
10
-326.18730000000005
20
16.060400000000008
30
0
0
SPLINE
5
188
100
AcDbEntity
8
0
100
AcDbSpline
70
4
71
3
72
8
73
4
74
0
42
0.000000001
43
0.0000000001
44
0.0000000001
40
-1
40
-1
40
-1
40
-1
40
0
40
0
40
0
40
0
41
1
41
1
41
1
41
1
10
-326.18730000000005
20
16.060400000000008
30
0
10
-325.77963000000005
20
16.125170000000011
30
0
10
-325.34148000000005
20
16.193750000000012
30
0
10
-325.21575000000007
20
16.212800000000016
30
0
0
SPLINE
5
189
100
AcDbEntity
8
0
100
AcDbSpline
70
4
71
3
72
8
73
4
74
0
42
0.000000001
43
0.0000000001
44
0.0000000001
40
-1
40
-1
40
-1
40
-1
40
0
40
0
40
0
40
0
41
1
41
1
41
1
41
1
10
-325.21575000000007
20
16.212800000000016
30
0
10
-324.14895000000001
20
16.384250000000012
30
0
10
-321.95058000000006
20
16.36901000000001
30
0
10
-320.33895000000001
20
16.17851000000001
30
0
0
SPLINE
5
190
100
AcDbEntity
8
0
100
AcDbSpline
70
4
71
3
72
8
73
4
74
0
42
0.000000001
43
0.0000000001
44
0.0000000001
40
-1
40
-1
40
-1
40
-1
40
0
40
0
40
0
40
0
41
1
41
1
41
1
41
1
10
-320.33895000000001
20
16.17851000000001
30
0
10
-319.80174
20
16.113740000000011
30
0
10
-319.42455000000001
20
16.022300000000016
30
0
10
-318.62826000000001
20
15.77465000000001
30
0
0
SPLINE
5
191
100
AcDbEntity
8
0
100
AcDbSpline
70
4
71
3
72
8
73
4
74
0
42
0.000000001
43
0.0000000001
44
0.0000000001
40
-1
40
-1
40
-1
40
-1
40
0
40
0
40
0
40
0
41
1
41
1
41
1
41
1
10
-318.62826000000001
20
15.77465000000001
30
0
10
-318.38061000000005
20
15.698450000000012
30
0
10
-318.01866000000001
20
15.603200000000012
30
0
10
-317.82816000000003
20
15.565100000000012
30
0
0
SPLINE
5
192
100
AcDbEntity
8
0
100
AcDbSpline
70
4
71
3
72
8
73
4
74
0
42
0.000000001
43
0.0000000001
44
0.0000000001
40
-1
40
-1
40
-1
40
-1
40
0
40
0
40
0
40
0
41
1
41
1
41
1
41
1
10
-317.82816000000003
20
15.565100000000012
30
0
10
-317.51573999999999
20
15.500330000000009
30
0
10
-317.45096999999998
20
15.500330000000009
30
0
10
-317.17665
20
15.546050000000013
30
0
0
SPLINE
5
193
100
AcDbEntity
8
0
100
AcDbSpline
70
4
71
3
72
8
73
4
74
0
42
0.000000001
43
0.0000000001
44
0.0000000001
40
-1
40
-1
40
-1
40
-1
40
0
40
0
40
0
40
0
41
1
41
1
41
1
41
1
10
-317.17665
20
15.546050000000013
30
0
10
-316.85661000000005
20
15.603200000000012
30
0
10
-316.70420999999999
20
15.64511000000001
30
0
10
-315.55740000000003
20
15.999440000000011
30
0
0
SPLINE
5
194
100
AcDbEntity
8
0
100
AcDbSpline
70
4
71
3
72
8
73
4
74
0
42
0.000000001
43
0.0000000001
44
0.0000000001
40
-1
40
-1
40
-1
40
-1
40
0
40
0
40
0
40
0
41
1
41
1
41
1
41
1
10
-315.55740000000003
20
15.999440000000011
30
0
10
-314.95542
20
16.186130000000013
30
0
10
-314.81826000000001
20
16.21661000000001
30
0
10
-314.62395000000004
20
16.205180000000009
30
0
0
SPLINE
5
195
100
AcDbEntity
8
0
100
AcDbSpline
70
4
71
3
72
8
73
4
74
0
42
0.000000001
43
0.0000000001
44
0.0000000001
40
-1
40
-1
40
-1
40
-1
40
0
40
0
40
0
40
0
41
1
41
1
41
1
41
1
10
-314.62395000000004
20
16.205180000000009
30
0
10
-314.07531
20
16.170890000000014
30
0
10
-313.71336000000002
20
15.786080000000009
30
0
10
-313.71336000000002
20
15.241250000000012
30
0
0
SPLINE
5
196
100
AcDbEntity
8
0
100
AcDbSpline
70
4
71
3
72
8
73
4
74
0
42
0.000000001
43
0.0000000001
44
0.0000000001
40
-1
40
-1
40
-1
40
-1
40
0
40
0
40
0
40
0
41
1
41
1
41
1
41
1
10
-313.71336000000002
20
15.241250000000012
30
0
10
-313.71336000000002
20
14.791670000000012
30
0
10
-313.86576000000002
20
14.582120000000014
30
0
10
-314.51346000000001
20
14.155400000000009
30
0
0
SPLINE
5
197
100
AcDbEntity
8
0
100
AcDbSpline
70
4
71
3
72
8
73
4
74
0
42
0.000000001
43
0.0000000001
44
0.0000000001
40
-1
40
-1
40
-1
40
-1
40
0
40
0
40
0
40
0
41
1
41
1
41
1
41
1
10
-314.51346000000001
20
14.155400000000009
30
0
10
-315.39357000000001
20
13.576280000000009
30
0
10
-317.07378
20
12.84095000000001
30
0
10
-317.91960000000006
20
12.66950000000001
30
0
0
SPLINE
5
198
100
AcDbEntity
8
0
100
AcDbSpline
70
4
71
3
72
8
73
4
74
0
42
0.000000001
43
0.0000000001
44
0.0000000001
40
-1
40
-1
40
-1
40
-1
40
0
40
0
40
0
40
0
41
1
41
1
41
1
41
1
10
-317.91960000000006
20
12.66950000000001
30
0
10
-318.12534000000005
20
12.627590000000009
30
0
10
-318.30060000000003
20
12.593300000000012
30
0
10
-318.30822000000001
20
12.593300000000012
30
0
0
SPLINE
5
199
100
AcDbEntity
8
0
100
AcDbSpline
70
4
71
3
72
8
73
4
74
0
42
0.000000001
43
0.0000000001
44
0.0000000001
40
-1
40
-1
40
-1
40
-1
40
0
40
0
40
0
40
0
41
1
41
1
41
1
41
1
10
-318.30822000000001
20
12.593300000000012
30
0
10
-318.31965000000002
20
12.593300000000012
30
0
10
-318.42252000000002
20
12.45995000000001
30
0
10
-318.54063000000002
20
12.296120000000013
30
0
0
SPLINE
5
200
100
AcDbEntity
8
0
100
AcDbSpline
70
4
71
3
72
8
73
4
74
0
42
0.000000001
43
0.0000000001
44
0.0000000001
40
-1
40
-1
40
-1
40
-1
40
0
40
0
40
0
40
0
41
1
41
1
41
1
41
1
10
-318.54063000000002
20
12.296120000000013
30
0
10
-318.99402000000003
20
11.667470000000012
30
0
10
-319.39787999999999
20
10.707350000000009
30
0
10
-319.97700000000003
20
8.8976000000000077
30
0
0
SPLINE
5
201
100
AcDbEntity
8
0
100
AcDbSpline
70
4
71
3
72
8
73
4
74
0
42
0.000000001
43
0.0000000001
44
0.0000000001
40
-1
40
-1
40
-1
40
-1
40
0
40
0
40
0
40
0
41
1
41
1
41
1
41
1
10
-319.97700000000003
20
8.8976000000000077
30
0
10
-320.67804000000012
20
6.6916100000000078
30
0
10
-320.88378000000006
20
6.1048700000000045
30
0
10
-321.25335000000007
20
5.2590500000000073
30
0
0
SPLINE
5
202
100
AcDbEntity
8
0
100
AcDbSpline
70
4
71
3
72
8
73
4
74
0
42
0.000000001
43
0.0000000001
44
0.0000000001
40
-1
40
-1
40
-1
40
-1
40
0
40
0
40
0
40
0
41
1
41
1
41
1
41
1
10
-321.25335000000007
20
5.2590500000000073
30
0
10
-321.76770000000005
20
4.0741400000000052
30
0
10
-322.38492000000008
20
3.0530600000000025
30
0
10
-322.94499000000002
20
2.4510800000000028
30
0
0
SPLINE
5
203
100
AcDbEntity
8
0
100
AcDbSpline
70
4
71
3
72
8
73
4
74
0
42
0.000000001
43
0.0000000001
44
0.0000000001
40
-1
40
-1
40
-1
40
-1
40
0
40
0
40
0
40
0
41
1
41
1
41
1
41
1
10
-322.94499000000002
20
2.4510800000000028
30
0
10
-323.11644000000001
20
2.2720100000000016
30
0
10
-323.25360000000001
20
2.115800000000005
30
0
10
-323.25360000000001
20
2.1043700000000016
30
0
0
SPLINE
5
204
100
AcDbEntity
8
0
100
AcDbSpline
70
4
71
3
72
8
73
4
74
0
42
0.000000001
43
0.0000000001
44
0.0000000001
40
-1
40
-1
40
-1
40
-1
40
0
40
0
40
0
40
0
41
1
41
1
41
1
41
1
10
-323.25360000000001
20
2.1043700000000016
30
0
10
-323.25360000000001
20
2.0053100000000019
30
0
10
-322.51827000000003
20
1.7271800000000035
30
0
10
-321.96582000000006
20
1.6166900000000048
30
0
0
SPLINE
5
205
100
AcDbEntity
8
0
100
AcDbSpline
70
4
71
3
72
8
73
4
74
0
42
0.000000001
43
0.0000000001
44
0.0000000001
40
-1
40
-1
40
-1
40
-1
40
0
40
0
40
0
40
0
41
1
41
1
41
1
41
1
10
-321.96582000000006
20
1.6166900000000048
30
0
10
-321.49338
20
1.5214400000000048
30
0
10
-320.91807000000006
20
1.5328700000000015
30
0
10
-320.6170800000001
20
1.6395500000000049
30
0
0
SPLINE
5
206
100
AcDbEntity
8
0
100
AcDbSpline
70
4
71
3
72
8
73
4
74
0
42
0.000000001
43
0.0000000001
44
0.0000000001
40
-1
40
-1
40
-1
40
-1
40
0
40
0
40
0
40
0
41
1
41
1
41
1
41
1
10
-320.6170800000001
20
1.6395500000000049
30
0
10
-320.23227000000009
20
1.7767100000000011
30
0
10
-319.96557000000001
20
2.1348500000000055
30
0
10
-319.71411000000001
20
2.8511300000000035
30
0
0
SPLINE
5
207
100
AcDbEntity
8
0
100
AcDbSpline
70
4
71
3
72
8
73
4
74
0
42
0.000000001
43
0.0000000001
44
0.0000000001
40
-1
40
-1
40
-1
40
-1
40
0
40
0
40
0
40
0
41
1
41
1
41
1
41
1
10
-319.71411000000001
20
2.8511300000000035
30
0
10
-319.61124000000001
20
3.1445000000000052
30
0
10
-319.38645000000002
20
3.9560300000000033
30
0
10
-318.9864
20
5.4876500000000057
30
0
0
SPLINE
5
208
100
AcDbEntity
8
0
100
AcDbSpline
70
4
71
3
72
8
73
4
74
0
42
0.000000001
43
0.0000000001
44
0.0000000001
40
-1
40
-1
40
-1
40
-1
40
0
40
0
40
0
40
0
41
1
41
1
41
1
41
1
10
-318.9864
20
5.4876500000000057
30
0
10
-318.75018
20
6.3868100000000094
30
0
10
-318.44157000000001
20
7.4383700000000053
30
0
10
-318.26250000000005
20
7.9451000000000072
30
0
0
SPLINE
5
209
100
AcDbEntity
8
0
100
AcDbSpline
70
4
71
3
72
8
73
4
74
0
42
0.000000001
43
0.0000000001
44
0.0000000001
40
-1
40
-1
40
-1
40
-1
40
0
40
0
40
0
40
0
41
1
41
1
41
1
41
1
10
-318.26250000000005
20
7.9451000000000072
30
0
10
-318.16344000000004
20
8.2270400000000077
30
0
10
-318.06057000000004
20
8.5280300000000064
30
0
10
-318.03390000000002
20
8.6118500000000076
30
0
0
SPLINE
5
210
100
AcDbEntity
8
0
100
AcDbSpline
70
4
71
3
72
8
73
4
74
0
42
0.000000001
43
0.0000000001
44
0.0000000001
40
-1
40
-1
40
-1
40
-1
40
0
40
0
40
0
40
0
41
1
41
1
41
1
41
1
10
-318.03390000000002
20
8.6118500000000076
30
0
10
-317.89292999999998
20
9.0538100000000092
30
0
10
-317.53098
20
9.316700000000008
30
0
10
-317.06616000000002
20
9.316700000000008
30
0
0
SPLINE
5
211
100
AcDbEntity
8
0
100
AcDbSpline
70
4
71
3
72
8
73
4
74
0
42
0.000000001
43
0.0000000001
44
0.0000000001
40
-1
40
-1
40
-1
40
-1
40
0
40
0
40
0
40
0
41
1
41
1
41
1
41
1
10
-317.06616000000002
20
9.316700000000008
30
0
10
-316.55181000000005
20
9.3128900000000066
30
0
10
-316.12889999999999
20
8.886170000000007
30
0
10
-316.12889999999999
20
8.3642000000000074
30
0
0
SPLINE
5
212
100
AcDbEntity
8
0
100
AcDbSpline
70
4
71
3
72
8
73
4
74
0
42
0.000000001
43
0.0000000001
44
0.0000000001
40
-1
40
-1
40
-1
40
-1
40
0
40
0
40
0
40
0
41
1
41
1
41
1
41
1
10
-316.12889999999999
20
8.3642000000000074
30
0
10
-316.12889999999999
20
8.2499000000000073
30
0
10
-316.15557000000001
20
8.0327300000000061
30
0
10
-316.18605000000002
20
7.887950000000008
30
0
0
SPLINE
5
213
100
AcDbEntity
8
0
100
AcDbSpline
70
4
71
3
72
8
73
4
74
0
42
0.000000001
43
0.0000000001
44
0.0000000001
40
-1
40
-1
40
-1
40
-1
40
0
40
0
40
0
40
0
41
1
41
1
41
1
41
1
10
-316.18605000000002
20
7.887950000000008
30
0
10
-316.21653000000003
20
7.7393600000000085
30
0
10
-316.34607000000005
20
6.8668700000000049
30
0
10
-316.47180000000003
20
5.9448500000000077
30
0
0
SPLINE
5
214
100
AcDbEntity
8
0
100
AcDbSpline
70
4
71
3
72
8
73
4
74
0
42
0.000000001
43
0.0000000001
44
0.0000000001
40
-1
40
-1
40
-1
40
-1
40
0
40
0
40
0
40
0
41
1
41
1
41
1
41
1
10
-316.47180000000003
20
5.9448500000000077
30
0
10
-316.81088999999997
20
3.5140700000000042
30
0
10
-316.88328000000001
20
3.1178300000000032
30
0
10
-317.14236000000005
20
2.3786900000000051
30
0
0
SPLINE
5
215
100
AcDbEntity
8
0
100
AcDbSpline
70
4
71
3
72
8
73
4
74
0
42
0.000000001
43
0.0000000001
44
0.0000000001
40
-1
40
-1
40
-1
40
-1
40
0
40
0
40
0
40
0
41
1
41
1
41
1
41
1
10
-317.14236000000005
20
2.3786900000000051
30
0
10
-317.55002999999999
20
1.2090200000000024
30
0
10
-318.18249000000003
20
0.37844000000000388
30
0
10
-319.14642000000003
20
-0.25782999999999823
30
0
0
SPLINE
5
216
100
AcDbEntity
8
0
100
AcDbSpline
70
4
71
3
72
8
73
4
74
0
42
0.000000001
43
0.0000000001
44
0.0000000001
40
-1
40
-1
40
-1
40
-1
40
0
40
0
40
0
40
0
41
1
41
1
41
1
41
1
10
-319.14642000000003
20
-0.25782999999999823
30
0
10
-319.32168000000001
20
-0.37212999999999874
30
0
10
-319.53122999999999
20
-0.49785999999999708
30
0
10
-319.61505
20
-0.53976999999999764
30
0
0
SPLINE
5
217
100
AcDbEntity
8
0
100
AcDbSpline
70
4
71
3
72
8
73
4
74
0
42
0.000000001
43
0.0000000001
44
0.0000000001
40
-1
40
-1
40
-1
40
-1
40
0
40
0
40
0
40
0
41
1
41
1
41
1
41
1
10
-319.61505
20
-0.53976999999999764
30
0
10
-319.90461000000005
20
-0.6883599999999972
30
0
10
-320.49135000000007
20
-0.88647999999999882
30
0
10
-320.81520000000006
20
-0.94362999999999908
30
0
0
SPLINE
5
218
100
AcDbEntity
8
0
100
AcDbSpline
70
4
71
3
72
8
73
4
74
0
42
0.000000001
43
0.0000000001
44
0.0000000001
40
-1
40
-1
40
-1
40
-1
40
0
40
0
40
0
40
0
41
1
41
1
41
1
41
1
10
-320.81520000000006
20
-0.94362999999999908
30
0
10
-320.99427000000003
20
-0.97791999999999812
30
0
10
-321.17334000000005
20
-1.0122099999999972
30
0
10
-321.21525000000008
20
-1.0198299999999987
30
0
0
SPLINE
5
219
100
AcDbEntity
8
0
100
AcDbSpline
70
4
71
3
72
8
73
4
74
0
42
0.000000001
43
0.0000000001
44
0.0000000001
40
-1
40
-1
40
-1
40
-1
40
0
40
0
40
0
40
0
41
1
41
1
41
1
41
1
10
-82.208838125000028
20
105.806325625
30
0
10
-82.613888750000029
20
105.67880968750001
30
0
10
-82.831415937500026
20
105.67880968750001
30
0
10
-83.258969375000035
20
105.806325625
30
0
0
SPLINE
5
220
100
AcDbEntity
8
0
100
AcDbSpline
70
4
71
3
72
8
73
4
74
0
42
0.000000001
43
0.0000000001
44
0.0000000001
40
-1
40
-1
40
-1
40
-1
40
0
40
0
40
0
40
0
41
1
41
1
41
1
41
1
10
-83.258969375000035
20
105.806325625
30
0
10
-84.226590312500036
20
106.09886218749999
30
0
10
-84.766657812500029
20
107.096486875
30
0
10
-84.504125000000016
20
108.07910968749999
30
0
0
SPLINE
5
221
100
AcDbEntity
8
0
100
AcDbSpline
70
4
71
3
72
8
73
4
74
0
42
0.000000001
43
0.0000000001
44
0.0000000001
40
-1
40
-1
40
-1
40
-1
40
0
40
0
40
0
40
0
41
1
41
1
41
1
41
1
10
-84.504125000000016
20
108.07910968749999
30
0
10
-84.421614687500025
20
108.38664812499999
30
0
10
-84.286597812500034
20
108.55166875
30
0
10
-83.544005000000027
20
109.27175875
30
0
0
LINE
5
222
100
AcDbEntity
8
0
100
AcDbLine
10
-83.544004999999999
20
109.27175875
30
0
11
-82.681397187500011
21
110.11186375
31
0
0
LINE
5
223
100
AcDbEntity
8
0
100
AcDbLine
10
-82.681397187500011
20
110.11186375
30
0
11
-82.913926250000017
21
110.43440406249999
31
0
0
SPLINE
5
224
100
AcDbEntity
8
0
100
AcDbSpline
70
4
71
3
72
8
73
4
74
0
42
0.000000001
43
0.0000000001
44
0.0000000001
40
-1
40
-1
40
-1
40
-1
40
0
40
0
40
0
40
0
41
1
41
1
41
1
41
1
10
-82.913926250000017
20
110.43440406249999
30
0
10
-83.048943125000022
20
110.6144265625
30
0
10
-83.153956250000022
20
110.80195000000001
30
0
10
-83.153956250000022
20
110.8544565625
30
0
0
SPLINE
5
225
100
AcDbEntity
8
0
100
AcDbSpline
70
4
71
3
72
8
73
4
74
0
42
0.000000001
43
0.0000000001
44
0.0000000001
40
-1
40
-1
40
-1
40
-1
40
0
40
0
40
0
40
0
41
1
41
1
41
1
41
1
10
-83.153956250000022
20
110.8544565625
30
0
10
-83.153956250000022
20
110.9894734375
30
0
10
-83.393986250000026
20
111.19949968749999
30
0
10
-84.159081875000027
20
111.71706437499999
30
0
0
SPLINE
5
226
100
AcDbEntity
8
0
100
AcDbSpline
70
4
71
3
72
8
73
4
74
0
42
0.000000001
43
0.0000000001
44
0.0000000001
40
-1
40
-1
40
-1
40
-1
40
0
40
0
40
0
40
0
41
1
41
1
41
1
41
1
10
-84.159081875000027
20
111.71706437499999
30
0
10
-84.796661562500034
20
112.1596196875
30
0
10
-84.841667187500022
20
112.17462156249999
30
0
10
-85.254218750000035
20
112.1596196875
30
0
0
SPLINE
5
227
100
AcDbEntity
8
0
100
AcDbSpline
70
4
71
3
72
8
73
4
74
0
42
0.000000001
43
0.0000000001
44
0.0000000001
40
-1
40
-1
40
-1
40
-1
40
0
40
0
40
0
40
0
41
1
41
1
41
1
41
1
10
-85.254218750000035
20
112.1596196875
30
0
10
-85.801787187500025
20
112.137116875
30
0
10
-86.124327500000021
20
112.257131875
30
0
10
-87.009438125000017
20
112.7821975
30
0
0
SPLINE
5
228
100
AcDbEntity
8
0
100
AcDbSpline
70
4
71
3
72
8
73
4
74
0
42
0.000000001
43
0.0000000001
44
0.0000000001
40
-1
40
-1
40
-1
40
-1
40
0
40
0
40
0
40
0
41
1
41
1
41
1
41
1
10
-87.009438125000017
20
112.7821975
30
0
10
-88.104575000000011
20
113.44228
30
0
10
-88.367107812500038
20
113.91483906250001
30
0
10
-88.34460500000003
20
115.18999843750001
30
0
0
SPLINE
5
229
100
AcDbEntity
8
0
100
AcDbSpline
70
4
71
3
72
8
73
4
74
0
42
0.000000001
43
0.0000000001
44
0.0000000001
40
-1
40
-1
40
-1
40
-1
40
0
40
0
40
0
40
0
41
1
41
1
41
1
41
1
10
-88.34460500000003
20
115.18999843750001
30
0
10
-88.329603125000034
20
115.87258374999999
30
0
10
-88.34460500000003
20
115.9550940625
30
0
10
-88.517126562500025
20
116.21762687500001
30
0
0
SPLINE
5
230
100
AcDbEntity
8
0
100
AcDbSpline
70
4
71
3
72
8
73
4
74
0
42
0.000000001
43
0.0000000001
44
0.0000000001
40
-1
40
-1
40
-1
40
-1
40
0
40
0
40
0
40
0
41
1
41
1
41
1
41
1
10
-88.517126562500025
20
116.21762687500001
30
0
10
-88.862169687500028
20
116.7426925
30
0
10
-88.922177187500026
20
117.41777687500002
30
0
10
-88.674646250000023
20
118.01035093750001
30
0
0
SPLINE
5
231
100
AcDbEntity
8
0
100
AcDbSpline
70
4
71
3
72
8
73
4
74
0
42
0.000000001
43
0.0000000001
44
0.0000000001
40
-1
40
-1
40
-1
40
-1
40
0
40
0
40
0
40
0
41
1
41
1
41
1
41
1
10
-88.674646250000023
20
118.01035093750001
30
0
10
-88.629640625000036
20
118.11536406249999
30
0
10
-88.697149062500031
20
118.13786687499999
30
0
10
-89.09469875000002
20
118.16787062499999
30
0
0
SPLINE
5
232
100
AcDbEntity
8
0
100
AcDbSpline
70
4
71
3
72
8
73
4
74
0
42
0.000000001
43
0.0000000001
44
0.0000000001
40
-1
40
-1
40
-1
40
-1
40
0
40
0
40
0
40
0
41
1
41
1
41
1
41
1
10
-89.09469875000002
20
118.16787062499999
30
0
10
-89.904800000000037
20
118.23537906249999
30
0
10
-90.197336562500027
20
118.44540531250001
30
0
10
-91.112450937500014
20
119.638054375
30
0
0
SPLINE
5
233
100
AcDbEntity
8
0
100
AcDbSpline
70
4
71
3
72
8
73
4
74
0
42
0.000000001
43
0.0000000001
44
0.0000000001
40
-1
40
-1
40
-1
40
-1
40
0
40
0
40
0
40
0
41
1
41
1
41
1
41
1
10
-91.112450937500014
20
119.638054375
30
0
10
-92.245092500000027
20
121.11573906250001
30
0
10
-92.357606562500024
20
121.3557690625
30
0
10
-92.282597187500031
20
122.09836187499999
30
0
0
SPLINE
5
234
100
AcDbEntity
8
0
100
AcDbSpline
70
4
71
3
72
8
73
4
74
0
42
0.000000001
43
0.0000000001
44
0.0000000001
40
-1
40
-1
40
-1
40
-1
40
0
40
0
40
0
40
0
41
1
41
1
41
1
41
1
10
-92.282597187500031
20
122.09836187499999
30
0
10
-92.200086875000039
20
122.8859603125
30
0
10
-92.162582187500021
20
122.92346500000001
30
0
10
-89.45474375000002
20
125.12874062500001
30
0
0
SPLINE
5
235
100
AcDbEntity
8
0
100
AcDbSpline
70
4
71
3
72
8
73
4
74
0
42
0.000000001
43
0.0000000001
44
0.0000000001
40
-1
40
-1
40
-1
40
-1
40
0
40
0
40
0
40
0
41
1
41
1
41
1
41
1
10
-89.45474375000002
20
125.12874062500001
30
0
10
-88.734653750000021
20
125.71381375
30
0
10
-87.827040312500031
20
126.45640656250001
30
0
10
-87.451993437500022
20
126.7714459375
30
0
0
LINE
5
236
100
AcDbEntity
8
0
100
AcDbLine
10
-87.451993437500022
20
126.7714459375
30
0
11
-86.754406250000017
21
127.34151718749999
31
0
0
LINE
5
237
100
AcDbEntity
8
0
100
AcDbLine
10
-86.754406250000017
20
127.34151718749999
30
0
11
-86.754406250000017
21
127.724065
31
0
0
SPLINE
5
238
100
AcDbEntity
8
0
100
AcDbSpline
70
4
71
3
72
8
73
4
74
0
42
0.000000001
43
0.0000000001
44
0.0000000001
40
-1
40
-1
40
-1
40
-1
40
0
40
0
40
0
40
0
41
1
41
1
41
1
41
1
10
-86.754406250000017
20
127.724065
30
0
10
-86.754406250000017
20
128.24162968749999
30
0
10
-86.401862187500029
20
128.939216875
30
0
10
-85.839291875000029
20
129.51678906250001
30
0
0
SPLINE
5
239
100
AcDbEntity
8
0
100
AcDbSpline
70
4
71
3
72
8
73
4
74
0
42
0.000000001
43
0.0000000001
44
0.0000000001
40
-1
40
-1
40
-1
40
-1
40
0
40
0
40
0
40
0
41
1
41
1
41
1
41
1
10
-85.839291875000029
20
129.51678906250001
30
0
10
-85.336729062500027
20
130.02685281250001
30
0
10
-85.336729062500027
20
130.049355625
30
0
10
-85.734278750000016
20
130.70943812499999
30
0
0
SPLINE
5
240
100
AcDbEntity
8
0
100
AcDbSpline
70
4
71
3
72
8
73
4
74
0
42
0.000000001
43
0.0000000001
44
0.0000000001
40
-1
40
-1
40
-1
40
-1
40
0
40
0
40
0
40
0
41
1
41
1
41
1
41
1
10
-85.734278750000016
20
130.70943812499999
30
0
10
-85.869295625000021
20
130.94196718750001
30
0
10
-86.011813437500024
20
131.24950562500001
30
0
10
-86.041817187500016
20
131.399524375
30
0
0
SPLINE
5
241
100
AcDbEntity
8
0
100
AcDbSpline
70
4
71
3
72
8
73
4
74
0
42
0.000000001
43
0.0000000001
44
0.0000000001
40
-1
40
-1
40
-1
40
-1
40
0
40
0
40
0
40
0
41
1
41
1
41
1
41
1
10
-86.041817187500016
20
131.399524375
30
0
10
-86.064320000000038
20
131.54954312500001
30
0
10
-86.169333125000023
20
131.7970740625
30
0
10
-86.259344375000012
20
131.94709281250002
30
0
0
SPLINE
5
242
100
AcDbEntity
8
0
100
AcDbSpline
70
4
71
3
72
8
73
4
74
0
42
0.000000001
43
0.0000000001
44
0.0000000001
40
-1
40
-1
40
-1
40
-1
40
0
40
0
40
0
40
0
41
1
41
1
41
1
41
1
10
-86.259344375000012
20
131.94709281250002
30
0
10
-86.514376250000012
20
132.34464249999999
30
0
10
-86.611888437500028
20
132.719689375
30
0
10
-86.619389375000026
20
133.2522559375
30
0
0
SPLINE
5
243
100
AcDbEntity
8
0
100
AcDbSpline
70
4
71
3
72
8
73
4
74
0
42
0.000000001
43
0.0000000001
44
0.0000000001
40
-1
40
-1
40
-1
40
-1
40
0
40
0
40
0
40
0
41
1
41
1
41
1
41
1
10
-86.619389375000026
20
133.2522559375
30
0
10
-86.626890312500024
20
134.10736281250001
30
0
10
-86.221839687500022
20
134.669933125
30
0
10
-85.141704687500024
20
135.33751656250001
30
0
0
SPLINE
5
244
100
AcDbEntity
8
0
100
AcDbSpline
70
4
71
3
72
8
73
4
74
0
42
0.000000001
43
0.0000000001
44
0.0000000001
40
-1
40
-1
40
-1
40
-1
40
0
40
0
40
0
40
0
41
1
41
1
41
1
41
1
10
-85.141704687500024
20
135.33751656250001
30
0
10
-84.121577187500023
20
135.96009437500001
30
0
10
-84.091573437500017
20
135.96759531250001
30
0
10
-83.228965625000029
20
135.96759531250001
30
0
0
SPLINE
5
245
100
AcDbEntity
8
0
100
AcDbSpline
70
4
71
3
72
8
73
4
74
0
42
0.000000001
43
0.0000000001
44
0.0000000001
40
-1
40
-1
40
-1
40
-1
40
0
40
0
40
0
40
0
41
1
41
1
41
1
41
1
10
-83.228965625000029
20
135.96759531250001
30
0
10
-82.793911250000022
20
135.96759531250001
30
0
10
-82.298849375000017
20
135.94509250000002
30
0
10
-82.133828750000021
20
135.91508875
30
0
0
LINE
5
246
100
AcDbEntity
8
0
100
AcDbLine
10
-82.133828750000021
20
135.91508875
30
0
11
-81.818789375000023
21
135.85508124999998
31
0
0
LINE
5
247
100
AcDbEntity
8
0
100
AcDbLine
10
-81.818789375000023
20
135.85508124999998
30
0
11
-81.766282812500023
21
136.13261593749999
31
0
0
SPLINE
5
248
100
AcDbEntity
8
0
100
AcDbSpline
70
4
71
3
72
8
73
4
74
0
42
0.000000001
43
0.0000000001
44
0.0000000001
40
-1
40
-1
40
-1
40
-1
40
0
40
0
40
0
40
0
41
1
41
1
41
1
41
1
10
-81.766282812500023
20
136.13261593749999
30
0
10
-81.683772500000032
20
136.56767031250001
30
0
10
-81.458744375000038
20
136.95021812499999
30
0
10
-81.098699375000024
20
137.25025562500002
30
0
0
SPLINE
5
249
100
AcDbEntity
8
0
100
AcDbSpline
70
4
71
3
72
8
73
4
74
0
42
0.000000001
43
0.0000000001
44
0.0000000001
40
-1
40
-1
40
-1
40
-1
40
0
40
0
40
0
40
0
41
1
41
1
41
1
41
1
10
-81.098699375000024
20
137.25025562500002
30
0
10
-80.82116468750003
20
137.47528375000002
30
0
10
-80.761157187500018
20
137.58029687500002
30
0
10
-80.716151562500031
20
137.87283343750002
30
0
0
SPLINE
5
250
100
AcDbEntity
8
0
100
AcDbSpline
70
4
71
3
72
8
73
4
74
0
42
0.000000001
43
0.0000000001
44
0.0000000001
40
-1
40
-1
40
-1
40
-1
40
0
40
0
40
0
40
0
41
1
41
1
41
1
41
1
10
-80.716151562500031
20
137.87283343750002
30
0
10
-80.56613281250003
20
138.89296093750002
30
0
10
-79.846042812500016
20
139.54554250000001
30
0
10
-78.878421875000015
20
139.54554250000001
30
0
0
SPLINE
5
251
100
AcDbEntity
8
0
100
AcDbSpline
70
4
71
3
72
8
73
4
74
0
42
0.000000001
43
0.0000000001
44
0.0000000001
40
-1
40
-1
40
-1
40
-1
40
0
40
0
40
0
40
0
41
1
41
1
41
1
41
1
10
-78.878421875000015
20
139.54554250000001
30
0
10
-77.843292500000018
20
139.54554250000001
30
0
10
-77.093198750000028
20
138.78794781250002
30
0
10
-77.048193125000026
20
137.7228146875
30
0
0
SPLINE
5
252
100
AcDbEntity
8
0
100
AcDbSpline
70
4
71
3
72
8
73
4
74
0
42
0.000000001
43
0.0000000001
44
0.0000000001
40
-1
40
-1
40
-1
40
-1
40
0
40
0
40
0
40
0
41
1
41
1
41
1
41
1
10
-77.048193125000026
20
137.7228146875
30
0
10
-77.033191250000016
20
137.33276593750003
30
0
10
-77.003187500000024
20
137.25025562500002
30
0
10
-76.76315750000002
20
137.00272468750001
30
0
0
SPLINE
5
253
100
AcDbEntity
8
0
100
AcDbSpline
70
4
71
3
72
8
73
4
74
0
42
0.000000001
43
0.0000000001
44
0.0000000001
40
-1
40
-1
40
-1
40
-1
40
0
40
0
40
0
40
0
41
1
41
1
41
1
41
1
10
-76.76315750000002
20
137.00272468750001
30
0
10
-76.433116250000026
20
136.65768156249999
30
0
10
-76.275596562500013
20
136.34264218750002
30
0
10
-76.208088125000032
20
135.93759156250002
30
0
0
SPLINE
5
254
100
AcDbEntity
8
0
100
AcDbSpline
70
4
71
3
72
8
73
4
74
0
42
0.000000001
43
0.0000000001
44
0.0000000001
40
-1
40
-1
40
-1
40
-1
40
0
40
0
40
0
40
0
41
1
41
1
41
1
41
1
10
-76.208088125000032
20
135.93759156250002
30
0
10
-76.170583437500028
20
135.68255968750003
30
0
10
-76.133078750000024
20
135.63005312499999
30
0
10
-76.035566562500037
20
135.66755781250001
30
0
0
SPLINE
5
255
100
AcDbEntity
8
0
100
AcDbSpline
70
4
71
3
72
8
73
4
74
0
42
0.000000001
43
0.0000000001
44
0.0000000001
40
-1
40
-1
40
-1
40
-1
40
0
40
0
40
0
40
0
41
1
41
1
41
1
41
1
10
-76.035566562500037
20
135.66755781250001
30
0
10
-75.472996250000023
20
135.900086875
30
0
10
-74.242842500000023
20
135.98259718750001
30
0
10
-73.77778437500001
20
135.81757656250002
30
0
0
SPLINE
5
256
100
AcDbEntity
8
0
100
AcDbSpline
70
4
71
3
72
8
73
4
74
0
42
0.000000001
43
0.0000000001
44
0.0000000001
40
-1
40
-1
40
-1
40
-1
40
0
40
0
40
0
40
0
41
1
41
1
41
1
41
1
10
-73.77778437500001
20
135.81757656250002
30
0
10
-73.305225312500028
20
135.65255593749998
30
0
10
-71.820039687500028
20
134.63992937500001
30
0
10
-71.572508750000026
20
134.32489000000001
30
0
0
SPLINE
5
257
100
AcDbEntity
8
0
100
AcDbSpline
70
4
71
3
72
8
73
4
74
0
42
0.000000001
43
0.0000000001
44
0.0000000001
40
-1
40
-1
40
-1
40
-1
40
0
40
0
40
0
40
0
41
1
41
1
41
1
41
1
10
-71.572508750000026
20
134.32489000000001
30
0
10
-71.302475000000015
20
133.964845
30
0
10
-71.152456250000014
20
133.51478875000001
30
0
10
-71.152456250000014
20
133.0422296875
30
0
0
SPLINE
5
258
100
AcDbEntity
8
0
100
AcDbSpline
70
4
71
3
72
8
73
4
74
0
42
0.000000001
43
0.0000000001
44
0.0000000001
40
-1
40
-1
40
-1
40
-1
40
0
40
0
40
0
40
0
41
1
41
1
41
1
41
1
10
-71.152456250000014
20
133.0422296875
30
0
10
-71.152456250000014
20
132.58467250000001
30
0
10
-71.24996843750003
20
132.26963312500001
30
0
10
-71.535004062500022
20
131.804575
30
0
0
SPLINE
5
259
100
AcDbEntity
8
0
100
AcDbSpline
70
4
71
3
72
8
73
4
74
0
42
0.000000001
43
0.0000000001
44
0.0000000001
40
-1
40
-1
40
-1
40
-1
40
0
40
0
40
0
40
0
41
1
41
1
41
1
41
1
10
-71.535004062500022
20
131.804575
30
0
10
-71.647518125000019
20
131.61705156250002
30
0
10
-71.775034062500026
20
131.33201593749999
30
0
10
-71.820039687500028
20
131.16699531249998
30
0
0
SPLINE
5
260
100
AcDbEntity
8
0
100
AcDbSpline
70
4
71
3
72
8
73
4
74
0
42
0.000000001
43
0.0000000001
44
0.0000000001
40
-1
40
-1
40
-1
40
-1
40
0
40
0
40
0
40
0
41
1
41
1
41
1
41
1
10
-71.820039687500028
20
131.16699531249998
30
0
10
-71.865045312500015
20
131.0019746875
30
0
10
-72.037566875000024
20
130.64943062499998
30
0
10
-72.202587500000021
20
130.379396875
30
0
0
SPLINE
5
261
100
AcDbEntity
8
0
100
AcDbSpline
70
4
71
3
72
8
73
4
74
0
42
0.000000001
43
0.0000000001
44
0.0000000001
40
-1
40
-1
40
-1
40
-1
40
0
40
0
40
0
40
0
41
1
41
1
41
1
41
1
10
-72.202587500000021
20
130.379396875
30
0
10
-72.367608125000018
20
130.10936312500002
30
0
10
-72.502625000000023
20
129.8618321875
30
0
10
-72.502625000000023
20
129.81682656250001
30
0
0
SPLINE
5
262
100
AcDbEntity
8
0
100
AcDbSpline
70
4
71
3
72
8
73
4
74
0
42
0.000000001
43
0.0000000001
44
0.0000000001
40
-1
40
-1
40
-1
40
-1
40
0
40
0
40
0
40
0
41
1
41
1
41
1
41
1
10
-72.502625000000023
20
129.81682656250001
30
0
10
-72.502625000000023
20
129.77932187499999
30
0
10
-72.337604375000026
20
129.57679656250002
30
0
10
-72.127578125000028
20
129.36677031249999
30
0
0
SPLINE
5
263
100
AcDbEntity
8
0
100
AcDbSpline
70
4
71
3
72
8
73
4
74
0
42
0.000000001
43
0.0000000001
44
0.0000000001
40
-1
40
-1
40
-1
40
-1
40
0
40
0
40
0
40
0
41
1
41
1
41
1
41
1
10
-72.127578125000028
20
129.36677031249999
30
0
10
-71.587510625000021
20
128.819201875
30
0
10
-71.227465625000022
20
128.08411000000001
30
0
10
-71.227465625000022
20
127.53654156250001
30
0
0
SPLINE
5
264
100
AcDbEntity
8
0
100
AcDbSpline
70
4
71
3
72
8
73
4
74
0
42
0.000000001
43
0.0000000001
44
0.0000000001
40
-1
40
-1
40
-1
40
-1
40
0
40
0
40
0
40
0
41
1
41
1
41
1
41
1
10
-71.227465625000022
20
127.53654156250001
30
0
10
-71.227465625000022
20
127.0414796875
30
0
10
-71.257469375000028
20
127.078984375
30
0
10
-69.877296875000013
20
125.91633906249999
30
0
0
SPLINE
5
265
100
AcDbEntity
8
0
100
AcDbSpline
70
4
71
3
72
8
73
4
74
0
42
0.000000001
43
0.0000000001
44
0.0000000001
40
-1
40
-1
40
-1
40
-1
40
0
40
0
40
0
40
0
41
1
41
1
41
1
41
1
10
-69.877296875000013
20
125.91633906249999
30
0
10
-69.532253750000024
20
125.62380250000001
30
0
10
-69.029690937500021
20
125.188748125
30
0
10
-68.752156250000013
20
124.9412171875
30
0
0
SPLINE
5
266
100
AcDbEntity
8
0
100
AcDbSpline
70
4
71
3
72
8
73
4
74
0
42
0.000000001
43
0.0000000001
44
0.0000000001
40
-1
40
-1
40
-1
40
-1
40
0
40
0
40
0
40
0
41
1
41
1
41
1
41
1
10
-68.752156250000013
20
124.9412171875
30
0
10
-68.474621562500019
20
124.69368625
30
0
10
-67.927053125000029
20
124.2211271875
30
0
10
-67.544505312500021
20
123.89108593750001
30
0
0
SPLINE
5
267
100
AcDbEntity
8
0
100
AcDbSpline
70
4
71
3
72
8
73
4
74
0
42
0.000000001
43
0.0000000001
44
0.0000000001
40
-1
40
-1
40
-1
40
-1
40
0
40
0
40
0
40
0
41
1
41
1
41
1
41
1
10
-67.544505312500021
20
123.89108593750001
30
0
10
-66.546880625000014
20
123.02847812499999
30
0
10
-66.179334687500017
20
122.65343125000001
30
0
10
-66.021815000000018
20
122.31588906249999
30
0
0
SPLINE
5
268
100
AcDbEntity
8
0
100
AcDbSpline
70
4
71
3
72
8
73
4
74
0
42
0.000000001
43
0.0000000001
44
0.0000000001
40
-1
40
-1
40
-1
40
-1
40
0
40
0
40
0
40
0
41
1
41
1
41
1
41
1
10
-66.021815000000018
20
122.31588906249999
30
0
10
-65.834291562500027
20
121.93334125
30
0
10
-65.789285937500011
20
121.4232775
30
0
10
-65.894299062500025
20
121.02572781250001
30
0
0
SPLINE
5
269
100
AcDbEntity
8
0
100
AcDbSpline
70
4
71
3
72
8
73
4
74
0
42
0.000000001
43
0.0000000001
44
0.0000000001
40
-1
40
-1
40
-1
40
-1
40
0
40
0
40
0
40
0
41
1
41
1
41
1
41
1
10
-65.894299062500025
20
121.02572781250001
30
0
10
-65.999312187500024
20
120.6506809375
30
0
10
-66.659394687500026
20
119.75056843749999
30
0
10
-67.724527812500014
20
118.557919375
30
0
0
SPLINE
5
270
100
AcDbEntity
8
0
100
AcDbSpline
70
4
71
3
72
8
73
4
74
0
42
0.000000001
43
0.0000000001
44
0.0000000001
40
-1
40
-1
40
-1
40
-1
40
0
40
0
40
0
40
0
41
1
41
1
41
1
41
1
10
-67.724527812500014
20
118.557919375
30
0
10
-68.054569062500022
20
118.1903734375
30
0
10
-68.669645937500022
20
117.85283124999999
30
0
10
-69.007188125000013
20
117.85283124999999
30
0
0
SPLINE
5
271
100
AcDbEntity
8
0
100
AcDbSpline
70
4
71
3
72
8
73
4
74
0
42
0.000000001
43
0.0000000001
44
0.0000000001
40
-1
40
-1
40
-1
40
-1
40
0
40
0
40
0
40
0
41
1
41
1
41
1
41
1
10
-69.007188125000013
20
117.85283124999999
30
0
10
-69.157206875000014
20
117.85283124999999
30
0
10
-69.427240625000024
20
117.71781437499999
30
0
10
-69.80228750000002
20
117.4702834375
30
0
0
SPLINE
5
272
100
AcDbEntity
8
0
100
AcDbSpline
70
4
71
3
72
8
73
4
74
0
42
0.000000001
43
0.0000000001
44
0.0000000001
40
-1
40
-1
40
-1
40
-1
40
0
40
0
40
0
40
0
41
1
41
1
41
1
41
1
10
-69.80228750000002
20
117.4702834375
30
0
10
-70.724902812500019
20
116.84020468749999
30
0
10
-70.702400000000011
20
116.8702084375
30
0
10
-70.702400000000011
20
116.157619375
30
0
0
LINE
5
273
100
AcDbEntity
8
0
100
AcDbLine
10
-70.702400000000011
20
116.157619375
30
0
11
-70.70240000000004
21
115.5350415625
31
0
0
LINE
5
274
100
AcDbEntity
8
0
100
AcDbLine
10
-70.70240000000004
20
115.5350415625
30
0
11
-70.192336250000039
21
114.957469375
31
0
0
SPLINE
5
275
100
AcDbEntity
8
0
100
AcDbSpline
70
4
71
3
72
8
73
4
74
0
42
0.000000001
43
0.0000000001
44
0.0000000001
40
-1
40
-1
40
-1
40
-1
40
0
40
0
40
0
40
0
41
1
41
1
41
1
41
1
10
-70.192336250000011
20
114.957469375
30
0
10
-69.914801562500031
20
114.63492906249999
30
0
10
-69.457244375000016
20
114.12486531249999
30
0
10
-69.179709687500022
20
113.82482781249999
30
0
0
SPLINE
5
276
100
AcDbEntity
8
0
100
AcDbSpline
70
4
71
3
72
8
73
4
74
0
42
0.000000001
43
0.0000000001
44
0.0000000001
40
-1
40
-1
40
-1
40
-1
40
0
40
0
40
0
40
0
41
1
41
1
41
1
41
1
10
-69.179709687500022
20
113.82482781249999
30
0
10
-68.579634687500018
20
113.1797471875
30
0
10
-68.429615937500017
20
112.87220875
30
0
10
-68.429615937500017
20
112.2646328125
30
0
0
SPLINE
5
277
100
AcDbEntity
8
0
100
AcDbSpline
70
4
71
3
72
8
73
4
74
0
42
0.000000001
43
0.0000000001
44
0.0000000001
40
-1
40
-1
40
-1
40
-1
40
0
40
0
40
0
40
0
41
1
41
1
41
1
41
1
10
-68.429615937500017
20
112.2646328125
30
0
10
-68.429615937500017
20
111.747068125
30
0
10
-68.602137500000012
20
111.3420175
30
0
10
-68.992186250000017
20
110.9819725
30
0
0
SPLINE
5
278
100
AcDbEntity
8
0
100
AcDbSpline
70
4
71
3
72
8
73
4
74
0
42
0.000000001
43
0.0000000001
44
0.0000000001
40
-1
40
-1
40
-1
40
-1
40
0
40
0
40
0
40
0
41
1
41
1
41
1
41
1
10
-68.992186250000017
20
110.9819725
30
0
10
-69.697274375000021
20
110.3143890625
30
0
10
-70.514876562500021
20
110.28438531250001
30
0
10
-71.482497500000022
20
110.89946218749999
30
0
0
SPLINE
5
279
100
AcDbEntity
8
0
100
AcDbSpline
70
4
71
3
72
8
73
4
74
0
42
0.000000001
43
0.0000000001
44
0.0000000001
40
-1
40
-1
40
-1
40
-1
40
0
40
0
40
0
40
0
41
1
41
1
41
1
41
1
10
-71.482497500000022
20
110.89946218749999
30
0
10
-72.61513906250002
20
111.627053125
30
0
10
-72.952681250000012
20
111.79207375000001
30
0
10
-73.192711250000016
20
111.7395671875
30
0
0
SPLINE
5
280
100
AcDbEntity
8
0
100
AcDbSpline
70
4
71
3
72
8
73
4
74
0
42
0.000000001
43
0.0000000001
44
0.0000000001
40
-1
40
-1
40
-1
40
-1
40
0
40
0
40
0
40
0
41
1
41
1
41
1
41
1
10
-73.192711250000016
20
111.7395671875
30
0
10
-73.312726250000026
20
111.70956343749999
30
0
10
-73.635266562500021
20
111.73206624999999
30
0
10
-73.897799375000019
20
111.77707187499999
30
0
0
LINE
5
281
100
AcDbEntity
8
0
100
AcDbLine
10
-73.897799375000019
20
111.77707187499999
30
0
11
-74.377859375000028
21
111.86708312500001
31
0
0
LINE
5
282
100
AcDbEntity
8
0
100
AcDbLine
10
-74.377859375000028
20
111.86708312500001
30
0
11
-74.887923125000029
21
111.4995371875
31
0
0
LINE
5
283
100
AcDbEntity
8
0
100
AcDbLine
10
-74.887923125000029
20
111.4995371875
30
0
11
-75.390485937500017
21
111.13199125
31
0
0
LINE
5
284
100
AcDbEntity
8
0
100
AcDbLine
10
-75.390485937500017
20
111.13199125
30
0
11
-75.427990625000007
21
109.856831875
31
0
0
SPLINE
5
285
100
AcDbEntity
8
0
100
AcDbSpline
70
4
71
3
72
8
73
4
74
0
42
0.000000001
43
0.0000000001
44
0.0000000001
40
-1
40
-1
40
-1
40
-1
40
0
40
0
40
0
40
0
41
1
41
1
41
1
41
1
10
-75.427990625000021
20
109.856831875
30
0
10
-75.465495312500025
20
108.65668187499999
30
0
10
-75.480497187500021
20
108.5591696875
30
0
10
-75.675521562500023
20
108.15411906249999
30
0
0
SPLINE
5
286
100
AcDbEntity
8
0
100
AcDbSpline
70
4
71
3
72
8
73
4
74
0
42
0.000000001
43
0.0000000001
44
0.0000000001
40
-1
40
-1
40
-1
40
-1
40
0
40
0
40
0
40
0
41
1
41
1
41
1
41
1
10
-75.675521562500023
20
108.15411906249999
30
0
10
-75.945555312500019
20
107.61405156249999
30
0
10
-76.290598437500023
20
107.3440178125
30
0
10
-77.205712812500025
20
106.96146999999999
30
0
0
LINE
5
287
100
AcDbEntity
8
0
100
AcDbLine
10
-77.205712812500025
20
106.96146999999999
30
0
11
-77.94080468750002
21
106.65393156249999
31
0
0
LINE
5
288
100
AcDbEntity
8
0
100
AcDbLine
10
-77.94080468750002
20
106.65393156249999
30
0
11
-79.328478125000018
21
106.64643062499999
31
0
0
SPLINE
5
289
100
AcDbEntity
8
0
100
AcDbSpline
70
4
71
3
72
8
73
4
74
0
42
0.000000001
43
0.0000000001
44
0.0000000001
40
-1
40
-1
40
-1
40
-1
40
0
40
0
40
0
40
0
41
1
41
1
41
1
41
1
10
-79.328478125000018
20
106.64643062499999
30
0
10
-80.836166562500026
20
106.63142875
30
0
10
-80.836166562500026
20
106.63142875
30
0
10
-81.57125843750002
20
106.1288659375
30
0
0
SPLINE
5
290
100
AcDbEntity
8
0
100
AcDbSpline
70
4
71
3
72
8
73
4
74
0
42
0.000000001
43
0.0000000001
44
0.0000000001
40
-1
40
-1
40
-1
40
-1
40
0
40
0
40
0
40
0
41
1
41
1
41
1
41
1
10
-81.57125843750002
20
106.1288659375
30
0
10
-81.751280937500027
20
106.0088509375
30
0
10
-82.036316562500019
20
105.8588321875
30
0
10
-82.208838125000028
20
105.806325625
30
0
0
LWPOLYLINE
5
291
100
AcDbEntity
8
0
100
AcDbPolyline
90
59
70
1
43
0.0
10
-104.78601827951286
20
24.064206927480321
42
0.41421356237307161
10
-104.28601827951285
20
23.564206927480317
10
-85.736018070896577
20
23.564206927480313
42
0.41421356237309503
10
-85.236018070896591
20
24.064206927480303
10
-85.236018070896591
20
27.373381787555125
42
0.00092975203110892397
10
-85.234158571657304
20
27.373378329805753
10
-66.684158363041035
20
27.37337832980575
42
0.13161041365115056
10
-66.434230016510028
20
27.440324266667822
42
0.13161041365118278
10
-66.184301669979021
20
27.373378329805753
10
-47.634301461362732
20
27.37337832980575
42
0.41421356237308982
10
-47.134301461362739
20
27.873378329805742
10
-47.134301461362739
20
46.423378538422
42
0.00092975202626531235
10
-47.134304919112125
20
46.425238037661302
10
-42.624301461362734
20
46.425238037661302
42
0.41421356237307422
10
-42.12430146136272
20
46.925238037661288
10
-42.124301461362741
20
65.475238246277542
42
0.00042809459293513026
10
-42.124302194422384
20
65.476094434993769
10
-39.767278808369497
20
65.476094434993769
42
0.41421356237309243
10
-39.267278808369511
20
65.976094434993755
10
-39.267278808369504
20
84.526094643610023
42
0.00042618715581311736
10
-39.267279534911218
20
84.526947017457331
10
-34.997278808369494
20
84.526947017457331
42
0.41421356237311324
10
-34.497278808369508
20
85.026947017457317
10
-34.497278808369501
20
103.57694722607357
42
0.0056695197726984127
10
-34.497407373922094
20
103.58828517224907
10
-34.502958262314905
20
104.07780722965869
10
-34.502958262314898
20
122.62780743827494
42
0.41421356237311585
10
-35.00295826231492
20
123.12780743827496
10
-63.572958470931162
20
123.12780743827496
42
0.41421356237310025
10
-64.072958470931184
20
122.62780743827494
10
-64.072958470931184
20
104.07780722965869
42
0.00043000201281493999
10
-64.07295773132445
20
104.07694722607359
10
-77.867279016985776
20
104.07694722607359
42
0.062837852898683252
10
-77.991475738527129
20
104.06127683941389
42
0.062837852898681226
10
-78.115672460068467
20
104.07694722607359
10
-97.549495001450239
20
104.07694722607359
10
-94.03112323994722
20
120.62958495157946
42
0.41421356237309503
10
-94.416241194905254
20
121.22261459735525
10
-117.70593577243467
20
126.17299199909988
42
0.032309733586137659
10
-117.76981190498439
20
126.18230922655869
10
-173.38311702992405
20
137.99313739346391
42
0.41421356237310736
10
-173.97614667569985
20
137.60801943850586
10
-177.83290858374306
20
119.4633812408363
42
0.41421356237305429
10
-177.44779062878504
20
118.8703515950605
10
-171.40214650825516
20
117.5853102677201
10
-175.24642204072151
20
99.499415848547812
42
0.41421356237305429
10
-174.86130408576346
20
98.906386202772012
10
-166.97484302985276
20
97.230067156983097
10
-170.83089934247053
20
79.088748524797154
42
0.41421356237305429
10
-170.44578138751248
20
78.495718879021368
10
-164.72110354610328
20
77.278901040382863
42
0.020130744805312781
10
-164.73104849135814
20
77.239903955779738
10
-168.58781039940138
20
59.095265758110159
42
0.0063126145709683761
10
-168.59027911756502
20
59.082884759010682
10
-177.98336047718828
20
61.07944583629898
42
0.41421356237303797
10
-178.57639012296406
20
60.694327881340953
10
-182.4331520310073
20
42.549689683671374
42
0.41421356237306262
10
-182.04803407604928
20
41.956660037895581
10
-104.78601827951286
20
25.534111612489898
0
LWPOLYLINE
5
292
100
AcDbEntity
8
0
100
AcDbPolyline
90
8
70
1
43
0.0
10
-266.60831364411143
20
0.1009922061771947
42
0.41421356237309648
10
-266.01528399833563
20
-0.28412574878081243
10
-191.96867273573301
20
15.454967344514703
42
0.41421356237310836
10
-191.58355478077499
20
16.047996990290496
10
-195.4403166888182
20
34.192635187960065
42
0.41421356237308893
10
-196.03334633459397
20
34.57775314291807
10
-270.0799575971966
20
18.838660049622558
42
0.41421356237309703
10
-270.46507555215464
20
18.245630403846764
0
LWPOLYLINE
5
293
100
AcDbEntity
8
0
100
AcDbPolyline
90
8
70
1
43
0.0
10
-177.38566666395872
20
35.64546259016921
42
0.41421356237311885
10
-177.97869630973452
20
35.260344635211183
10
-181.83545821777773
20
17.115706437541604
42
0.41421356237302487
10
-181.45034026281968
20
16.522676791765818
10
-107.4037290002171
20
0.78358369847025655
42
0.41421356237311435
10
-106.81069935444131
20
1.168701653428279
10
-102.95393744639813
20
19.313339851097872
42
0.41421356237308482
10
-103.33905540135615
20
19.906369496873637
0
CIRCLE
5
294
100
AcDbEntity
8
0
100
AcDbCircle
10
-251.08069753950815
20
-8.4304199773065491
30
0
40
2.5499999999999901
210
-7.8886090522101181e-31
220
-0
230
1
0
LWPOLYLINE
5
295
100
AcDbEntity
8
0
100
AcDbPolyline
90
52
70
1
43
0.0
10
-285.45917076709623
20
104.07694722607357
42
0.13190065873122248
10
-285.70959313915091
20
104.00971579652949
42
0.1319006587310815
10
-285.96001551120571
20
104.07694722607357
10
-292.64258143571789
20
104.07694722607357
42
0.00043000205412539939
10
-292.64258069611111
20
104.07780722965869
10
-292.64258069611111
20
122.62780743827494
42
0.41421356237312623
10
-293.14258069611117
20
123.12780743827496
10
-321.71258090472747
20
123.12780743827496
42
0.41421356237312623
10
-322.21258090472747
20
122.62780743827494
10
-322.21258090472753
20
104.07780722965869
42
0.0004300020541092625
10
-322.21258016512081
20
104.07694722607357
10
-338.09519457064346
20
104.07694722607357
42
0.41421356237313667
10
-338.59519457064351
20
103.57694722607356
10
-338.59519457064346
20
85.026947017457317
42
0.00042618721831718569
10
-338.5951938441018
20
85.026094643610008
10
-351.62858935268758
20
85.026094643610008
42
0.41421356237312623
10
-352.12858935268764
20
84.526094643610008
10
-352.12858935268753
20
65.976094434993769
42
0.41421356237311063
10
-351.62858935268758
20
65.476094434993769
10
-350.78884760075647
20
65.476094434993769
42
0.0004280946551607031
10
-350.78884833381608
20
65.475238246277542
10
-350.78884833381608
20
46.925238037661302
42
0.41421356237310542
10
-350.28884833381608
20
46.425238037661302
10
-346.98646821003604
20
46.425238037661302
42
0.00092975205492396929
10
-346.98647166778551
20
46.423378538422
10
-346.98647166778539
20
27.873378329805757
42
0.41421356237310802
10
-346.48647166778545
20
27.373378329805753
10
-289.58017351112926
20
27.37337832980575
42
0.00042237228215185008
10
-289.57932876701983
20
27.373379043398867
10
-289.57932876701983
20
24.064206927480321
42
0.41421356237310025
10
-289.07932876701983
20
23.564206927480313
10
-268.29440208587346
20
23.564206927480313
42
0.052407779283011026
10
-268.19044624046455
20
23.575133127113421
10
-192.45182755819488
20
39.673873499853549
42
0.41421356237310308
10
-192.06670960323686
20
40.266903145629342
10
-195.92347151128007
20
58.4115413432989
42
0.0039918445550691968
10
-195.92519367868164
20
58.41933694461909
10
-187.09553546798435
20
60.296138734606387
42
0.41421356237310308
10
-186.7104175130263
20
60.889168380382173
10
-190.56717942106954
20
79.033806578051738
42
0.41421356237308893
10
-191.16020906684528
20
79.418924533009744
10
-192.53095353770928
20
79.127563801354711
10
-196.38590269912658
20
97.263673696667155
10
-188.52697938687288
20
98.934139414348181
42
0.41421356237307039
10
-188.14186143191483
20
99.527169060123981
10
-195.9528433100725
20
136.2749495886948
42
0.41421356121061192
10
-196.54587295390712
20
136.66006754406544
10
-247.37383388227528
20
125.87993510517755
42
0.051766565162724459
10
-247.4765107707891
20
125.86901054127785
10
-270.76620534831852
20
120.91863313953327
42
0.41421356237310736
10
-271.15132330327651
20
120.32560349375744
10
-267.69756479525961
20
104.07694722607357
0
LWPOLYLINE
5
296
100
AcDbEntity
8
0
100
AcDbPolyline
90
21
70
1
43
0.0
10
-343.37376383854348
20
125.98493824822563
42
0.13165243632134704
10
-343.62376373423535
20
125.91795101034016
42
0.13165243632121582
10
-343.87376362992723
20
125.98493824822563
10
-362.42376383854349
20
125.98493824822563
42
0.13215801153942081
10
-362.67462394643667
20
125.91745322631057
42
0.13215801153939197
10
-362.92548405432996
20
125.98493824822569
10
-381.47548426294622
20
125.98493824822566
42
0.41421356237312623
10
-381.97548426294617
20
125.48493824822565
10
-381.97548426294617
20
106.93493803960942
42
0.4142135623730222
10
-381.47548426294622
20
106.43493803960942
10
-362.92548405433001
20
106.43493803960942
42
0.00086010507031031595
10
-362.92376383854344
20
106.43493824822563
10
-362.92376383854344
20
87.884938039609409
42
0.4142135623730222
10
-362.42376383854349
20
87.384938039609409
10
-343.87376362992723
20
87.384938039609409
42
0.4142135623730222
10
-343.37376362992728
20
87.884938039609381
10
-343.37376362992728
20
106.43493824822563
10
-324.82376362992727
20
106.43493803960939
42
0.4142135623730222
10
-324.32376362992727
20
106.93493803960936
10
-324.32376362992727
20
125.48493824822563
42
0.41421356237310542
10
-324.82376362992727
20
125.98493824822563
0
LWPOLYLINE
5
297
100
AcDbEntity
8
0
100
AcDbPolyline
90
28
70
1
43
0.0
10
-353.85310738829946
20
38.423018576088666
10
-353.85310738829946
20
19.873018367472405
10
-351.49410161101753
20
19.873022152528257
42
-0.41421356237310936
10
-350.99410161101758
20
19.373022152528261
10
-350.99410161101758
20
0.82302194391200356
42
-0.41421356237301971
10
-351.49410161101753
20
0.32302194391203143
10
-370.0441018196338
20
0.32302194391205397
42
-0.41421356237301948
10
-370.54410181963374
20
0.82302194391203853
10
-370.54410181963374
20
19.373022152528261
10
-372.90310759691567
20
19.373018367472454
42
-0.41421356237301959
10
-373.40310759691562
20
19.87301836747244
10
-373.40310759691562
20
38.423018576088651
42
-0.00085820235834845428
10
-373.40310465087487
20
38.424734977006281
10
-375.75935530545155
20
38.424734977006295
42
-0.4142135623730222
10
-376.25935530545149
20
38.924734977006288
10
-376.25935530545149
20
57.474735185622507
10
-378.61836108273337
20
57.474731400566696
42
-0.4142135623730222
10
-379.11836108273337
20
57.974731400566682
10
-379.11836108273337
20
76.524731609182908
42
-0.41421356237310542
10
-378.61836108273337
20
77.024731609182908
10
-360.06836087411716
20
77.024731609182965
42
-0.4142135623730222
10
-359.5683608741171
20
76.524731609182908
10
-359.56836087411716
20
57.974731400566654
10
-357.20935509683528
20
57.974735185622563
42
-0.4142135623730222
10
-356.70935509683522
20
57.474735185622507
10
-356.70935509683534
20
38.924734977006246
42
-0.00085820235842927852
10
-356.70935804287609
20
38.923018576088666
10
-354.35310738829941
20
38.923018576088651
42
-0.41421356237310542
0
CIRCLE
5
298
100
AcDbEntity
8
0
100
AcDbCircle
10
-389.18569753950834
20
-7.4304199773066415
30
0
40
2.5500000000000256
210
-7.8886090522101181e-31
220
-0
230
1
0
LWPOLYLINE
5
299
100
AcDbEntity
8
0
100
AcDbPolyline
90
8
70
1
43
0.0
10
-311.94037322924197
20
19.300136414745278
42
0.41421356237304691
10
-312.44037322924197
20
18.800136414745278
10
-312.44037322924197
20
0.25013620612903203
42
0.41421356237310186
10
-311.94037322924197
20
-0.24986379387097954
10
-274.33949754894871
20
-0.24986379387097513
42
0.4142135623730725
10
-273.83949754894871
20
0.25013620612901022
10
-273.83949754894871
20
18.800136414745275
42
0.41421356237313273
10
-274.33949754894871
20
19.300136414745275
0
CIRCLE
5
300
100
AcDbEntity
8
0
100
AcDbCircle
10
-130.5815003372476
20
140.59623392031267
30
0
40
2.5500000000000078
210
7.8886090522101181e-31
220
-2.4651903288156619e-32
230
1
0
CIRCLE
5
301
100
AcDbEntity
8
0
100
AcDbCircle
10
-127.92219753950805
20
-8.4304199773065491
30
0
40
2.5500000000000078
210
7.8886090522101181e-31
220
-2.4651903288156619e-32
230
1
0
CIRCLE
5
302
100
AcDbEntity
8
0
100
AcDbCircle
10
-389.18571489936113
20
133.56957823455414
30
0
40
2.5500000000000256
210
-7.8886090522101181e-31
220
-0
230
1
0
CIRCLE
5
303
100
AcDbEntity
8
0
100
AcDbCircle
10
-28.185697539508126
20
-7.4304199773066415
30
0
40
2.5499999999999998
210
7.8886090522101181e-31
220
-1.3817869688151111e-76
230
1
0
LWPOLYLINE
5
304
100
AcDbEntity
8
0
100
AcDbPolyline
90
14
70
1
43
0.0
10
-62.37398555762698
20
18.800136414745275
42
0.41421356237309764
10
-62.87398555762698
20
19.300136414745278
10
-81.423985766243248
20
19.300136414745278
42
0.1319040218933063
10
-81.674413860601348
20
19.232901673928783
42
0.13190402189329828
10
-81.924841954959447
20
19.300136414745275
10
-100.47484216357573
20
19.300136414745278
42
0.41421356237308332
10
-100.97484216357572
20
18.800136414745285
10
-100.97484216357573
20
0.25013620612903203
42
0.41421356237307372
10
-100.47484216357573
20
-0.24986379387097954
10
-81.924841954959447
20
-0.2498637938709751
42
0.13190402189330686
10
-81.674413860601348
20
-0.18262905305448621
42
0.13190402189330414
10
-81.423985766243248
20
-0.24986379387097954
10
-62.873985557626966
20
-0.2498637938709751
42
0.41421356237308332
10
-62.373985557626966
20
0.25013620612901022
0
LWPOLYLINE
5
305
100
AcDbEntity
8
0
100
AcDbPolyline
90
8
70
1
43
0.0
10
-55.253787068605746
20
0.25013620612903426
42
0.41421356237308476
10
-54.753787068605739
20
-0.24986379387097304
10
-36.203786859989457
20
-0.24986379387097507
42
0.41421356237308599
10
-35.703786859989478
20
0.25013620612901022
10
-35.703786859989471
20
18.800136414745275
42
0.41421356237308982
10
-36.203786859989449
20
19.300136414745275
10
-54.753787068605739
20
19.300136414745278
42
0.41421356237309115
10
-55.253787068605732
20
18.800136414745285
0
CIRCLE
5
306
100
AcDbEntity
8
0
100
AcDbCircle
10
-28.1857094753383
20
133.56957823455414
30
0
40
2.5500000000000012
210
7.8886090522101181e-31
220
-0
230
1
0
LWPOLYLINE
5
307
100
AcDbEntity
8
0
100
AcDbPolyline
90
14
70
1
43
0.0
10
-208.90665792898267
20
152.40857782856415
10
-264.58521022489691
20
140.57373619378012
10
-388.18569753950828
20
140.56958002269346
42
0.41421356237309631
10
-396.18569753950823
20
132.56958002269346
10
-396.18569753950823
20
-6.4304199773065562
42
0.41421356237309503
10
-388.18569753950828
20
-14.430419977306528
10
-29.185697539508197
20
-14.430419977306617
42
0.41421356237309914
10
-21.185697539508187
20
-6.4304199773066095
10
-21.185697539508169
20
132.5695800226934
42
0.41421356237310025
10
-29.185697539508141
20
140.56958002269337
10
-101.58318559917754
20
140.57373619378012
10
-157.26173789509156
20
152.40857782856412
42
0.052407779283031641
10
-158.92503142163366
20
152.5833970226937
10
-207.24336440244059
20
152.5833970226937
42
0.05240777928303151
0
ENDSEC
0
SECTION
2
OBJECTS
0
DICTIONARY
5
C
100
AcDbDictionary
3
ACAD_GROUP
350
D
3
ACAD_MLINESTYLE
350
17
0
DICTIONARY
5
D
100
AcDbDictionary
0
DICTIONARY
5
1A
330
C
100
AcDbDictionary
0
DICTIONARY
5
17
100
AcDbDictionary
0
ENDSEC
0
EOF
