0
SECTION
2
HEADER
9
$INSUNITS
70
4
9
$ACADVER
1
AC1014
9
$HANDSEED
5
FFFF
0
ENDSEC
0
SECTION
2
TABLES
0
TABLE
2
VPORT
5
8
100
AcDbSymbolTable
0
ENDTAB
0
TABLE
2
LTYPE
5
5
100
AcDbSymbolTable
0
LTYPE
5
14
100
AcDbSymbolTableRecord
100
AcDbLinetypeTableRecord
2
BYBLOCK
70
0
0
LTYPE
5
15
100
AcDbSymbolTableRecord
100
AcDbLinetypeTableRecord
2
BYLAYER
70
0
0
LTYPE
5
16
100
AcDbSymbolTableRecord
100
AcDbLinetypeTableRecord
2
DASHED
70
0
3
Dashed __ __ __ __ __ __ __ __ __ __ __ __ __ _
72
65
73
2
40
0.75
49
0.5
74
0
49
-0.25
74
0
0
ENDTAB
0
TABLE
2
LAYER
5
2
100
AcDbSymbolTable
70
2
0
LAYER
5
50
100
AcDbSymbolTableRecord
100
AcDbLayerTableRecord
2
0
70
0
62
7
6
CONTINUOUS
0
ENDTAB
0
TABLE
2
STYLE
5
3
100
AcDbSymbolTable
70
1
0
STYLE
5
11
100
AcDbSymbolTableRecord
100
AcDbTextStyleTableRecord
2
STANDARD
70
0
0
ENDTAB
0
TABLE
2
VIEW
5
6
100
AcDbSymbolTable
70
0
0
ENDTAB
0
TABLE
2
UCS
5
7
100
AcDbSymbolTable
70
0
0
ENDTAB
0
TABLE
2
APPID
5
9
100
AcDbSymbolTable
70
2
0
APPID
5
12
100
AcDbSymbolTableRecord
100
AcDbRegAppTableRecord
2
ACAD
70
0
0
ENDTAB
0
TABLE
2
DIMSTYLE
5
A
100
AcDbSymbolTable
70
1
0
ENDTAB
0
TABLE
2
BLOCK_RECORD
5
1
100
AcDbSymbolTable
70
1
0
BLOCK_RECORD
5
1F
100
AcDbSymbolTableRecord
100
AcDbBlockTableRecord
2
*MODEL_SPACE
0
BLOCK_RECORD
5
1B
100
AcDbSymbolTableRecord
100
AcDbBlockTableRecord
2
*PAPER_SPACE
0
ENDTAB
0
ENDSEC
0
SECTION
2
BLOCKS
0
BLOCK
5
20
100
AcDbEntity
100
AcDbBlockBegin
2
*MODEL_SPACE
0
ENDBLK
5
21
100
AcDbEntity
100
AcDbBlockEnd
0
BLOCK
5
1C
100
AcDbEntity
100
AcDbBlockBegin
2
*PAPER_SPACE
0
ENDBLK
5
1D
100
AcDbEntity
100
AcDbBlockEnd
0
ENDSEC
0
SECTION
2
ENTITIES
0
CIRCLE
5
100
100
AcDbEntity
8
0
100
AcDbCircle
10
-1019.895
20
-268.99999999999994
30
0
40
2.5499999999999545
210
0
220
-0
230
1
0
CIRCLE
5
101
100
AcDbEntity
8
0
100
AcDbCircle
10
-896.73649999999975
20
-268.99999999999994
30
0
40
2.5499999999999545
210
0
220
-0
230
1
0
CIRCLE
5
102
100
AcDbEntity
8
0
100
AcDbCircle
10
-1004.4296769246344
20
-119.97334610238072
30
0
40
2.5499999999999545
210
0
220
-0
230
1
0
CIRCLE
5
103
100
AcDbEntity
8
0
100
AcDbCircle
10
-899.39580279773941
20
-119.97334610238072
30
0
40
2.5499999999999545
210
0
220
-0
230
1
0
CIRCLE
5
104
100
AcDbEntity
8
0
100
AcDbCircle
10
-1158.0000173598528
20
-127.00000178813926
30
0
40
2.5499999999999545
210
0
220
-0
230
1
0
CIRCLE
5
105
100
AcDbEntity
8
0
100
AcDbCircle
10
-1158
20
-268.00000000000006
30
0
40
2.5499999999999545
210
0
220
-0
230
1
0
LWPOLYLINE
5
106
100
AcDbEntity
8
0
100
AcDbPolyline
90
14
70
1
43
0.0
10
-1157
20
-275
10
-798
20
-275
42
0.41421356237309631
10
-790
20
-267
10
-790
20
-128
42
0.41421356237309437
10
-798
20
-120.00000000000006
10
-870.41200000000003
20
-120
10
-926.09028021677079
20
-108.16521619742323
42
0.052407779283134441
10
-927.75357374331281
20
-107.99039700329375
10
-976.07190597906094
20
-107.99039700329377
42
0.05240777928296899
10
-977.73519950560308
20
-108.16521619742321
10
-1033.4134797223737
20
-120.00000000000001
10
-1157
20
-120
42
0.41421356237309437
10
-1165
20
-128
10
-1165
20
-267
42
0.41421356237309631
0
CIRCLE
5
107
100
AcDbEntity
8
0
100
AcDbCircle
10
-797.00001193583012
20
-127.00000178813926
30
0
40
2.5499999999999545
210
0
220
-0
230
1
0
CIRCLE
5
108
100
AcDbEntity
8
0
100
AcDbCircle
10
-796.99999999999989
20
-268.00000000000006
30
0
40
2.5499999999999545
210
0
220
-0
230
1
0
LWPOLYLINE
5
109
100
AcDbEntity
8
0
100
AcDbPolyline
90
38
70
1
43
0.0
10
-801
20
-269
10
-891.73649999999975
20
-268.99999999999994
10
-891.73649999999975
20
-264.99999999999994
10
-901.73649999999975
20
-264.99999999999994
10
-901.73649999999975
20
-268.99999999999994
10
-1014.895
20
-268.99999999999994
10
-1014.895
20
-264.99999999999994
10
-1024.895
20
-264.99999999999994
10
-1024.895
20
-268.99999999999994
10
-1154
20
-269
10
-1154
20
-268
42
0.41421356237307944
10
-1158
20
-264
10
-1159
20
-264
10
-1159
20
-131.00000178813934
10
-1158.0000173598528
20
-131.00000178813934
42
0.41421356237308982
10
-1154.0000173598528
20
-127.00000178813934
10
-1154.0000173598528
20
-126
10
-1032.7828543107796
20
-126
10
-1009.3204149283035
20
-121.01290455646954
10
-1008.4887681650325
20
-124.9254949594048
10
-998.70729215769438
20
-122.84637805122716
10
-999.53893892096539
20
-118.93378764829194
10
-976.69334427180149
20
-114.07780660035861
42
-0.05240777928296101
10
-975.86169750853048
20
-113.99039700329375
10
-927.96378221384327
20
-113.99039700329381
42
-0.052407779282989064
10
-927.13213545057226
20
-114.07780660035861
10
-904.28654080140836
20
-118.93378764829194
10
-905.11818756467949
20
-122.84637805122713
10
-895.33671155734146
20
-124.92549495940477
10
-894.50506479407045
20
-121.01290455646954
10
-871.04262541159403
20
-126
10
-801.00001193583012
20
-126.00000000000001
10
-801.00001193583012
20
-127.00000178813934
42
0.41421356237307944
10
-797.00001193583023
20
-131.00000178813931
10
-796
20
-131.00000178813934
10
-796
20
-264
10
-796.99999999999989
20
-264
42
0.41421356237308982
10
-801
20
-268
0
LINE
5
110
100
AcDbEntity
8
0
100
AcDbLine
10
-790
20
-267
30
0
11
-790
21
-275
31
0
0
ENDSEC
0
SECTION
2
OBJECTS
0
DICTIONARY
5
C
100
AcDbDictionary
3
ACAD_GROUP
350
D
3
ACAD_MLINESTYLE
350
17
0
DICTIONARY
5
D
100
AcDbDictionary
0
DICTIONARY
5
1A
330
C
100
AcDbDictionary
0
DICTIONARY
5
17
100
AcDbDictionary
0
ENDSEC
0
EOF
