0
SECTION
2
HEADER
9
$INSUNITS
70
4
9
$ACADVER
1
AC1014
9
$HANDSEED
5
FFFF
0
ENDSEC
0
SECTION
2
TABLES
0
TABLE
2
VPORT
5
8
100
AcDbSymbolTable
0
ENDTAB
0
TABLE
2
LTYPE
5
5
100
AcDbSymbolTable
0
LTYPE
5
14
100
AcDbSymbolTableRecord
100
AcDbLinetypeTableRecord
2
BYBLOCK
70
0
0
LTYPE
5
15
100
AcDbSymbolTableRecord
100
AcDbLinetypeTableRecord
2
BYLAYER
70
0
0
LTYPE
5
16
100
AcDbSymbolTableRecord
100
AcDbLinetypeTableRecord
2
DASHED
70
0
3
Dashed __ __ __ __ __ __ __ __ __ __ __ __ __ _
72
65
73
2
40
0.75
49
0.5
74
0
49
-0.25
74
0
0
ENDTAB
0
TABLE
2
LAYER
5
2
100
AcDbSymbolTable
70
2
0
LAYER
5
50
100
AcDbSymbolTableRecord
100
AcDbLayerTableRecord
2
0
70
0
62
7
6
CONTINUOUS
0
ENDTAB
0
TABLE
2
STYLE
5
3
100
AcDbSymbolTable
70
1
0
STYLE
5
11
100
AcDbSymbolTableRecord
100
AcDbTextStyleTableRecord
2
STANDARD
70
0
0
ENDTAB
0
TABLE
2
VIEW
5
6
100
AcDbSymbolTable
70
0
0
ENDTAB
0
TABLE
2
UCS
5
7
100
AcDbSymbolTable
70
0
0
ENDTAB
0
TABLE
2
APPID
5
9
100
AcDbSymbolTable
70
2
0
APPID
5
12
100
AcDbSymbolTableRecord
100
AcDbRegAppTableRecord
2
ACAD
70
0
0
ENDTAB
0
TABLE
2
DIMSTYLE
5
A
100
AcDbSymbolTable
70
1
0
ENDTAB
0
TABLE
2
BLOCK_RECORD
5
1
100
AcDbSymbolTable
70
1
0
BLOCK_RECORD
5
1F
100
AcDbSymbolTableRecord
100
AcDbBlockTableRecord
2
*MODEL_SPACE
0
BLOCK_RECORD
5
1B
100
AcDbSymbolTableRecord
100
AcDbBlockTableRecord
2
*PAPER_SPACE
0
ENDTAB
0
ENDSEC
0
SECTION
2
BLOCKS
0
BLOCK
5
20
100
AcDbEntity
100
AcDbBlockBegin
2
*MODEL_SPACE
0
ENDBLK
5
21
100
AcDbEntity
100
AcDbBlockEnd
0
BLOCK
5
1C
100
AcDbEntity
100
AcDbBlockBegin
2
*PAPER_SPACE
0
ENDBLK
5
1D
100
AcDbEntity
100
AcDbBlockEnd
0
ENDSEC
0
SECTION
2
ENTITIES
0
LINE
5
100
100
AcDbEntity
8
0
100
AcDbLine
10
-398.70073903191786
20
-81.406810314703193
30
4.194977698546154e-12
11
-343.02245881514727
21
-69.572026512126385
31
4.1922021409845911e-12
0
ARC
5
101
100
AcDbEntity
8
0
100
AcDbCircle
10
-219.435938537521
20
77.427973487873629
30
4.1561198926842735e-12
40
7.9999999999999716
210
-0
220
0
230
1
100
AcDbArc
50
0
51
90
0
ARC
5
102
100
AcDbEntity
8
0
100
AcDbCircle
10
-219.435938537521
20
77.427973487873629
30
4.1561198926842735e-12
40
7.9999999999999716
210
-0
220
0
230
1
100
AcDbArc
50
0
51
90
0
LINE
5
103
100
AcDbEntity
8
0
100
AcDbLine
10
-506.02393853752096
20
-69.572026512126399
30
4.1922021409845911e-12
11
-450.34565832075026
21
-81.406810314703165
31
4.194977698546154e-12
0
ARC
5
104
100
AcDbEntity
8
0
100
AcDbCircle
10
-578.435938537521
20
-61.572026512126371
30
4.1899816949353408e-12
40
7.9999999999999716
210
0
220
0
230
1
100
AcDbArc
50
180
51
270
0
LINE
5
105
100
AcDbEntity
8
0
100
AcDbLine
10
-211.435938537521
20
77.427973487873601
30
4.1561198926842735e-12
11
-211.435938537521
21
-61.572026512126392
31
4.1899816949353408e-12
0
CIRCLE
5
106
100
AcDbEntity
8
0
100
AcDbCircle
10
-218.43593853752088
20
78.427973487873643
30
4.8283599340948058e-12
40
2.5499999999999998
210
0
220
0
230
1
0
ARC
5
107
100
AcDbEntity
8
0
100
AcDbCircle
10
-448.68236479421006
20
-73.581629508847072
30
4.1927572524969037e-12
40
7.9999999999855618
210
5.7707086558798072e-17
220
2.7149049695461328e-16
230
1
100
AcDbArc
50
257.99999999999176
51
270.00000000001302
0
CIRCLE
5
108
100
AcDbEntity
8
0
100
AcDbCircle
10
-477.04013573978165
20
-69.598680409745683
30
5.0909276794186553e-12
40
2.5500000000000029
210
0
220
0
230
1
0
CIRCLE
5
109
100
AcDbEntity
8
0
100
AcDbCircle
10
-579.43592660169099
20
-62.572024723987134
30
5.0892623448817176e-12
40
2.5500000000000012
210
0
220
0
230
1
0
LINE
5
110
100
AcDbEntity
8
0
100
AcDbLine
10
-398.70073903191786
20
-81.406810314703193
30
4.194977698546154e-12
11
-343.02245881514727
21
-69.572026512126385
31
4.1922021409845911e-12
0
LINE
5
111
100
AcDbEntity
8
0
100
AcDbLine
10
-578.435938537521
20
-69.572026512126342
30
4.2049697057677804e-12
11
-506.02393853752108
21
-69.572026512126342
31
4.2049697057677804e-12
0
CIRCLE
5
112
100
AcDbEntity
8
0
100
AcDbCircle
10
-372.00626161288659
20
-69.598680409745683
30
5.0909276794186553e-12
40
2.5499999999999923
210
0
220
0
230
1
0
ARC
5
113
100
AcDbEntity
8
0
100
AcDbCircle
10
-219.435938537521
20
-61.572026512126371
30
4.1899816949353408e-12
40
8.0000000000000249
210
0
220
2.775557561562883e-16
230
1
100
AcDbArc
50
270
51
360
0
LINE
5
114
100
AcDbEntity
8
0
100
AcDbLine
10
-211.435938537521
20
77.427973487873601
30
4.1561198926842735e-12
11
-211.435938537521
21
-61.572026512126392
31
4.1899816949353408e-12
0
CIRCLE
5
115
100
AcDbEntity
8
0
100
AcDbCircle
10
-372.00626161288659
20
-69.598680409745683
30
5.0909276794186553e-12
40
2.5499999999999923
210
0
220
0
230
1
0
ARC
5
116
100
AcDbEntity
8
0
100
AcDbCircle
10
-448.68236479421006
20
-73.581629508847072
30
4.1927572524969037e-12
40
7.9999999999855618
210
5.7707086558798072e-17
220
2.7149049695461328e-16
230
1
100
AcDbArc
50
257.99999999999176
51
270.00000000001302
0
CIRCLE
5
117
100
AcDbEntity
8
0
100
AcDbCircle
10
-579.43592660169099
20
-62.572024723987134
30
5.0892623448817176e-12
40
2.5500000000000012
210
0
220
0
230
1
0
CIRCLE
5
118
100
AcDbEntity
8
0
100
AcDbCircle
10
-218.43593853752088
20
78.427973487873643
30
4.8283599340948058e-12
40
2.5499999999999998
210
0
220
0
230
1
0
LINE
5
119
100
AcDbEntity
8
0
100
AcDbLine
10
-586.435938537521
20
-61.572026512126392
30
4.1899816949353408e-12
11
-586.435938537521
21
77.427973487873601
31
4.1561198926842735e-12
0
LINE
5
120
100
AcDbEntity
8
0
100
AcDbLine
10
-586.435938537521
20
-61.572026512126392
30
4.1899816949353408e-12
11
-586.435938537521
21
77.427973487873601
31
4.1561198926842735e-12
0
CIRCLE
5
121
100
AcDbEntity
8
0
100
AcDbCircle
10
-218.43592117766809
20
-62.572024723987134
30
4.8633319593704982e-12
40
2.5500000000000078
210
0
220
0
230
1
0
CIRCLE
5
122
100
AcDbEntity
8
0
100
AcDbCircle
10
-218.43592117766809
20
-62.572024723987134
30
4.8633319593704982e-12
40
2.5500000000000078
210
0
220
0
230
1
0
LINE
5
123
100
AcDbEntity
8
0
100
AcDbLine
10
-578.435938537521
20
85.427973487873601
30
4.1538994466350232e-12
11
-219.435938537521
21
85.427973487873601
31
4.1538994466350232e-12
0
LINE
5
124
100
AcDbEntity
8
0
100
AcDbLine
10
-578.435938537521
20
85.427973487873601
30
4.1538994466350232e-12
11
-219.435938537521
21
85.427973487873601
31
4.1538994466350232e-12
0
ARC
5
125
100
AcDbEntity
8
0
100
AcDbCircle
10
-219.435938537521
20
-61.572026512126371
30
4.1899816949353408e-12
40
8.0000000000000249
210
0
220
2.775557561562883e-16
230
1
100
AcDbArc
50
270
51
360
0
LINE
5
126
100
AcDbEntity
8
0
100
AcDbLine
10
-343.02245881514727
20
-69.572026512126385
30
4.1922021409845911e-12
11
-219.43545881514729
21
-69.572026512126158
31
4.1922021409845911e-12
0
LINE
5
127
100
AcDbEntity
8
0
100
AcDbLine
10
-506.02393853752096
20
-69.572026512126399
30
4.1922021409845911e-12
11
-450.34565832075026
21
-81.406810314703165
31
4.194977698546154e-12
0
ARC
5
128
100
AcDbEntity
8
0
100
AcDbCircle
10
-578.435938537521
20
-61.572026512126371
30
4.1899816949353408e-12
40
7.9999999999999716
210
0
220
0
230
1
100
AcDbArc
50
180
51
270
0
CIRCLE
5
129
100
AcDbEntity
8
0
100
AcDbCircle
10
-477.04013573978165
20
-69.598680409745683
30
5.0909276794186553e-12
40
2.5500000000000029
210
0
220
0
230
1
0
ARC
5
130
100
AcDbEntity
8
0
100
AcDbCircle
10
-400.36403255846062
20
-73.581629508821266
30
4.1927572524969037e-12
40
8.000000000011358
210
-1.9721522630469299e-29
220
2.775557561558951e-16
230
1
100
AcDbArc
50
270.00000000000409
51
281.99999999998772
0
LINE
5
131
100
AcDbEntity
8
0
100
AcDbLine
10
-448.68236479420824
20
-81.581629508832648
30
4.194977698546154e-12
11
-400.36403255846005
21
-81.581629508832634
31
4.194977698546154e-12
0
ARC
5
132
100
AcDbEntity
8
0
100
AcDbCircle
10
-400.36403255846062
20
-73.581629508821266
30
4.1927572524969037e-12
40
8.000000000011358
210
-1.9721522630469299e-29
220
2.775557561558951e-16
230
1
100
AcDbArc
50
270.00000000000409
51
281.99999999998772
0
LINE
5
133
100
AcDbEntity
8
0
100
AcDbLine
10
-448.68236479420824
20
-81.581629508832648
30
4.194977698546154e-12
11
-400.36403255846005
21
-81.581629508832634
31
4.194977698546154e-12
0
CIRCLE
5
134
100
AcDbEntity
8
0
100
AcDbCircle
10
-579.43593853752111
20
78.427973487873643
30
4.8283599340948058e-12
40
2.5499999999999998
210
0
220
0
230
1
0
CIRCLE
5
135
100
AcDbEntity
8
0
100
AcDbCircle
10
-479.69943853752119
20
79.427973487873544
30
3.6914915568786455e-12
40
2.5499999999999994
210
0
220
0
230
1
0
ARC
5
136
100
AcDbEntity
8
0
100
AcDbCircle
10
-578.435938537521
20
77.427973487873629
30
4.1561198926842735e-12
40
7.9999999999999716
210
0
220
2.7755575615629012e-16
230
1
100
AcDbArc
50
90
51
180
0
LINE
5
137
100
AcDbEntity
8
0
100
AcDbLine
10
-586.435938537521
20
85.427973487873601
30
4.1588954502458364e-12
11
-586.435938537521
21
64.697973487873597
31
4.1611158962950867e-12
0
CIRCLE
5
138
100
AcDbEntity
8
0
100
AcDbCircle
10
-356.54093853752107
20
79.427973487873544
30
3.6914915568786455e-12
40
2.5499999999999994
210
0
220
0
230
1
0
CIRCLE
5
139
100
AcDbEntity
8
0
100
AcDbCircle
10
-356.54093853752107
20
79.427973487873544
30
3.6914915568786455e-12
40
2.5499999999999994
210
0
220
0
230
1
0
ARC
5
140
100
AcDbEntity
8
0
100
AcDbCircle
10
-578.435938537521
20
77.427973487873629
30
4.1561198926842735e-12
40
7.9999999999999716
210
0
220
2.7755575615629012e-16
230
1
100
AcDbArc
50
90
51
180
0
CIRCLE
5
141
100
AcDbEntity
8
0
100
AcDbCircle
10
-579.43593853752111
20
78.427973487873643
30
4.8283599340948058e-12
40
2.5499999999999998
210
0
220
0
230
1
0
CIRCLE
5
142
100
AcDbEntity
8
0
100
AcDbCircle
10
-479.69943853752119
20
79.427973487873544
30
3.6914915568786455e-12
40
2.5499999999999994
210
0
220
0
230
1
0
LINE
5
143
100
AcDbEntity
8
0
100
AcDbLine
10
-586.435938537521
20
85.427973487873601
30
4.1588954502458364e-12
11
-586.435938537521
21
64.697973487873597
31
4.1611158962950867e-12
0
ENDSEC
0
SECTION
2
OBJECTS
0
DICTIONARY
5
C
100
AcDbDictionary
3
ACAD_GROUP
350
D
3
ACAD_MLINESTYLE
350
17
0
DICTIONARY
5
D
100
AcDbDictionary
0
DICTIONARY
5
1A
330
C
100
AcDbDictionary
0
DICTIONARY
5
17
100
AcDbDictionary
0
ENDSEC
0
EOF
