0
SECTION
2
HEADER
9
$INSUNITS
70
4
9
$ACADVER
1
AC1014
9
$HANDSEED
5
FFFF
0
ENDSEC
0
SECTION
2
TABLES
0
TABLE
2
VPORT
5
8
100
AcDbSymbolTable
0
ENDTAB
0
TABLE
2
LTYPE
5
5
100
AcDbSymbolTable
0
LTYPE
5
14
100
AcDbSymbolTableRecord
100
AcDbLinetypeTableRecord
2
BYBLOCK
70
0
0
LTYPE
5
15
100
AcDbSymbolTableRecord
100
AcDbLinetypeTableRecord
2
BYLAYER
70
0
0
LTYPE
5
16
100
AcDbSymbolTableRecord
100
AcDbLinetypeTableRecord
2
DASHED
70
0
3
Dashed __ __ __ __ __ __ __ __ __ __ __ __ __ _
72
65
73
2
40
0.75
49
0.5
74
0
49
-0.25
74
0
0
ENDTAB
0
TABLE
2
LAYER
5
2
100
AcDbSymbolTable
70
2
0
LAYER
5
50
100
AcDbSymbolTableRecord
100
AcDbLayerTableRecord
2
0
70
0
62
7
6
CONTINUOUS
0
ENDTAB
0
TABLE
2
STYLE
5
3
100
AcDbSymbolTable
70
1
0
STYLE
5
11
100
AcDbSymbolTableRecord
100
AcDbTextStyleTableRecord
2
STANDARD
70
0
0
ENDTAB
0
TABLE
2
VIEW
5
6
100
AcDbSymbolTable
70
0
0
ENDTAB
0
TABLE
2
UCS
5
7
100
AcDbSymbolTable
70
0
0
ENDTAB
0
TABLE
2
APPID
5
9
100
AcDbSymbolTable
70
2
0
APPID
5
12
100
AcDbSymbolTableRecord
100
AcDbRegAppTableRecord
2
ACAD
70
0
0
ENDTAB
0
TABLE
2
DIMSTYLE
5
A
100
AcDbSymbolTable
70
1
0
ENDTAB
0
TABLE
2
BLOCK_RECORD
5
1
100
AcDbSymbolTable
70
1
0
BLOCK_RECORD
5
1F
100
AcDbSymbolTableRecord
100
AcDbBlockTableRecord
2
*MODEL_SPACE
0
BLOCK_RECORD
5
1B
100
AcDbSymbolTableRecord
100
AcDbBlockTableRecord
2
*PAPER_SPACE
0
ENDTAB
0
ENDSEC
0
SECTION
2
BLOCKS
0
BLOCK
5
20
100
AcDbEntity
100
AcDbBlockBegin
2
*MODEL_SPACE
0
ENDBLK
5
21
100
AcDbEntity
100
AcDbBlockEnd
0
BLOCK
5
1C
100
AcDbEntity
100
AcDbBlockBegin
2
*PAPER_SPACE
0
ENDBLK
5
1D
100
AcDbEntity
100
AcDbBlockEnd
0
ENDSEC
0
SECTION
2
ENTITIES
0
POINT
5
100
100
AcDbEntity
8
0
100
AcDbPoint
10
-186.435938537521
20
85.427973487873601
30
3.0200000000041753
0
POINT
5
101
100
AcDbEntity
8
0
100
AcDbPoint
10
-186.435938537521
20
-69.572026512126399
30
3.0200000000041753
0
POINT
5
102
100
AcDbEntity
8
0
100
AcDbPoint
10
177.56407882233185
20
-58.572024723987056
30
3.0200000000041753
0
POINT
5
103
100
AcDbEntity
8
0
100
AcDbPoint
10
177.56406146247906
20
74.427973487873587
30
3.0200000000041753
0
POINT
5
104
100
AcDbEntity
8
0
100
AcDbPoint
10
-175.43592660169088
20
-58.572024723987056
30
3.0200000000041753
0
POINT
5
105
100
AcDbEntity
8
0
100
AcDbPoint
10
-172.62163607702922
20
70.997553510567002
30
3.0200000000041753
0
POINT
5
106
100
AcDbEntity
8
0
100
AcDbPoint
10
177.56407882233185
20
-58.572024723987056
30
3.0200000000041753
0
POINT
5
107
100
AcDbEntity
8
0
100
AcDbPoint
10
-186.435938537521
20
-69.572026512126399
30
3.0200000000041753
0
POINT
5
108
100
AcDbEntity
8
0
100
AcDbPoint
10
-186.435938537521
20
85.427973487873601
30
3.0200000000041753
0
POINT
5
109
100
AcDbEntity
8
0
100
AcDbPoint
10
177.56406146247906
20
74.427973487873587
30
3.0200000000041753
0
POINT
5
110
100
AcDbEntity
8
0
100
AcDbPoint
10
-175.43592660169088
20
-58.572024723987056
30
3.0200000000041753
0
CIRCLE
5
111
100
AcDbEntity
8
0
100
AcDbCircle
10
-77.040135739781661
20
-69.598680409745683
30
3.0200000000050742
40
2.5500000000000029
210
0
220
0
230
1
0
LINE
5
112
100
AcDbEntity
8
0
100
AcDbLine
10
48.459061462478914
20
75.427973487873572
30
3.0200000000053615
11
48.459061462478914
21
79.427973487873544
31
3.0200000000053615
0
LINE
5
113
100
AcDbEntity
8
0
100
AcDbLine
10
188.564061462479
20
77.427973487873601
30
3.0200000000041753
11
188.564061462479
21
-61.572026512126392
31
3.0200000000041753
0
CIRCLE
5
114
100
AcDbEntity
8
0
100
AcDbCircle
10
181.56407882233191
20
-62.572024723987134
30
3.0200000000048481
40
2.5500000000000078
210
0
220
0
230
1
0
ARC
5
115
100
AcDbEntity
8
0
100
AcDbCircle
10
181.56407882233191
20
-62.572024723987134
30
3.0200000000041753
40
4.0000000000000746
210
0
220
-0
230
1
100
AcDbArc
50
90
51
180
0
ARC
5
116
100
AcDbEntity
8
0
100
AcDbCircle
10
180.564061462479
20
-61.572026512126371
30
3.0200000000041753
40
8.0000000000000249
210
0
220
0
230
1
100
AcDbArc
50
270
51
360
0
CIRCLE
5
117
100
AcDbEntity
8
0
100
AcDbCircle
10
-179.43592660169094
20
-62.572024723987134
30
3.0200000000050742
40
2.5500000000000012
210
0
220
0
230
1
0
LINE
5
118
100
AcDbEntity
8
0
100
AcDbLine
10
-186.435938537521
20
85.427973487873601
30
3.0200000000041789
11
-186.435938537521
21
64.697973487873597
31
3.0200000000041767
0
CIRCLE
5
119
100
AcDbEntity
8
0
100
AcDbCircle
10
27.993738387113396
20
-69.598680409745683
30
3.0200000000050742
40
2.5499999999999923
210
0
220
0
230
1
0
LINE
5
120
100
AcDbEntity
8
0
100
AcDbLine
10
23.103000383444439
20
-70.638238863834459
30
3.0200000000041753
11
22.271353620173429
21
-66.725648460899237
31
3.0200000000041753
0
LINE
5
121
100
AcDbEntity
8
0
100
AcDbLine
10
-74.699438537521203
20
79.427973487873544
30
3.0200000000057847
11
-74.699438537521203
21
75.427973487873572
31
3.02000000000282
0
LINE
5
122
100
AcDbEntity
8
0
100
AcDbLine
10
-84.699438537521203
20
75.427973487873572
30
3.0200000000024847
11
-84.699438537521203
21
79.427973487873544
31
3.0200000000024847
0
LINE
5
123
100
AcDbEntity
8
0
100
AcDbLine
10
-81.930873743450618
20
-68.559121955656863
30
3.0200000000041753
11
-81.099226980179608
21
-64.646531552721626
31
3.0200000000041753
0
LINE
5
124
100
AcDbEntity
8
0
100
AcDbLine
10
1.2992609680821232
20
-81.406810314703193
30
3.0200000000041753
11
56.977541184852711
21
-69.572026512126385
31
3.0200000000041753
0
CIRCLE
5
125
100
AcDbEntity
8
0
100
AcDbCircle
10
43.459061462478914
20
79.427973487873544
30
3.0200000000037113
40
2.5499999999999994
210
0
220
0
230
1
0
LINE
5
126
100
AcDbEntity
8
0
100
AcDbLine
10
38.459061462478914
20
75.427973487873572
30
3.0200000000034288
11
48.459061462478914
21
75.427973487873572
31
3.0200000000053615
0
ARC
5
127
100
AcDbEntity
8
0
100
AcDbCircle
10
-0.36403255846060745
20
-73.581629508821266
30
3.0200000000041753
40
8.000000000011358
210
0
220
0
230
1
100
AcDbArc
50
270.00000000000409
51
281.99999999998749
0
ARC
5
128
100
AcDbEntity
8
0
100
AcDbCircle
10
-0.57424102899126694
20
-71.581629508827689
30
3.0200000000041753
40
4.0000000000049418
210
-0
220
0
230
1
100
AcDbArc
50
270.00000000001017
51
281.99999999999505
0
CIRCLE
5
129
100
AcDbEntity
8
0
100
AcDbCircle
10
-79.699438537521203
20
79.427973487873544
30
3.0200000000037113
40
2.5499999999999994
210
0
220
0
230
1
0
ARC
5
130
100
AcDbEntity
8
0
100
AcDbCircle
10
-48.682364794210073
20
-73.581629508847072
30
3.0200000000041753
40
7.9999999999855618
210
0
220
0
230
1
100
AcDbArc
50
257.99999999999199
51
270.00000000001324
0
ARC
5
131
100
AcDbEntity
8
0
100
AcDbCircle
10
-179.43593853752111
20
78.427973487873643
30
3.0200000000041753
40
4.0000000000000568
210
-0
220
0
230
1
100
AcDbArc
50
270
51
360
0
ARC
5
132
100
AcDbEntity
8
0
100
AcDbCircle
10
-178.43593853752105
20
-61.572026512126371
30
3.0200000000041753
40
7.9999999999999716
210
0
220
0
230
1
100
AcDbArc
50
180
51
270
0
ARC
5
133
100
AcDbEntity
8
0
100
AcDbCircle
10
-178.43593853752105
20
77.427973487873629
30
3.0200000000041753
40
7.9999999999999716
210
0
220
-0
230
1
100
AcDbArc
50
90
51
180
0
LINE
5
134
100
AcDbEntity
8
0
100
AcDbLine
10
-48.682364794208226
20
-81.581629508832648
30
3.0200000000041753
11
-0.36403255846003901
21
-81.581629508832634
31
3.0200000000041753
0
LINE
5
135
100
AcDbEntity
8
0
100
AcDbLine
10
-106.02393853752098
20
-69.572026512126399
30
3.0200000000041753
11
-50.345658320750246
21
-81.406810314703165
31
3.0200000000041753
0
CIRCLE
5
136
100
AcDbEntity
8
0
100
AcDbCircle
10
181.56406146247912
20
78.427973487873643
30
3.0200000000048481
40
2.5499999999999998
210
0
220
0
230
1
0
ARC
5
137
100
AcDbEntity
8
0
100
AcDbCircle
10
180.564061462479
20
77.427973487873629
30
3.0200000000041753
40
7.9999999999999716
210
-0
220
0
230
1
100
AcDbArc
50
0
51
90
0
ARC
5
138
100
AcDbEntity
8
0
100
AcDbCircle
10
181.56406146247912
20
78.427973487873643
30
3.0200000000041753
40
4.0000000000000568
210
0
220
0
230
1
100
AcDbArc
50
180
51
270
0
LINE
5
139
100
AcDbEntity
8
0
100
AcDbLine
10
-178.43593853752105
20
85.427973487873601
30
3.0200000000041753
11
180.564061462479
21
85.427973487873601
31
3.0200000000041753
0
LINE
5
140
100
AcDbEntity
8
0
100
AcDbLine
10
-186.435938537521
20
-61.572026512126392
30
3.0200000000041753
11
-186.435938537521
21
77.427973487873601
31
3.0200000000041753
0
CIRCLE
5
141
100
AcDbEntity
8
0
100
AcDbCircle
10
-179.43593853752111
20
78.427973487873643
30
3.0200000000048481
40
2.5499999999999998
210
0
220
0
230
1
0
ARC
5
142
100
AcDbEntity
8
0
100
AcDbCircle
10
-179.43592660169094
20
-62.572024723987134
30
3.0200000000041753
40
4.0000000000000568
210
0
220
-0
230
1
100
AcDbArc
50
0
51
90
0
ARC
5
143
100
AcDbEntity
8
0
100
AcDbCircle
10
-48.472156323676998
20
-71.581629508827632
30
3.0200000000041753
40
4.0000000000049623
210
0
220
0
230
1
100
AcDbArc
50
258.00000000000512
51
269.99999999998983
0
LINE
5
144
100
AcDbEntity
8
0
100
AcDbLine
10
-74.699438537521203
20
75.427973487873572
30
3.02000000000282
11
-84.699438537521203
21
75.427973487873572
31
3.0200000000024847
0
LINE
5
145
100
AcDbEntity
8
0
100
AcDbLine
10
-81.099226980179608
20
-64.646531552721626
30
3.0200000000041753
11
-71.317750972841552
21
-66.725648460899265
31
3.0200000000041753
0
LINE
5
146
100
AcDbEntity
8
0
100
AcDbLine
10
32.052829627511485
20
-64.646531552721598
30
3.0200000000041753
11
32.884476390782496
21
-68.559121955656863
31
3.0200000000041753
0
LINE
5
147
100
AcDbEntity
8
0
100
AcDbLine
10
22.271353620173429
20
-66.725648460899237
30
3.0200000000041753
11
32.052829627511485
21
-64.646531552721598
31
3.0200000000041753
0
LINE
5
148
100
AcDbEntity
8
0
100
AcDbLine
10
38.459061462478914
20
79.427973487873544
30
3.0200000000402936
11
38.459061462478914
21
75.427973487873572
31
3.0200000000034288
0
LINE
5
149
100
AcDbEntity
8
0
100
AcDbLine
10
-48.472156323677709
20
-75.581629508832606
30
3.0200000000041753
11
-0.5742410289905564
21
-75.581629508832634
31
3.0200000000041753
0
LINE
5
150
100
AcDbEntity
8
0
100
AcDbLine
10
-81.099226980179608
20
-64.646531552721626
30
3.0200000000041753
11
-71.317750972841552
21
-66.725648460899265
31
3.0200000000041753
0
ARC
5
151
100
AcDbEntity
8
0
100
AcDbCircle
10
-48.472156323676998
20
-71.581629508827632
30
3.0200000000041753
40
4.0000000000049623
210
0
220
0
230
1
100
AcDbArc
50
258.00000000000512
51
269.99999999998983
0
ARC
5
152
100
AcDbEntity
8
0
100
AcDbCircle
10
-179.43593853752111
20
78.427973487873643
30
3.0200000000041753
40
4.0000000000000568
210
-0
220
0
230
1
100
AcDbArc
50
270
51
360
0
CIRCLE
5
153
100
AcDbEntity
8
0
100
AcDbCircle
10
-179.43592660169094
20
-62.572024723987134
30
3.0200000000050742
40
2.5500000000000012
210
0
220
0
230
1
0
ARC
5
154
100
AcDbEntity
8
0
100
AcDbCircle
10
-0.36403255846060745
20
-73.581629508821266
30
3.0200000000041753
40
8.000000000011358
210
0
220
0
230
1
100
AcDbArc
50
270.00000000000409
51
281.99999999998749
0
ARC
5
155
100
AcDbEntity
8
0
100
AcDbCircle
10
-179.43592660169094
20
-62.572024723987134
30
3.0200000000041753
40
4.0000000000000568
210
0
220
-0
230
1
100
AcDbArc
50
0
51
90
0
LINE
5
156
100
AcDbEntity
8
0
100
AcDbLine
10
1.2992609680821232
20
-81.406810314703193
30
3.0200000000041753
11
56.977541184852711
21
-69.572026512126385
31
3.0200000000041753
0
ARC
5
157
100
AcDbEntity
8
0
100
AcDbCircle
10
-48.682364794210073
20
-73.581629508847072
30
3.0200000000041753
40
7.9999999999855618
210
0
220
0
230
1
100
AcDbArc
50
257.99999999999199
51
270.00000000001324
0
CIRCLE
5
158
100
AcDbEntity
8
0
100
AcDbCircle
10
-179.43593853752111
20
78.427973487873643
30
3.0200000000048481
40
2.5499999999999998
210
0
220
0
230
1
0
LINE
5
159
100
AcDbEntity
8
0
100
AcDbLine
10
-81.930873743450618
20
-68.559121955656863
30
3.0200000000041753
11
-81.099226980179608
21
-64.646531552721626
31
3.0200000000041753
0
ARC
5
160
100
AcDbEntity
8
0
100
AcDbCircle
10
-178.43593853752105
20
77.427973487873629
30
3.0200000000041753
40
7.9999999999999716
210
0
220
-0
230
1
100
AcDbArc
50
90
51
180
0
CIRCLE
5
161
100
AcDbEntity
8
0
100
AcDbCircle
10
-77.040135739781661
20
-69.598680409745683
30
3.0200000000050742
40
2.5500000000000029
210
0
220
0
230
1
0
ARC
5
162
100
AcDbEntity
8
0
100
AcDbCircle
10
-178.43593853752105
20
-61.572026512126371
30
3.0200000000041753
40
7.9999999999999716
210
0
220
0
230
1
100
AcDbArc
50
180
51
270
0
LINE
5
163
100
AcDbEntity
8
0
100
AcDbLine
10
-186.435938537521
20
85.427973487873601
30
3.0200000000041789
11
-186.435938537521
21
64.697973487873597
31
3.0200000000041767
0
LINE
5
164
100
AcDbEntity
8
0
100
AcDbLine
10
-48.682364794208226
20
-81.581629508832648
30
3.0200000000041753
11
-0.36403255846003901
21
-81.581629508832634
31
3.0200000000041753
0
LINE
5
165
100
AcDbEntity
8
0
100
AcDbLine
10
-84.699438537521203
20
75.427973487873572
30
3.0200000000024847
11
-84.699438537521203
21
79.427973487873544
31
3.0200000000024847
0
ARC
5
166
100
AcDbEntity
8
0
100
AcDbCircle
10
-0.57424102899126694
20
-71.581629508827689
30
3.0200000000041753
40
4.0000000000049418
210
-0
220
0
230
1
100
AcDbArc
50
270.00000000001017
51
281.99999999999505
0
LINE
5
167
100
AcDbEntity
8
0
100
AcDbLine
10
-48.472156323677709
20
-75.581629508832606
30
3.0200000000041753
11
-0.5742410289905564
21
-75.581629508832634
31
3.0200000000041753
0
CIRCLE
5
168
100
AcDbEntity
8
0
100
AcDbCircle
10
-79.699438537521203
20
79.427973487873544
30
3.0200000000037113
40
2.5499999999999994
210
0
220
0
230
1
0
LINE
5
169
100
AcDbEntity
8
0
100
AcDbLine
10
-106.02393853752098
20
-69.572026512126399
30
3.0200000000041753
11
-50.345658320750246
21
-81.406810314703165
31
3.0200000000041753
0
LINE
5
170
100
AcDbEntity
8
0
100
AcDbLine
10
-74.699438537521203
20
75.427973487873572
30
3.02000000000282
11
-84.699438537521203
21
75.427973487873572
31
3.0200000000024847
0
CIRCLE
5
171
100
AcDbEntity
8
0
100
AcDbCircle
10
43.459061462478914
20
79.427973487873544
30
3.0200000000037113
40
2.5499999999999994
210
0
220
0
230
1
0
LINE
5
172
100
AcDbEntity
8
0
100
AcDbLine
10
38.459061462478914
20
79.427973487873544
30
3.0200000000402936
11
38.459061462478914
21
75.427973487873572
31
3.0200000000034288
0
LINE
5
173
100
AcDbEntity
8
0
100
AcDbLine
10
48.459061462478914
20
75.427973487873572
30
3.0200000000053615
11
48.459061462478914
21
79.427973487873544
31
3.0200000000053615
0
LINE
5
174
100
AcDbEntity
8
0
100
AcDbLine
10
38.459061462478914
20
75.427973487873572
30
3.0200000000034288
11
48.459061462478914
21
75.427973487873572
31
3.0200000000053615
0
LINE
5
175
100
AcDbEntity
8
0
100
AcDbLine
10
-74.699438537521203
20
79.427973487873544
30
3.0200000000057847
11
-74.699438537521203
21
75.427973487873572
31
3.02000000000282
0
ARC
5
176
100
AcDbEntity
8
0
100
AcDbCircle
10
181.56407882233191
20
-62.572024723987134
30
3.0200000000041753
40
4.0000000000000746
210
0
220
-0
230
1
100
AcDbArc
50
90
51
180
0
LINE
5
177
100
AcDbEntity
8
0
100
AcDbLine
10
-178.43593853752105
20
85.427973487873601
30
3.0200000000041753
11
180.564061462479
21
85.427973487873601
31
3.0200000000041753
0
ARC
5
178
100
AcDbEntity
8
0
100
AcDbCircle
10
180.564061462479
20
-61.572026512126371
30
3.0200000000041753
40
8.0000000000000249
210
0
220
0
230
1
100
AcDbArc
50
270
51
360
0
ARC
5
179
100
AcDbEntity
8
0
100
AcDbCircle
10
181.56406146247912
20
78.427973487873643
30
3.0200000000041753
40
4.0000000000000568
210
0
220
0
230
1
100
AcDbArc
50
180
51
270
0
LINE
5
180
100
AcDbEntity
8
0
100
AcDbLine
10
188.564061462479
20
77.427973487873601
30
3.0200000000041753
11
188.564061462479
21
-61.572026512126392
31
3.0200000000041753
0
ARC
5
181
100
AcDbEntity
8
0
100
AcDbCircle
10
180.564061462479
20
77.427973487873629
30
3.0200000000041753
40
7.9999999999999716
210
-0
220
0
230
1
100
AcDbArc
50
0
51
90
0
CIRCLE
5
182
100
AcDbEntity
8
0
100
AcDbCircle
10
181.56407882233191
20
-62.572024723987134
30
3.0200000000048481
40
2.5500000000000078
210
0
220
0
230
1
0
LINE
5
183
100
AcDbEntity
8
0
100
AcDbLine
10
23.103000383444439
20
-70.638238863834459
30
3.0200000000041753
11
22.271353620173429
21
-66.725648460899237
31
3.0200000000041753
0
CIRCLE
5
184
100
AcDbEntity
8
0
100
AcDbCircle
10
27.993738387113396
20
-69.598680409745683
30
3.0200000000050742
40
2.5499999999999923
210
0
220
0
230
1
0
LINE
5
185
100
AcDbEntity
8
0
100
AcDbLine
10
22.271353620173429
20
-66.725648460899237
30
3.0200000000041753
11
32.052829627511485
21
-64.646531552721598
31
3.0200000000041753
0
LINE
5
186
100
AcDbEntity
8
0
100
AcDbLine
10
-186.435938537521
20
-61.572026512126392
30
3.0200000000041753
11
-186.435938537521
21
77.427973487873601
31
3.0200000000041753
0
LINE
5
187
100
AcDbEntity
8
0
100
AcDbLine
10
32.052829627511485
20
-64.646531552721598
30
3.0200000000041753
11
32.884476390782496
21
-68.559121955656863
31
3.0200000000041753
0
CIRCLE
5
188
100
AcDbEntity
8
0
100
AcDbCircle
10
181.56406146247912
20
78.427973487873643
30
3.0200000000048481
40
2.5499999999999998
210
0
220
0
230
1
0
LINE
5
189
100
AcDbEntity
8
0
100
AcDbLine
10
-84.699438537521203
20
79.427973487873544
30
3.0200000000024847
11
-175.43593853752105
21
79.427973487873544
31
3.0200000000041753
0
LINE
5
190
100
AcDbEntity
8
0
100
AcDbLine
10
-180.43593853752105
20
-58.572024723987056
30
3.0200000000041753
11
-180.43593853752105
21
74.427975276012944
31
3.0200000000041753
0
LINE
5
191
100
AcDbEntity
8
0
100
AcDbLine
10
-180.43593853752105
20
74.427975276012944
30
3.0200000000041753
11
-179.43593852261989
21
74.427975276012944
31
3.0200000000041753
0
LINE
5
192
100
AcDbEntity
8
0
100
AcDbLine
10
-175.43593853752105
20
79.427973487873544
30
3.0200000000033302
11
-175.43593853752105
21
78.427973472972383
31
3.0200000000033302
0
LINE
5
193
100
AcDbEntity
8
0
100
AcDbLine
10
-74.699438537521203
20
79.427973487873544
30
3.0200000000043028
11
38.459561462478803
21
79.427973487873544
31
3.0200000000043028
0
LINE
5
194
100
AcDbEntity
8
0
100
AcDbLine
10
48.459061462478914
20
79.427973487873544
30
3.0200000000053615
11
177.56406146247889
21
79.427973487873544
31
3.0200000000053615
0
LINE
5
195
100
AcDbEntity
8
0
100
AcDbLine
10
177.56406146247889
20
79.427973487873544
30
3.0200000000053615
11
177.56406146247889
21
78.427973472972383
31
3.0200000000053615
0
LINE
5
196
100
AcDbEntity
8
0
100
AcDbLine
10
182.56406146247906
20
74.427973487873587
30
3.0200000000041882
11
182.56406146247906
21
-58.572026512126421
31
3.0200000000041882
0
LINE
5
197
100
AcDbEntity
8
0
100
AcDbLine
10
182.56406146247906
20
74.427973487873587
30
3.0200000000041882
11
181.5640614475779
21
74.427973487873587
31
3.0200000000041882
0
LINE
5
198
100
AcDbEntity
8
0
100
AcDbLine
10
177.56407882233185
20
-63.572026512126399
30
3.0200000000041753
11
56.347078822331831
21
-63.572026512126399
31
3.0200000000041753
0
LINE
5
199
100
AcDbEntity
8
0
100
AcDbLine
10
-105.39331312592701
20
-63.572026512126399
30
3.0200000000041753
11
-175.43631312592703
21
-63.572026512126399
31
3.0200000000041753
0
LINE
5
200
100
AcDbEntity
8
0
100
AcDbLine
10
-179.43592660169094
20
-58.572024723987056
30
3.0200000000041882
11
-180.43593853752105
21
-58.572024723987056
31
3.0200000000041753
0
LINE
5
201
100
AcDbEntity
8
0
100
AcDbLine
10
-175.43592660169088
20
-62.572024723987063
30
3.0200000000041882
11
-175.43592660169088
21
-63.572026512126399
31
3.0200000000041753
0
LINE
5
202
100
AcDbEntity
8
0
100
AcDbLine
10
56.977541184852711
20
-69.572026512126385
30
3.0200000000041753
11
180.56454118485271
21
-69.572026512126158
31
3.0200000000041753
0
LINE
5
203
100
AcDbEntity
8
0
100
AcDbLine
10
-178.43593853752105
20
-69.572026512126342
30
3.0200000000041882
11
-106.02393853752103
21
-69.572026512126342
31
3.0200000000041882
0
LINE
5
204
100
AcDbEntity
8
0
100
AcDbLine
10
-71.317750972841552
20
-66.725648460899265
30
3.0200000000041882
11
-72.14939773611259
21
-70.638238863834488
31
3.0200000000041882
0
LINE
5
205
100
AcDbEntity
8
0
100
AcDbLine
10
-71.317750972841552
20
-66.725648460899265
30
3.0200000000041882
11
-67.317750972841552
21
-66.725648460899265
31
3.0200000000041882
6
DASHED
0
LINE
5
206
100
AcDbEntity
8
0
100
AcDbLine
10
-105.39331312592701
20
-63.572026512126399
30
3.0200000000041753
11
-81.930486627125205
21
-68.559204239771987
31
3.0200000000041753
0
LINE
5
207
100
AcDbEntity
8
0
100
AcDbLine
10
-72.149397736112704
20
-70.638238863834459
30
3.0200000000041882
11
-49.303782373373934
21
-75.494224314574041
31
3.0200000000041882
0
LINE
5
208
100
AcDbEntity
8
0
100
AcDbLine
10
0.25740573428045366
20
-75.4942199117678
30
3.0200000000041882
11
23.103021097019226
21
-70.638234461028219
31
3.0200000000041882
0
LINE
5
209
100
AcDbEntity
8
0
100
AcDbLine
10
32.884476390782496
20
-68.559121955656863
30
3.0200000000041882
11
56.347302889584292
21
-63.571944228011276
31
3.0200000000041882
0
LINE
5
210
100
AcDbEntity
8
0
100
AcDbLine
10
177.56407882233185
20
-62.572024723987063
30
3.0200000000041882
11
177.56407882233185
21
-63.572026512126399
31
3.0200000000041753
0
LINE
5
211
100
AcDbEntity
8
0
100
AcDbLine
10
182.56406146247906
20
-58.572026512126421
30
3.0200000000041882
11
181.5640614475779
21
-58.572026512126421
31
3.0200000000041882
0
ENDSEC
0
SECTION
2
OBJECTS
0
DICTIONARY
5
C
100
AcDbDictionary
3
ACAD_GROUP
350
D
3
ACAD_MLINESTYLE
350
17
0
DICTIONARY
5
D
100
AcDbDictionary
0
DICTIONARY
5
1A
330
C
100
AcDbDictionary
0
DICTIONARY
5
17
100
AcDbDictionary
0
ENDSEC
0
EOF
