0
SECTION
2
HEADER
9
$INSUNITS
70
4
9
$ACADVER
1
AC1014
9
$HANDSEED
5
FFFF
0
ENDSEC
0
SECTION
2
TABLES
0
TABLE
2
VPORT
5
8
100
AcDbSymbolTable
0
ENDTAB
0
TABLE
2
LTYPE
5
5
100
AcDbSymbolTable
0
LTYPE
5
14
100
AcDbSymbolTableRecord
100
AcDbLinetypeTableRecord
2
BYBLOCK
70
0
0
LTYPE
5
15
100
AcDbSymbolTableRecord
100
AcDbLinetypeTableRecord
2
BYLAYER
70
0
0
LTYPE
5
16
100
AcDbSymbolTableRecord
100
AcDbLinetypeTableRecord
2
DASHED
70
0
3
Dashed __ __ __ __ __ __ __ __ __ __ __ __ __ _
72
65
73
2
40
0.75
49
0.5
74
0
49
-0.25
74
0
0
ENDTAB
0
TABLE
2
LAYER
5
2
100
AcDbSymbolTable
70
2
0
LAYER
5
50
100
AcDbSymbolTableRecord
100
AcDbLayerTableRecord
2
0
70
0
62
7
6
CONTINUOUS
0
ENDTAB
0
TABLE
2
STYLE
5
3
100
AcDbSymbolTable
70
1
0
STYLE
5
11
100
AcDbSymbolTableRecord
100
AcDbTextStyleTableRecord
2
STANDARD
70
0
0
ENDTAB
0
TABLE
2
VIEW
5
6
100
AcDbSymbolTable
70
0
0
ENDTAB
0
TABLE
2
UCS
5
7
100
AcDbSymbolTable
70
0
0
ENDTAB
0
TABLE
2
APPID
5
9
100
AcDbSymbolTable
70
2
0
APPID
5
12
100
AcDbSymbolTableRecord
100
AcDbRegAppTableRecord
2
ACAD
70
0
0
ENDTAB
0
TABLE
2
DIMSTYLE
5
A
100
AcDbSymbolTable
70
1
0
ENDTAB
0
TABLE
2
BLOCK_RECORD
5
1
100
AcDbSymbolTable
70
1
0
BLOCK_RECORD
5
1F
100
AcDbSymbolTableRecord
100
AcDbBlockTableRecord
2
*MODEL_SPACE
0
BLOCK_RECORD
5
1B
100
AcDbSymbolTableRecord
100
AcDbBlockTableRecord
2
*PAPER_SPACE
0
ENDTAB
0
ENDSEC
0
SECTION
2
BLOCKS
0
BLOCK
5
20
100
AcDbEntity
100
AcDbBlockBegin
2
*MODEL_SPACE
0
ENDBLK
5
21
100
AcDbEntity
100
AcDbBlockEnd
0
BLOCK
5
1C
100
AcDbEntity
100
AcDbBlockBegin
2
*PAPER_SPACE
0
ENDBLK
5
1D
100
AcDbEntity
100
AcDbBlockEnd
0
ENDSEC
0
SECTION
2
ENTITIES
0
POINT
5
100
100
AcDbEntity
8
0
100
AcDbPoint
10
-411.435938537521
20
85.427973487873601
30
3.0200000000041265
0
POINT
5
101
100
AcDbEntity
8
0
100
AcDbPoint
10
-411.435938537521
20
85.427973487873601
30
-2.0923818857913871e-14
0
LWPOLYLINE
5
102
100
AcDbEntity
8
0
100
AcDbPolyline
90
34
70
1
43
0.0
10
-36.435938537521011
20
77.427973487873601
42
0.41421356237309631
10
-44.435938537520983
20
85.427973487873601
10
-230.61993853752119
20
85.427973487873601
10
-230.61993853752119
20
74.427973487873587
10
-51.435938537521011
20
74.427973487873587
42
-0.41421356237308982
10
-47.435938537520954
20
70.427973487873601
10
-47.43593853752094
20
-54.572026512126399
42
-0.41421356237308982
10
-51.435938537521011
20
-58.572026512126399
10
-169.1786054030697
20
-58.572026512126399
10
-170.30948741414255
20
-58.812402904054522
10
-225.06250053094396
20
-70.450515113235468
42
-0.05240777928305252
10
-226.30997067585056
20
-70.581629508832634
10
-272.7364266768177
20
-70.581629508832606
42
-0.052407779283052632
10
-273.98389682172427
20
-70.45051511323544
10
-328.73690993852563
20
-58.812402904054544
10
-329.86779194959854
20
-58.572026512126421
10
-396.43593853752094
20
-58.572026512126456
42
-0.41421356237309764
10
-400.435938537521
20
-54.572026512126435
10
-400.435938537521
20
70.427973487873601
42
-0.41421356237309764
10
-396.435938537521
20
74.427973487873587
10
-255.61993853752119
20
74.427973487873587
10
-255.61993853752119
20
85.427973487873601
10
-403.43593853752105
20
85.427973487873601
42
0.41421356237310025
10
-411.435938537521
20
77.427973487873601
10
-411.435938537521
20
-61.572026512126413
42
0.41421356237309698
10
-403.43593853752105
20
-69.572026512126428
10
-331.02393853752096
20
-69.572026512126399
10
-275.34565832075083
20
-81.40681031470308
42
0.052407779283035784
10
-273.68236479420875
20
-81.581629508832634
10
-225.36403255845954
20
-81.581629508832634
42
0.052407779283035784
10
-223.70073903191746
20
-81.40681031470308
10
-168.02245881514727
20
-69.572026512126385
10
-44.435938537520983
20
-69.572026512126399
42
0.4142135623730957
10
-36.435938537521011
20
-61.572026512126413
0
CIRCLE
5
103
100
AcDbEntity
8
0
100
AcDbCircle
10
-43.435938537520897
20
78.427973487873643
30
3.0200000000048011
40
2.5499999999999998
210
0
220
0
230
1
0
ARC
5
104
100
AcDbEntity
8
0
100
AcDbCircle
10
-273.68236479420875
20
-73.581629508831725
30
3.0200000000041656
40
8.0000000000008864
210
5.7707086558643567e-17
220
2.7149049695410254e-16
230
1
100
AcDbArc
50
258.00000000000136
51
270
0
CIRCLE
5
105
100
AcDbEntity
8
0
100
AcDbCircle
10
-43.435921177668106
20
-62.572024723987134
30
3.0200000000048361
40
2.5500000000000078
210
0
220
0
230
1
0
ARC
5
106
100
AcDbEntity
8
0
100
AcDbCircle
10
-51.435938537521011
20
70.42797348787353
30
3.0200000000041305
40
4.0000000000000568
210
0
220
-0
230
1
100
AcDbArc
50
0
51
90
0
ARC
5
107
100
AcDbEntity
8
0
100
AcDbCircle
10
-226.30997067585042
20
-64.581629508833743
30
3.0200000000041634
40
5.9999999999988773
210
6.5738408768442248e-30
220
2.7755575615634105e-16
230
1
100
AcDbArc
50
269.99999999999864
51
282.00000000000131
0
LINE
5
108
100
AcDbEntity
8
0
100
AcDbLine
10
-36.435938537521011
20
77.427973487873601
30
3.0200000000041287
11
-36.435938537521011
21
-61.572026512126392
31
3.0200000000041625
0
LINE
5
109
100
AcDbEntity
8
0
100
AcDbLine
10
-47.435938537520954
20
70.427973487873601
30
3.0200000000041305
11
-47.435938537520954
21
-54.572026512126399
31
3.0200000000041611
0
LINE
5
110
100
AcDbEntity
8
0
100
AcDbLine
10
-400.435938537521
20
-54.572026512126435
30
3.0200000000041611
11
-400.43593853752094
21
70.427973487873601
31
3.0200000000041305
0
LINE
5
111
100
AcDbEntity
8
0
100
AcDbLine
10
-411.435938537521
20
-61.572026512126392
30
3.0200000000041625
11
-411.435938537521
21
77.427973487873601
31
3.0200000000041287
0
LINE
5
112
100
AcDbEntity
8
0
100
AcDbLine
10
-328.73690993852563
20
-58.812402904054544
30
3.020000000004162
11
-273.98389682172427
21
-70.450515113235468
31
3.0200000000041651
0
ARC
5
113
100
AcDbEntity
8
0
100
AcDbCircle
10
-272.73642667681781
20
-64.581629508833771
30
3.0200000000041634
40
5.9999999999988587
210
5.7707086558672582e-17
220
2.7149049695418187e-16
230
1
100
AcDbArc
50
257.99999999999864
51
270.00000000000108
0
ARC
5
114
100
AcDbEntity
8
0
100
AcDbCircle
10
-44.435938537520983
20
77.427973487873629
30
3.0200000000041287
40
7.9999999999999716
210
-0
220
0
230
1
100
AcDbArc
50
0
51
90
0
CIRCLE
5
115
100
AcDbEntity
8
0
100
AcDbCircle
10
-197.00626161288653
20
-69.598680409745683
30
9.1604985442795541e-13
40
2.5499999999999923
210
0
220
0
230
1
0
ARC
5
116
100
AcDbEntity
8
0
100
AcDbCircle
10
-225.36403255845954
20
-73.581629508831725
30
3.0200000000041656
40
8.0000000000008953
210
0
220
2.7755575615625807e-16
230
1
100
AcDbArc
50
270
51
281.99999999999864
0
LINE
5
117
100
AcDbEntity
8
0
100
AcDbLine
10
-273.68236479420875
20
-81.581629508832634
30
3.0200000000041678
11
-225.36403255845954
21
-81.581629508832634
31
3.0200000000041678
0
CIRCLE
5
118
100
AcDbEntity
8
0
100
AcDbCircle
10
-43.435938537520897
20
78.427973487873643
30
6.535858395837373e-13
40
2.5499999999999998
210
0
220
0
230
1
0
ARC
5
119
100
AcDbEntity
8
0
100
AcDbCircle
10
-51.435938537521011
20
-54.572026512126328
30
3.0200000000041611
40
4.0000000000000924
210
0
220
2.7755575615628273e-16
230
1
100
AcDbArc
50
270
51
360
0
LINE
5
120
100
AcDbEntity
8
0
100
AcDbLine
10
-403.43593853752105
20
-69.572026512126428
30
3.0200000000041651
11
-331.02393853752096
21
-69.572026512126399
31
3.0200000000041651
0
CIRCLE
5
121
100
AcDbEntity
8
0
100
AcDbCircle
10
-302.04013573978159
20
-69.598680409745683
30
9.1604985442795541e-13
40
2.5500000000000029
210
0
220
0
230
1
0
ARC
5
122
100
AcDbEntity
8
0
100
AcDbCircle
10
-396.435938537521
20
70.427973487873629
30
3.0200000000041305
40
3.9999999999999503
210
0
220
2.7755575615629259e-16
230
1
100
AcDbArc
50
90
51
180
0
CIRCLE
5
123
100
AcDbEntity
8
0
100
AcDbCircle
10
-404.43593853752105
20
78.427973487873643
30
6.535858395837373e-13
40
2.5499999999999998
210
0
220
0
230
1
0
ARC
5
124
100
AcDbEntity
8
0
100
AcDbCircle
10
-403.43593853752111
20
77.427973487873658
30
3.0200000000041287
40
7.9999999999999361
210
2.4651903288157015e-30
220
2.7755575615629135e-16
230
1
100
AcDbArc
50
89.999999999999588
51
180
0
CIRCLE
5
125
100
AcDbEntity
8
0
100
AcDbCircle
10
-404.43593853752105
20
78.427973487873643
30
3.0200000000048011
40
2.5499999999999998
210
0
220
0
230
1
0
LINE
5
126
100
AcDbEntity
8
0
100
AcDbLine
10
-331.02393853752096
20
-69.572026512126399
30
3.0200000000041651
11
-275.34565832075083
21
-81.40681031470308
31
3.0200000000041678
0
LINE
5
127
100
AcDbEntity
8
0
100
AcDbLine
10
-223.70073903191746
20
-81.40681031470308
30
3.0200000000041678
11
-168.02245881514727
21
-69.572026512126371
31
3.0200000000041651
0
LINE
5
128
100
AcDbEntity
8
0
100
AcDbLine
10
-225.06250053094396
20
-70.450515113235468
30
3.0200000000041651
11
-170.30948741414255
21
-58.812402904054544
31
3.020000000004162
0
LINE
5
129
100
AcDbEntity
8
0
100
AcDbLine
10
-170.30948741414255
20
-58.812402904054544
30
3.020000000004162
11
-169.1786054030697
21
-58.572026512126421
31
3.020000000004162
0
ARC
5
130
100
AcDbEntity
8
0
100
AcDbCircle
10
-44.435938537520983
20
-61.572026512126428
30
3.0200000000041625
40
7.9999999999999716
210
0
220
2.7755575615629012e-16
230
1
100
AcDbArc
50
-90
51
0
0
CIRCLE
5
131
100
AcDbEntity
8
0
100
AcDbCircle
10
-43.435921177668106
20
-62.572024723987134
30
6.8812087888172476e-13
40
2.5500000000000078
210
0
220
0
230
1
0
CIRCLE
5
132
100
AcDbEntity
8
0
100
AcDbCircle
10
-302.04013573978159
20
-69.598680409745668
30
3.0200000000050635
40
2.5500000000000029
210
0
220
0
230
1
0
ARC
5
133
100
AcDbEntity
8
0
100
AcDbCircle
10
-396.435938537521
20
-54.57202651212647
30
3.0200000000041611
40
3.9999999999999858
210
0
220
0
230
1
100
AcDbArc
50
180
51
270
0
LINE
5
134
100
AcDbEntity
8
0
100
AcDbLine
10
-328.73690993852563
20
-58.812402904054544
30
3.020000000004162
11
-329.86779194959854
21
-58.572026512126421
31
3.020000000004162
0
ARC
5
135
100
AcDbEntity
8
0
100
AcDbCircle
10
-403.43593853752105
20
-61.572026512126463
30
3.0200000000041625
40
7.9999999999999716
210
0
220
0
230
1
100
AcDbArc
50
180
51
270
0
CIRCLE
5
136
100
AcDbEntity
8
0
100
AcDbCircle
10
-404.43592660169088
20
-62.572024723987134
30
3.0200000000050622
40
2.5500000000000012
210
0
220
0
230
1
0
LINE
5
137
100
AcDbEntity
8
0
100
AcDbLine
10
-272.7364266768177
20
-70.581629508832606
30
3.0200000000041651
11
-226.30997067585056
21
-70.581629508832606
31
3.0200000000041651
0
CIRCLE
5
138
100
AcDbEntity
8
0
100
AcDbCircle
10
-404.43592660169088
20
-62.572024723987134
30
9.143288201491004e-13
40
2.5500000000000012
210
0
220
0
230
1
0
CIRCLE
5
139
100
AcDbEntity
8
0
100
AcDbCircle
10
-197.00626161288653
20
-69.598680409745668
30
3.0200000000050635
40
2.5499999999999923
210
0
220
0
230
1
0
CIRCLE
5
140
100
AcDbEntity
8
0
100
AcDbCircle
10
-304.69943853752113
20
79.427973487873544
30
-4.8352746699225252e-13
40
2.5499999999999994
210
0
220
0
230
1
0
CIRCLE
5
141
100
AcDbEntity
8
0
100
AcDbCircle
10
-304.69943853752113
20
79.427973487873544
30
3.0200000000036642
40
2.5499999999999994
210
0
220
0
230
1
0
CIRCLE
5
142
100
AcDbEntity
8
0
100
AcDbCircle
10
-181.54093853752101
20
79.427973487873544
30
3.0200000000036642
40
2.5499999999999994
210
0
220
0
230
1
0
CIRCLE
5
143
100
AcDbEntity
8
0
100
AcDbCircle
10
-181.54093853752101
20
79.427973487873544
30
-4.8352746699225252e-13
40
2.5499999999999994
210
0
220
0
230
1
0
LINE
5
144
100
AcDbEntity
8
0
100
AcDbLine
10
-411.435938537521
20
85.427973487873601
30
-2.0923818857913871e-14
11
-411.435938537521
21
77.427973487873601
31
-1.8964383979278102e-14
0
ENDSEC
0
SECTION
2
OBJECTS
0
DICTIONARY
5
C
100
AcDbDictionary
3
ACAD_GROUP
350
D
3
ACAD_MLINESTYLE
350
17
0
DICTIONARY
5
D
100
AcDbDictionary
0
DICTIONARY
5
1A
330
C
100
AcDbDictionary
0
DICTIONARY
5
17
100
AcDbDictionary
0
ENDSEC
0
EOF
