0
SECTION
2
HEADER
9
$INSUNITS
70
4
9
$ACADVER
1
AC1014
9
$HANDSEED
5
FFFF
0
ENDSEC
0
SECTION
2
TABLES
0
TABLE
2
VPORT
5
8
100
AcDbSymbolTable
0
ENDTAB
0
TABLE
2
LTYPE
5
5
100
AcDbSymbolTable
0
LTYPE
5
14
100
AcDbSymbolTableRecord
100
AcDbLinetypeTableRecord
2
BYBLOCK
70
0
0
LTYPE
5
15
100
AcDbSymbolTableRecord
100
AcDbLinetypeTableRecord
2
BYLAYER
70
0
0
LTYPE
5
16
100
AcDbSymbolTableRecord
100
AcDbLinetypeTableRecord
2
DASHED
70
0
3
Dashed __ __ __ __ __ __ __ __ __ __ __ __ __ _
72
65
73
2
40
0.75
49
0.5
74
0
49
-0.25
74
0
0
ENDTAB
0
TABLE
2
LAYER
5
2
100
AcDbSymbolTable
70
2
0
LAYER
5
50
100
AcDbSymbolTableRecord
100
AcDbLayerTableRecord
2
0
70
0
62
7
6
CONTINUOUS
0
ENDTAB
0
TABLE
2
STYLE
5
3
100
AcDbSymbolTable
70
1
0
STYLE
5
11
100
AcDbSymbolTableRecord
100
AcDbTextStyleTableRecord
2
STANDARD
70
0
0
ENDTAB
0
TABLE
2
VIEW
5
6
100
AcDbSymbolTable
70
0
0
ENDTAB
0
TABLE
2
UCS
5
7
100
AcDbSymbolTable
70
0
0
ENDTAB
0
TABLE
2
APPID
5
9
100
AcDbSymbolTable
70
2
0
APPID
5
12
100
AcDbSymbolTableRecord
100
AcDbRegAppTableRecord
2
ACAD
70
0
0
ENDTAB
0
TABLE
2
DIMSTYLE
5
A
100
AcDbSymbolTable
70
1
0
ENDTAB
0
TABLE
2
BLOCK_RECORD
5
1
100
AcDbSymbolTable
70
1
0
BLOCK_RECORD
5
1F
100
AcDbSymbolTableRecord
100
AcDbBlockTableRecord
2
*MODEL_SPACE
0
BLOCK_RECORD
5
1B
100
AcDbSymbolTableRecord
100
AcDbBlockTableRecord
2
*PAPER_SPACE
0
ENDTAB
0
ENDSEC
0
SECTION
2
BLOCKS
0
BLOCK
5
20
100
AcDbEntity
100
AcDbBlockBegin
2
*MODEL_SPACE
0
ENDBLK
5
21
100
AcDbEntity
100
AcDbBlockEnd
0
BLOCK
5
1C
100
AcDbEntity
100
AcDbBlockBegin
2
*PAPER_SPACE
0
ENDBLK
5
1D
100
AcDbEntity
100
AcDbBlockEnd
0
ENDSEC
0
SECTION
2
ENTITIES
0
LINE
5
100
100
AcDbEntity
8
0
100
AcDbLine
10
-398.70073903191786
20
-81.406810314703193
30
4.194977698546154e-12
11
-343.02245881514727
21
-69.572026512126385
31
4.1922021409845911e-12
0
ARC
5
101
100
AcDbEntity
8
0
100
AcDbCircle
10
-219.435938537521
20
77.427973487873629
30
4.1561198926842735e-12
40
7.9999999999999716
210
-0
220
0
230
1
100
AcDbArc
50
0
51
90
0
ARC
5
102
100
AcDbEntity
8
0
100
AcDbCircle
10
-219.435938537521
20
77.427973487873629
30
4.1561198926842735e-12
40
7.9999999999999716
210
-0
220
0
230
1
100
AcDbArc
50
0
51
90
0
LINE
5
103
100
AcDbEntity
8
0
100
AcDbLine
10
-506.02393853752096
20
-69.572026512126399
30
4.1922021409845911e-12
11
-450.34565832075026
21
-81.406810314703165
31
4.194977698546154e-12
0
ARC
5
104
100
AcDbEntity
8
0
100
AcDbCircle
10
-578.435938537521
20
-61.572026512126371
30
4.1899816949353408e-12
40
7.9999999999999716
210
0
220
0
230
1
100
AcDbArc
50
180
51
270
0
LINE
5
105
100
AcDbEntity
8
0
100
AcDbLine
10
-211.435938537521
20
77.427973487873601
30
4.1561198926842735e-12
11
-211.435938537521
21
-61.572026512126392
31
4.1899816949353408e-12
0
CIRCLE
5
106
100
AcDbEntity
8
0
100
AcDbCircle
10
-218.43593853752088
20
78.427973487873643
30
4.8283599340948058e-12
40
2.5499999999999998
210
0
220
0
230
1
0
ARC
5
107
100
AcDbEntity
8
0
100
AcDbCircle
10
-448.68236479421006
20
-73.581629508847072
30
4.1927572524969037e-12
40
7.9999999999855618
210
5.7707086558798072e-17
220
2.7149049695461328e-16
230
1
100
AcDbArc
50
257.99999999999176
51
270.00000000001302
0
CIRCLE
5
108
100
AcDbEntity
8
0
100
AcDbCircle
10
-477.04013573978165
20
-69.598680409745683
30
5.0909276794186553e-12
40
2.5500000000000029
210
0
220
0
230
1
0
CIRCLE
5
109
100
AcDbEntity
8
0
100
AcDbCircle
10
-579.43592660169099
20
-62.572024723987134
30
5.0892623448817176e-12
40
2.5500000000000012
210
0
220
0
230
1
0
LINE
5
110
100
AcDbEntity
8
0
100
AcDbLine
10
-398.70073903191786
20
-81.406810314703193
30
4.194977698546154e-12
11
-343.02245881514727
21
-69.572026512126385
31
4.1922021409845911e-12
0
LINE
5
111
100
AcDbEntity
8
0
100
AcDbLine
10
-578.435938537521
20
-69.572026512126342
30
4.2049697057677804e-12
11
-506.02393853752108
21
-69.572026512126342
31
4.2049697057677804e-12
0
CIRCLE
5
112
100
AcDbEntity
8
0
100
AcDbCircle
10
-372.00626161288659
20
-69.598680409745683
30
5.0909276794186553e-12
40
2.5499999999999923
210
0
220
0
230
1
0
ARC
5
113
100
AcDbEntity
8
0
100
AcDbCircle
10
-219.435938537521
20
-61.572026512126371
30
4.1899816949353408e-12
40
8.0000000000000249
210
0
220
2.775557561562883e-16
230
1
100
AcDbArc
50
270
51
360
0
LINE
5
114
100
AcDbEntity
8
0
100
AcDbLine
10
-211.435938537521
20
77.427973487873601
30
4.1561198926842735e-12
11
-211.435938537521
21
-61.572026512126392
31
4.1899816949353408e-12
0
CIRCLE
5
115
100
AcDbEntity
8
0
100
AcDbCircle
10
-372.00626161288659
20
-69.598680409745683
30
5.0909276794186553e-12
40
2.5499999999999923
210
0
220
0
230
1
0
ARC
5
116
100
AcDbEntity
8
0
100
AcDbCircle
10
-448.68236479421006
20
-73.581629508847072
30
4.1927572524969037e-12
40
7.9999999999855618
210
5.7707086558798072e-17
220
2.7149049695461328e-16
230
1
100
AcDbArc
50
257.99999999999176
51
270.00000000001302
0
CIRCLE
5
117
100
AcDbEntity
8
0
100
AcDbCircle
10
-579.43592660169099
20
-62.572024723987134
30
5.0892623448817176e-12
40
2.5500000000000012
210
0
220
0
230
1
0
CIRCLE
5
118
100
AcDbEntity
8
0
100
AcDbCircle
10
-218.43593853752088
20
78.427973487873643
30
4.8283599340948058e-12
40
2.5499999999999998
210
0
220
0
230
1
0
LINE
5
119
100
AcDbEntity
8
0
100
AcDbLine
10
-586.435938537521
20
-61.572026512126392
30
4.1899816949353408e-12
11
-586.435938537521
21
77.427973487873601
31
4.1561198926842735e-12
0
LINE
5
120
100
AcDbEntity
8
0
100
AcDbLine
10
-586.435938537521
20
-61.572026512126392
30
4.1899816949353408e-12
11
-586.435938537521
21
77.427973487873601
31
4.1561198926842735e-12
0
CIRCLE
5
121
100
AcDbEntity
8
0
100
AcDbCircle
10
-218.43592117766809
20
-62.572024723987134
30
4.8633319593704982e-12
40
2.5500000000000078
210
0
220
0
230
1
0
CIRCLE
5
122
100
AcDbEntity
8
0
100
AcDbCircle
10
-218.43592117766809
20
-62.572024723987134
30
4.8633319593704982e-12
40
2.5500000000000078
210
0
220
0
230
1
0
LINE
5
123
100
AcDbEntity
8
0
100
AcDbLine
10
-578.435938537521
20
85.427973487873601
30
4.1538994466350232e-12
11
-219.435938537521
21
85.427973487873601
31
4.1538994466350232e-12
0
LINE
5
124
100
AcDbEntity
8
0
100
AcDbLine
10
-578.435938537521
20
85.427973487873601
30
4.1538994466350232e-12
11
-219.435938537521
21
85.427973487873601
31
4.1538994466350232e-12
0
ARC
5
125
100
AcDbEntity
8
0
100
AcDbCircle
10
-219.435938537521
20
-61.572026512126371
30
4.1899816949353408e-12
40
8.0000000000000249
210
0
220
2.775557561562883e-16
230
1
100
AcDbArc
50
270
51
360
0
LINE
5
126
100
AcDbEntity
8
0
100
AcDbLine
10
-343.02245881514727
20
-69.572026512126385
30
4.1922021409845911e-12
11
-219.43545881514729
21
-69.572026512126158
31
4.1922021409845911e-12
0
LINE
5
127
100
AcDbEntity
8
0
100
AcDbLine
10
-506.02393853752096
20
-69.572026512126399
30
4.1922021409845911e-12
11
-450.34565832075026
21
-81.406810314703165
31
4.194977698546154e-12
0
ARC
5
128
100
AcDbEntity
8
0
100
AcDbCircle
10
-578.435938537521
20
-61.572026512126371
30
4.1899816949353408e-12
40
7.9999999999999716
210
0
220
0
230
1
100
AcDbArc
50
180
51
270
0
CIRCLE
5
129
100
AcDbEntity
8
0
100
AcDbCircle
10
-477.04013573978165
20
-69.598680409745683
30
5.0909276794186553e-12
40
2.5500000000000029
210
0
220
0
230
1
0
ARC
5
130
100
AcDbEntity
8
0
100
AcDbCircle
10
-400.36403255846062
20
-73.581629508821266
30
4.1927572524969037e-12
40
8.000000000011358
210
-1.9721522630469299e-29
220
2.775557561558951e-16
230
1
100
AcDbArc
50
270.00000000000409
51
281.99999999998772
0
LINE
5
131
100
AcDbEntity
8
0
100
AcDbLine
10
-448.68236479420824
20
-81.581629508832648
30
4.194977698546154e-12
11
-400.36403255846005
21
-81.581629508832634
31
4.194977698546154e-12
0
ARC
5
132
100
AcDbEntity
8
0
100
AcDbCircle
10
-400.36403255846062
20
-73.581629508821266
30
4.1927572524969037e-12
40
8.000000000011358
210
-1.9721522630469299e-29
220
2.775557561558951e-16
230
1
100
AcDbArc
50
270.00000000000409
51
281.99999999998772
0
LINE
5
133
100
AcDbEntity
8
0
100
AcDbLine
10
-448.68236479420824
20
-81.581629508832648
30
4.194977698546154e-12
11
-400.36403255846005
21
-81.581629508832634
31
4.194977698546154e-12
0
CIRCLE
5
134
100
AcDbEntity
8
0
100
AcDbCircle
10
-579.43593853752111
20
78.427973487873643
30
4.8283599340948058e-12
40
2.5499999999999998
210
0
220
0
230
1
0
CIRCLE
5
135
100
AcDbEntity
8
0
100
AcDbCircle
10
-479.69943853752119
20
79.427973487873544
30
3.6914915568786455e-12
40
2.5499999999999994
210
0
220
0
230
1
0
ARC
5
136
100
AcDbEntity
8
0
100
AcDbCircle
10
-578.435938537521
20
77.427973487873629
30
4.1561198926842735e-12
40
7.9999999999999716
210
0
220
2.7755575615629012e-16
230
1
100
AcDbArc
50
90
51
180
0
LINE
5
137
100
AcDbEntity
8
0
100
AcDbLine
10
-586.435938537521
20
85.427973487873601
30
4.1588954502458364e-12
11
-586.435938537521
21
64.697973487873597
31
4.1611158962950867e-12
0
CIRCLE
5
138
100
AcDbEntity
8
0
100
AcDbCircle
10
-356.54093853752107
20
79.427973487873544
30
3.6914915568786455e-12
40
2.5499999999999994
210
0
220
0
230
1
0
CIRCLE
5
139
100
AcDbEntity
8
0
100
AcDbCircle
10
-356.54093853752107
20
79.427973487873544
30
3.6914915568786455e-12
40
2.5499999999999994
210
0
220
0
230
1
0
ARC
5
140
100
AcDbEntity
8
0
100
AcDbCircle
10
-578.435938537521
20
77.427973487873629
30
4.1561198926842735e-12
40
7.9999999999999716
210
0
220
2.7755575615629012e-16
230
1
100
AcDbArc
50
90
51
180
0
CIRCLE
5
141
100
AcDbEntity
8
0
100
AcDbCircle
10
-579.43593853752111
20
78.427973487873643
30
4.8283599340948058e-12
40
2.5499999999999998
210
0
220
0
230
1
0
CIRCLE
5
142
100
AcDbEntity
8
0
100
AcDbCircle
10
-479.69943853752119
20
79.427973487873544
30
3.6914915568786455e-12
40
2.5499999999999994
210
0
220
0
230
1
0
LINE
5
143
100
AcDbEntity
8
0
100
AcDbLine
10
-586.435938537521
20
85.427973487873601
30
4.1588954502458364e-12
11
-586.435938537521
21
64.697973487873597
31
4.1611158962950867e-12
0
LINE
5
144
100
AcDbEntity
8
0
100
AcDbLine
10
-471.95802500000002
20
20.991374999999984
30
0
11
-473.31374999999991
21
23.658374999999985
31
0
0
LINE
5
145
100
AcDbEntity
8
0
100
AcDbLine
10
-477.33647499999995
20
50.195024999999987
30
0
11
-476.95864999999998
21
51.372950000000003
31
0
0
SPLINE
5
146
100
AcDbEntity
8
0
100
AcDbSpline
70
4
71
3
72
8
73
4
74
0
42
0.000000001
43
0.0000000001
44
0.0000000001
40
0
40
0
40
0
40
0
40
1
40
1
40
1
40
1
41
1
41
1
41
1
41
1
10
-444.26567499999987
20
-49.68412500000003
30
0
10
-445.22134999999992
20
-48.217275000000029
30
0
10
-446.19924999999995
20
-46.239250000000034
30
0
10
-446.19924999999995
20
-45.772525000000016
30
0
0
SPLINE
5
147
100
AcDbEntity
8
0
100
AcDbSpline
70
4
71
3
72
8
73
4
74
0
42
0.000000001
43
0.0000000001
44
0.0000000001
40
0
40
0
40
0
40
0
40
1
40
1
40
1
40
1
41
1
41
1
41
1
41
1
10
-504.76212499999997
20
37.32674999999999
30
0
10
-505.13994999999994
20
35.593199999999996
30
0
10
-506.18452499999995
20
34.03745
30
0
10
-508.184775
20
32.370574999999995
30
0
0
SPLINE
5
148
100
AcDbEntity
8
0
100
AcDbSpline
70
4
71
3
72
8
73
4
74
0
42
0.000000001
43
0.0000000001
44
0.0000000001
40
0
40
0
40
0
40
0
40
1
40
1
40
1
40
1
41
1
41
1
41
1
41
1
10
-464.00147499999997
20
-34.460000000000036
30
0
10
-463.66809999999992
20
-35.015625000000021
30
0
10
-463.17914999999999
20
-36.015750000000025
30
0
10
-462.89022499999993
20
-36.682500000000019
30
0
0
SPLINE
5
149
100
AcDbEntity
8
0
100
AcDbSpline
70
4
71
3
72
8
73
4
74
0
42
0.000000001
43
0.0000000001
44
0.0000000001
40
0
40
0
40
0
40
0
40
1
40
1
40
1
40
1
41
1
41
1
41
1
41
1
10
-508.76262499999996
20
31.148199999999999
30
0
10
-508.36257499999994
20
29.50354999999999
30
0
10
-508.38479999999998
20
29.436874999999986
30
0
10
-509.16267499999998
20
28.481199999999998
30
0
0
SPLINE
5
150
100
AcDbEntity
8
0
100
AcDbSpline
70
4
71
3
72
8
73
4
74
0
42
0.000000001
43
0.0000000001
44
0.0000000001
40
0
40
0
40
0
40
0
40
1
40
1
40
1
40
1
41
1
41
1
41
1
41
1
10
-509.16267499999998
20
28.481199999999998
30
0
10
-509.91832499999992
20
27.592199999999991
30
0
10
-510.42949999999996
20
26.236474999999988
30
0
10
-510.78509999999994
20
24.325124999999986
30
0
0
SPLINE
5
151
100
AcDbEntity
8
0
100
AcDbSpline
70
4
71
3
72
8
73
4
74
0
42
0.000000001
43
0.0000000001
44
0.0000000001
40
0
40
0
40
0
40
0
40
1
40
1
40
1
40
1
41
1
41
1
41
1
41
1
10
-510.78509999999994
20
24.325124999999986
30
0
10
-511.02957499999997
20
22.902724999999986
30
0
10
-512.18527499999993
20
19.746774999999992
30
0
10
-512.87424999999996
20
18.657749999999986
30
0
0
SPLINE
5
152
100
AcDbEntity
8
0
100
AcDbSpline
70
4
71
3
72
8
73
4
74
0
42
0.000000001
43
0.0000000001
44
0.0000000001
40
0
40
0
40
0
40
0
40
1
40
1
40
1
40
1
41
1
41
1
41
1
41
1
10
-466.33509999999995
20
-31.28182500000003
30
0
10
-465.91282499999988
20
-31.415175000000026
30
0
10
-465.53499999999997
20
-31.793000000000031
30
0
10
-465.15717499999994
20
-32.459750000000028
30
0
0
LINE
5
153
100
AcDbEntity
8
0
100
AcDbLine
10
-493.53849999999994
20
54.773374999999987
30
0
11
-494.89422499999995
21
54.773374999999987
31
0
0
SPLINE
5
154
100
AcDbEntity
8
0
100
AcDbSpline
70
4
71
3
72
8
73
4
74
0
42
0.000000001
43
0.0000000001
44
0.0000000001
40
0
40
0
40
0
40
0
40
1
40
1
40
1
40
1
41
1
41
1
41
1
41
1
10
-451.33322499999991
20
-37.460375000000035
30
0
10
-451.555475
20
-36.949200000000033
30
0
10
-451.91107499999993
20
-36.393575000000041
30
0
10
-452.11109999999991
20
-36.215775000000022
30
0
0
SPLINE
5
155
100
AcDbEntity
8
0
100
AcDbSpline
70
4
71
3
72
8
73
4
74
0
42
0.000000001
43
0.0000000001
44
0.0000000001
40
0
40
0
40
0
40
0
40
1
40
1
40
1
40
1
41
1
41
1
41
1
41
1
10
-476.95864999999998
20
51.372950000000003
30
0
10
-476.44747499999994
20
52.995374999999996
30
0
10
-476.15854999999999
20
53.239849999999997
30
0
10
-474.78059999999994
20
53.395425000000003
30
0
0
SPLINE
5
156
100
AcDbEntity
8
0
100
AcDbSpline
70
4
71
3
72
8
73
4
74
0
42
0.000000001
43
0.0000000001
44
0.0000000001
40
0
40
0
40
0
40
0
40
1
40
1
40
1
40
1
41
1
41
1
41
1
41
1
10
-457.44509999999991
20
-49.239625000000032
30
0
10
-457.44509999999991
20
-50.328650000000025
30
0
10
-457.53399999999999
20
-51.795500000000025
30
0
10
-457.62289999999996
20
-52.484475000000046
30
0
0
SPLINE
5
157
100
AcDbEntity
8
0
100
AcDbSpline
70
4
71
3
72
8
73
4
74
0
42
0.000000001
43
0.0000000001
44
0.0000000001
40
0
40
0
40
0
40
0
40
1
40
1
40
1
40
1
41
1
41
1
41
1
41
1
10
-471.40239999999994
20
60.085149999999992
30
0
10
-471.95802500000002
20
61.68535
30
0
10
-472.58032500000002
20
62.996624999999995
30
0
10
-472.98037499999992
20
63.329999999999991
30
0
0
SPLINE
5
158
100
AcDbEntity
8
0
100
AcDbSpline
70
4
71
3
72
8
73
4
74
0
42
0.000000001
43
0.0000000001
44
0.0000000001
40
0
40
0
40
0
40
0
40
1
40
1
40
1
40
1
41
1
41
1
41
1
41
1
10
-451.44434999999993
20
-56.196050000000014
30
0
10
-451.06652499999996
20
-56.062700000000035
30
0
10
-450.66647499999993
20
-55.862675000000017
30
0
10
-450.55534999999992
20
-55.773775000000029
30
0
0
SPLINE
5
159
100
AcDbEntity
8
0
100
AcDbSpline
70
4
71
3
72
8
73
4
74
0
42
0.000000001
43
0.0000000001
44
0.0000000001
40
0
40
0
40
0
40
0
40
1
40
1
40
1
40
1
41
1
41
1
41
1
41
1
10
-436.24244999999996
20
-56.818350000000031
30
0
10
-435.99797499999994
20
-55.640425000000029
30
0
10
-436.79807499999993
20
-54.884775000000033
30
0
10
-439.10947499999992
20
-54.12912500000003
30
0
0
SPLINE
5
160
100
AcDbEntity
8
0
100
AcDbSpline
70
4
71
3
72
8
73
4
74
0
42
0.000000001
43
0.0000000001
44
0.0000000001
40
0
40
0
40
0
40
0
40
1
40
1
40
1
40
1
41
1
41
1
41
1
41
1
10
-439.10947499999992
20
-54.12912500000003
30
0
10
-441.35419999999999
20
-53.373475000000035
30
0
10
-442.50989999999996
20
-52.395575000000036
30
0
10
-444.26567499999987
20
-49.68412500000003
30
0
0
SPLINE
5
161
100
AcDbEntity
8
0
100
AcDbSpline
70
4
71
3
72
8
73
4
74
0
42
0.000000001
43
0.0000000001
44
0.0000000001
40
0
40
0
40
0
40
0
40
1
40
1
40
1
40
1
41
1
41
1
41
1
41
1
10
-473.44709999999992
20
26.103124999999984
30
0
10
-473.58044999999998
20
28.525649999999992
30
0
10
-473.44709999999992
20
29.836924999999994
30
0
10
-472.80257499999993
20
32.65949999999998
30
0
0
SPLINE
5
162
100
AcDbEntity
8
0
100
AcDbSpline
70
4
71
3
72
8
73
4
74
0
42
0.000000001
43
0.0000000001
44
0.0000000001
40
0
40
0
40
0
40
0
40
1
40
1
40
1
40
1
41
1
41
1
41
1
41
1
10
-471.53574999999995
20
-31.904125000000025
30
0
10
-469.40214999999995
20
-31.370725000000039
30
0
10
-467.00184999999988
20
-31.104025000000028
30
0
10
-466.33509999999995
20
-31.28182500000003
30
0
0
SPLINE
5
163
100
AcDbEntity
8
0
100
AcDbSpline
70
4
71
3
72
8
73
4
74
0
42
0.000000001
43
0.0000000001
44
0.0000000001
40
0
40
0
40
0
40
0
40
1
40
1
40
1
40
1
41
1
41
1
41
1
41
1
10
-494.58307499999995
20
67.130475000000004
30
0
10
-497.13894999999991
20
64.996874999999989
30
0
10
-498.29464999999999
20
61.99649999999999
30
0
10
-497.16117499999996
20
60.485199999999999
30
0
0
SPLINE
5
164
100
AcDbEntity
8
0
100
AcDbSpline
70
4
71
3
72
8
73
4
74
0
42
0.000000001
43
0.0000000001
44
0.0000000001
40
0
40
0
40
0
40
0
40
1
40
1
40
1
40
1
41
1
41
1
41
1
41
1
10
-497.3612
20
53.550999999999995
30
0
10
-499.33922499999994
20
51.372950000000003
30
0
10
-503.89534999999995
20
41.349474999999991
30
0
10
-504.76212499999997
20
37.32674999999999
30
0
0
SPLINE
5
165
100
AcDbEntity
8
0
100
AcDbSpline
70
4
71
3
72
8
73
4
74
0
42
0.000000001
43
0.0000000001
44
0.0000000001
40
0
40
0
40
0
40
0
40
1
40
1
40
1
40
1
41
1
41
1
41
1
41
1
10
-472.98037499999992
20
63.329999999999991
30
0
10
-473.15817499999991
20
63.485574999999997
30
0
10
-473.31374999999991
20
63.730050000000006
30
0
10
-473.31374999999991
20
63.88562499999999
30
0
0
SPLINE
5
166
100
AcDbEntity
8
0
100
AcDbSpline
70
4
71
3
72
8
73
4
74
0
42
0.000000001
43
0.0000000001
44
0.0000000001
40
0
40
0
40
0
40
0
40
1
40
1
40
1
40
1
41
1
41
1
41
1
41
1
10
-454.37804999999997
20
-32.593100000000028
30
0
10
-455.53374999999994
20
-31.081800000000026
30
0
10
-455.66709999999995
20
-30.815100000000033
30
0
10
-456.2894
20
-28.525925000000019
30
0
0
SPLINE
5
167
100
AcDbEntity
8
0
100
AcDbSpline
70
4
71
3
72
8
73
4
74
0
42
0.000000001
43
0.0000000001
44
0.0000000001
40
0
40
0
40
0
40
0
40
1
40
1
40
1
40
1
41
1
41
1
41
1
41
1
10
-474.78059999999994
20
53.395425000000003
30
0
10
-473.22484999999995
20
53.550999999999995
30
0
10
-471.869125
20
54.262200000000007
30
0
10
-471.40239999999994
20
55.173425000000009
30
0
0
SPLINE
5
168
100
AcDbEntity
8
0
100
AcDbSpline
70
4
71
3
72
8
73
4
74
0
42
0.000000001
43
0.0000000001
44
0.0000000001
40
0
40
0
40
0
40
0
40
1
40
1
40
1
40
1
41
1
41
1
41
1
41
1
10
-462.89022499999993
20
-36.682500000000019
30
0
10
-462.04567499999996
20
-38.682750000000027
30
0
10
-461.04554999999993
20
-40.727450000000047
30
0
10
-460.44547499999993
20
-41.683125000000025
30
0
0
SPLINE
5
169
100
AcDbEntity
8
0
100
AcDbSpline
70
4
71
3
72
8
73
4
74
0
42
0.000000001
43
0.0000000001
44
0.0000000001
40
0
40
0
40
0
40
0
40
1
40
1
40
1
40
1
41
1
41
1
41
1
41
1
10
-457.55622499999993
20
-54.21802500000004
30
0
10
-457.02282499999995
20
-55.195925000000017
30
0
10
-452.66672499999999
20
-56.596100000000042
30
0
10
-451.44434999999993
20
-56.196050000000014
30
0
0
SPLINE
5
170
100
AcDbEntity
8
0
100
AcDbSpline
70
4
71
3
72
8
73
4
74
0
42
0.000000001
43
0.0000000001
44
0.0000000001
40
0
40
0
40
0
40
0
40
1
40
1
40
1
40
1
41
1
41
1
41
1
41
1
10
-453.00009999999992
20
-34.837825000000038
30
0
10
-453.28902499999998
20
-34.237750000000027
30
0
10
-453.91132499999998
20
-33.237625000000023
30
0
10
-454.37804999999997
20
-32.593100000000028
30
0
0
SPLINE
5
171
100
AcDbEntity
8
0
100
AcDbSpline
70
4
71
3
72
8
73
4
74
0
42
0.000000001
43
0.0000000001
44
0.0000000001
40
0
40
0
40
0
40
0
40
1
40
1
40
1
40
1
41
1
41
1
41
1
41
1
10
-472.40252499999997
20
39.660374999999988
30
0
10
-472.66922499999993
20
40.882749999999987
30
0
10
-473.02482499999996
20
42.416274999999999
30
0
10
-473.18039999999996
20
43.060799999999986
30
0
0
LINE
5
172
100
AcDbEntity
8
0
100
AcDbLine
10
-473.31374999999991
20
23.658374999999985
30
0
11
-473.44709999999992
21
26.103124999999988
31
0
0
SPLINE
5
173
100
AcDbEntity
8
0
100
AcDbSpline
70
4
71
3
72
8
73
4
74
0
42
0.000000001
43
0.0000000001
44
0.0000000001
40
0
40
0
40
0
40
0
40
1
40
1
40
1
40
1
41
1
41
1
41
1
41
1
10
-452.11109999999991
20
-36.215775000000022
30
0
10
-452.31112499999995
20
-36.060200000000044
30
0
10
-452.71117499999997
20
-35.437900000000027
30
0
10
-453.00009999999992
20
-34.837825000000038
30
0
0
SPLINE
5
174
100
AcDbEntity
8
0
100
AcDbSpline
70
4
71
3
72
8
73
4
74
0
42
0.000000001
43
0.0000000001
44
0.0000000001
40
0
40
0
40
0
40
0
40
1
40
1
40
1
40
1
41
1
41
1
41
1
41
1
10
-508.184775
20
32.370574999999995
30
0
10
-508.78485000000001
20
31.837174999999995
30
0
10
-508.89597499999991
20
31.614924999999985
30
0
10
-508.76262499999996
20
31.148199999999999
30
0
0
SPLINE
5
175
100
AcDbEntity
8
0
100
AcDbSpline
70
4
71
3
72
8
73
4
74
0
42
0.000000001
43
0.0000000001
44
0.0000000001
40
0
40
0
40
0
40
0
40
1
40
1
40
1
40
1
41
1
41
1
41
1
41
1
10
-474.98062499999997
20
-32.437525000000029
30
0
10
-473.75824999999998
20
-32.304175000000015
30
0
10
-472.20249999999993
20
-32.059700000000042
30
0
10
-471.53574999999995
20
-31.904125000000025
30
0
0
SPLINE
5
176
100
AcDbEntity
8
0
100
AcDbSpline
70
4
71
3
72
8
73
4
74
0
42
0.000000001
43
0.0000000001
44
0.0000000001
40
0
40
0
40
0
40
0
40
1
40
1
40
1
40
1
41
1
41
1
41
1
41
1
10
-497.16117499999996
20
60.485199999999999
30
0
10
-496.91669999999993
20
60.151825000000002
30
0
10
-496.00547499999999
20
59.440624999999997
30
0
10
-495.13869999999997
20
58.907224999999997
30
0
0
SPLINE
5
177
100
AcDbEntity
8
0
100
AcDbSpline
70
4
71
3
72
8
73
4
74
0
42
0.000000001
43
0.0000000001
44
0.0000000001
40
0
40
0
40
0
40
0
40
1
40
1
40
1
40
1
41
1
41
1
41
1
41
1
10
-446.19924999999995
20
-45.772525000000016
30
0
10
-446.19924999999995
20
-45.37247500000003
30
0
10
-448.11059999999998
20
-41.638675000000021
30
0
10
-448.93292499999995
20
-40.416300000000014
30
0
0
SPLINE
5
178
100
AcDbEntity
8
0
100
AcDbSpline
70
4
71
3
72
8
73
4
74
0
42
0.000000001
43
0.0000000001
44
0.0000000001
40
0
40
0
40
0
40
0
40
1
40
1
40
1
40
1
41
1
41
1
41
1
41
1
10
-514.54112499999997
20
-28.05920000000004
30
0
10
-514.80782499999998
20
-29.45937500000003
30
0
10
-515.11897499999998
20
-29.237125000000024
30
0
10
-507.65137499999992
20
-32.970925000000015
30
0
0
LINE
5
179
100
AcDbEntity
8
0
100
AcDbLine
10
-498.18352499999997
20
-32.904250000000033
30
0
11
-496.91669999999993
21
-33.037600000000033
31
0
0
SPLINE
5
180
100
AcDbEntity
8
0
100
AcDbSpline
70
4
71
3
72
8
73
4
74
0
42
0.000000001
43
0.0000000001
44
0.0000000001
40
0
40
0
40
0
40
0
40
1
40
1
40
1
40
1
41
1
41
1
41
1
41
1
10
-494.87199999999996
20
-52.484475000000046
30
0
10
-494.87199999999996
20
-51.617700000000042
30
0
10
-493.09399999999994
20
-48.350625000000029
30
0
10
-490.44922499999996
20
-44.372350000000026
30
0
0
SPLINE
5
181
100
AcDbEntity
8
0
100
AcDbSpline
70
4
71
3
72
8
73
4
74
0
42
0.000000001
43
0.0000000001
44
0.0000000001
40
0
40
0
40
0
40
0
40
1
40
1
40
1
40
1
41
1
41
1
41
1
41
1
10
-499.11697499999997
20
-37.793750000000031
30
0
10
-500.16154999999998
20
-37.793750000000031
30
0
10
-500.49492499999997
20
-38.460500000000039
30
0
10
-500.45047499999998
20
-40.394075000000043
30
0
0
SPLINE
5
182
100
AcDbEntity
8
0
100
AcDbSpline
70
4
71
3
72
8
73
4
74
0
42
0.000000001
43
0.0000000001
44
0.0000000001
40
0
40
0
40
0
40
0
40
1
40
1
40
1
40
1
41
1
41
1
41
1
41
1
10
-488.42674999999997
20
-40.994150000000019
30
0
10
-487.93779999999998
20
-40.194050000000026
30
0
10
-487.53774999999996
20
-39.43840000000003
30
0
10
-487.53774999999996
20
-39.34950000000002
30
0
0
SPLINE
5
183
100
AcDbEntity
8
0
100
AcDbSpline
70
4
71
3
72
8
73
4
74
0
42
0.000000001
43
0.0000000001
44
0.0000000001
40
0
40
0
40
0
40
0
40
1
40
1
40
1
40
1
41
1
41
1
41
1
41
1
10
-488.60454999999996
20
-56.173825000000051
30
0
10
-488.93792499999995
20
-55.996025000000031
30
0
10
-489.93804999999998
20
-55.640425000000029
30
0
10
-490.84927499999992
20
-55.373725000000036
30
0
0
SPLINE
5
184
100
AcDbEntity
8
0
100
AcDbSpline
70
4
71
3
72
8
73
4
74
0
42
0.000000001
43
0.0000000001
44
0.0000000001
40
0
40
0
40
0
40
0
40
1
40
1
40
1
40
1
41
1
41
1
41
1
41
1
10
-472.80257499999993
20
32.65949999999998
30
0
10
-471.95802500000002
20
36.393299999999996
30
0
10
-471.89134999999993
20
37.282299999999992
30
0
10
-472.40252499999997
20
39.660374999999988
30
0
0
SPLINE
5
185
100
AcDbEntity
8
0
100
AcDbSpline
70
4
71
3
72
8
73
4
74
0
42
0.000000001
43
0.0000000001
44
0.0000000001
40
0
40
0
40
0
40
0
40
1
40
1
40
1
40
1
41
1
41
1
41
1
41
1
10
-450.55534999999992
20
-55.773775000000029
30
0
10
-450.11084999999991
20
-55.373725000000036
30
0
10
-449.08850000000001
20
-55.595975000000038
30
0
10
-448.06614999999994
20
-56.351625000000034
30
0
0
SPLINE
5
186
100
AcDbEntity
8
0
100
AcDbSpline
70
4
71
3
72
8
73
4
74
0
42
0.000000001
43
0.0000000001
44
0.0000000001
40
0
40
0
40
0
40
0
40
1
40
1
40
1
40
1
41
1
41
1
41
1
41
1
10
-473.31374999999991
20
63.88562499999999
30
0
10
-473.31374999999991
20
64.041200000000003
30
0
10
-474.09162499999991
20
64.907974999999993
30
0
10
-475.0250749999999
20
65.796975000000003
30
0
0
LINE
5
187
100
AcDbEntity
8
0
100
AcDbLine
10
-496.272175
20
54.773374999999987
30
0
11
-497.36119999999994
21
53.550999999999995
31
0
0
LINE
5
188
100
AcDbEntity
8
0
100
AcDbLine
10
-494.89422499999995
20
54.773374999999987
30
0
11
-496.272175
21
54.773374999999987
31
0
0
SPLINE
5
189
100
AcDbEntity
8
0
100
AcDbSpline
70
4
71
3
72
8
73
4
74
0
42
0.000000001
43
0.0000000001
44
0.0000000001
40
0
40
0
40
0
40
0
40
1
40
1
40
1
40
1
41
1
41
1
41
1
41
1
10
-473.18039999999996
20
43.060799999999986
30
0
10
-473.536
20
44.394300000000008
30
0
10
-475.42512499999998
20
47.861399999999989
30
0
10
-476.58082499999989
20
49.261575000000008
30
0
0
SPLINE
5
190
100
AcDbEntity
8
0
100
AcDbSpline
70
4
71
3
72
8
73
4
74
0
42
0.000000001
43
0.0000000001
44
0.0000000001
40
0
40
0
40
0
40
0
40
1
40
1
40
1
40
1
41
1
41
1
41
1
41
1
10
-470.82454999999993
20
13.834924999999982
30
0
10
-470.46894999999995
20
14.835049999999983
30
0
10
-470.38004999999998
20
15.457349999999987
30
0
10
-470.46894999999995
20
16.724174999999981
30
0
0
SPLINE
5
191
100
AcDbEntity
8
0
100
AcDbSpline
70
4
71
3
72
8
73
4
74
0
42
0.000000001
43
0.0000000001
44
0.0000000001
40
0
40
0
40
0
40
0
40
1
40
1
40
1
40
1
41
1
41
1
41
1
41
1
10
-497.42787499999997
20
-36.349125000000022
30
0
10
-498.272425
20
-37.438150000000036
30
0
10
-498.67247499999996
20
-37.771525000000032
30
0
10
-499.11697499999997
20
-37.793750000000031
30
0
0
SPLINE
5
192
100
AcDbEntity
8
0
100
AcDbSpline
70
4
71
3
72
8
73
4
74
0
42
0.000000001
43
0.0000000001
44
0.0000000001
40
0
40
0
40
0
40
0
40
1
40
1
40
1
40
1
41
1
41
1
41
1
41
1
10
-490.84927499999992
20
-55.373725000000036
30
0
10
-493.18289999999996
20
-54.662525000000031
30
0
10
-494.87199999999996
20
-53.462375000000023
30
0
10
-494.87199999999996
20
-52.484475000000046
30
0
0
SPLINE
5
193
100
AcDbEntity
8
0
100
AcDbSpline
70
4
71
3
72
8
73
4
74
0
42
0.000000001
43
0.0000000001
44
0.0000000001
40
0
40
0
40
0
40
0
40
1
40
1
40
1
40
1
41
1
41
1
41
1
41
1
10
-500.45047499999998
20
-40.394075000000043
30
0
10
-500.406025
20
-42.727700000000048
30
0
10
-500.65049999999997
20
-43.194425000000024
30
0
10
-502.09512499999994
20
-43.794500000000042
30
0
0
SPLINE
5
194
100
AcDbEntity
8
0
100
AcDbSpline
70
4
71
3
72
8
73
4
74
0
42
0.000000001
43
0.0000000001
44
0.0000000001
40
0
40
0
40
0
40
0
40
1
40
1
40
1
40
1
41
1
41
1
41
1
41
1
10
-524.83129999999994
20
3.7892249999999805
30
0
10
-524.76462500000002
20
3.233599999999992
30
0
10
-524.72017499999993
20
3.2113749999999719
30
0
10
-522.80882499999996
20
3.1002499999999777
30
0
0
SPLINE
5
195
100
AcDbEntity
8
0
100
AcDbSpline
70
4
71
3
72
8
73
4
74
0
42
0.000000001
43
0.0000000001
44
0.0000000001
40
0
40
0
40
0
40
0
40
1
40
1
40
1
40
1
41
1
41
1
41
1
41
1
10
-509.20712499999991
20
8.3231249999999868
30
0
10
-508.14032499999996
20
11.479074999999987
30
0
10
-507.65137499999992
20
12.501424999999982
30
0
10
-506.42899999999997
20
14.057174999999988
30
0
0
SPLINE
5
196
100
AcDbEntity
8
0
100
AcDbSpline
70
4
71
3
72
8
73
4
74
0
42
0.000000001
43
0.0000000001
44
0.0000000001
40
0
40
0
40
0
40
0
40
1
40
1
40
1
40
1
41
1
41
1
41
1
41
1
10
-487.53774999999996
20
-39.34950000000002
30
0
10
-487.53774999999996
20
-39.238375000000033
30
0
10
-487.07102499999996
20
-38.638300000000015
30
0
10
-486.4709499999999
20
-37.971550000000022
30
0
0
SPLINE
5
197
100
AcDbEntity
8
0
100
AcDbSpline
70
4
71
3
72
8
73
4
74
0
42
0.000000001
43
0.0000000001
44
0.0000000001
40
0
40
0
40
0
40
0
40
1
40
1
40
1
40
1
41
1
41
1
41
1
41
1
10
-517.67484999999988
20
-1.4781000000000155
30
0
10
-516.80807500000003
20
-1.1669500000000177
30
0
10
-516.07465000000002
20
-0.96692500000001402
30
0
10
-516.00797499999999
20
-1.0336000000000212
30
0
0
SPLINE
5
198
100
AcDbEntity
8
0
100
AcDbSpline
70
4
71
3
72
8
73
4
74
0
42
0.000000001
43
0.0000000001
44
0.0000000001
40
0
40
0
40
0
40
0
40
1
40
1
40
1
40
1
41
1
41
1
41
1
41
1
10
-472.86924999999997
20
8.3231249999999868
30
0
10
-472.49142499999999
20
8.9454249999999824
30
0
10
-472.00247499999995
20
10.145574999999996
30
0
10
-471.73577499999993
20
10.990124999999979
30
0
0
SPLINE
5
199
100
AcDbEntity
8
0
100
AcDbSpline
70
4
71
3
72
8
73
4
74
0
42
0.000000001
43
0.0000000001
44
0.0000000001
40
0
40
0
40
0
40
0
40
1
40
1
40
1
40
1
41
1
41
1
41
1
41
1
10
-496.91669999999993
20
-33.03760000000004
30
0
10
-496.22772499999996
20
-33.126500000000036
30
0
10
-495.60542499999997
20
-33.237625000000023
30
0
10
-495.53874999999999
20
-33.282075000000034
30
0
0
SPLINE
5
200
100
AcDbEntity
8
0
100
AcDbSpline
70
4
71
3
72
8
73
4
74
0
42
0.000000001
43
0.0000000001
44
0.0000000001
40
0
40
0
40
0
40
0
40
1
40
1
40
1
40
1
41
1
41
1
41
1
41
1
10
-469.77997499999992
20
-4.5673750000000268
30
0
10
-470.26892499999997
20
-3.9450750000000134
30
0
10
-471.42462499999993
20
-2.3004250000000326
30
0
10
-472.35807499999993
20
-0.90025000000002464
30
0
0
SPLINE
5
201
100
AcDbEntity
8
0
100
AcDbSpline
70
4
71
3
72
8
73
4
74
0
42
0.000000001
43
0.0000000001
44
0.0000000001
40
0
40
0
40
0
40
0
40
1
40
1
40
1
40
1
41
1
41
1
41
1
41
1
10
-472.35807499999993
20
-0.90025000000002464
30
0
10
-473.29152499999992
20
0.4999249999999833
30
0
10
-474.29165
20
1.9445499999999782
30
0
10
-474.6028
20
2.3001499999999808
30
0
0
SPLINE
5
202
100
AcDbEntity
8
0
100
AcDbSpline
70
4
71
3
72
8
73
4
74
0
42
0.000000001
43
0.0000000001
44
0.0000000001
40
0
40
0
40
0
40
0
40
1
40
1
40
1
40
1
41
1
41
1
41
1
41
1
10
-519.65287499999999
20
6.3006499999999832
30
0
10
-520.11959999999999
20
5.9450499999999806
30
0
10
-521.14194999999995
20
5.5672249999999934
30
0
10
-522.36432500000001
20
5.2782999999999802
30
0
0
SPLINE
5
203
100
AcDbEntity
8
0
100
AcDbSpline
70
4
71
3
72
8
73
4
74
0
42
0.000000001
43
0.0000000001
44
0.0000000001
40
0
40
0
40
0
40
0
40
1
40
1
40
1
40
1
41
1
41
1
41
1
41
1
10
-513.9855
20
13.457099999999986
30
0
10
-514.22997499999997
20
10.390049999999986
30
0
10
-514.2521999999999
20
10.34559999999999
30
0
10
-515.00784999999996
20
9.4565999999999839
30
0
0
SPLINE
5
204
100
AcDbEntity
8
0
100
AcDbSpline
70
4
71
3
72
8
73
4
74
0
42
0.000000001
43
0.0000000001
44
0.0000000001
40
0
40
0
40
0
40
0
40
1
40
1
40
1
40
1
41
1
41
1
41
1
41
1
10
-522.80882499999996
20
3.1002499999999777
30
0
10
-520.63077499999997
20
2.9668999999999812
30
0
10
-520.51964999999996
20
2.9002249999999918
30
0
10
-520.29739999999993
20
1.3889249999999898
30
0
0
SPLINE
5
205
100
AcDbEntity
8
0
100
AcDbSpline
70
4
71
3
72
8
73
4
74
0
42
0.000000001
43
0.0000000001
44
0.0000000001
40
0
40
0
40
0
40
0
40
1
40
1
40
1
40
1
41
1
41
1
41
1
41
1
10
-486.4709499999999
20
-37.971550000000022
30
0
10
-485.8931
20
-37.32702500000002
30
0
10
-484.93742499999996
20
-36.215775000000022
30
0
10
-484.33735000000001
20
-35.504575000000038
30
0
0
SPLINE
5
206
100
AcDbEntity
8
0
100
AcDbSpline
70
4
71
3
72
8
73
4
74
0
42
0.000000001
43
0.0000000001
44
0.0000000001
40
0
40
0
40
0
40
0
40
1
40
1
40
1
40
1
41
1
41
1
41
1
41
1
10
-475.0250749999999
20
65.796975000000003
30
0
10
-478.87
20
69.464100000000002
30
0
10
-484.75962499999991
20
71.419900000000013
30
0
10
-488.69344999999998
20
70.330874999999992
30
0
0
SPLINE
5
207
100
AcDbEntity
8
0
100
AcDbSpline
70
4
71
3
72
8
73
4
74
0
42
0.000000001
43
0.0000000001
44
0.0000000001
40
0
40
0
40
0
40
0
40
1
40
1
40
1
40
1
41
1
41
1
41
1
41
1
10
-505.67335000000003
20
5.4783249999999839
30
0
10
-506.85127499999993
20
0.099874999999975955
30
0
10
-507.89584999999994
20
-5.6119500000000144
30
0
10
-508.87374999999997
20
-12.101650000000017
30
0
0
SPLINE
5
208
100
AcDbEntity
8
0
100
AcDbSpline
70
4
71
3
72
8
73
4
74
0
42
0.000000001
43
0.0000000001
44
0.0000000001
40
0
40
0
40
0
40
0
40
1
40
1
40
1
40
1
41
1
41
1
41
1
41
1
10
-518.34159999999997
20
6.8784999999999741
30
0
10
-518.65274999999997
20
6.8784999999999741
30
0
10
-519.23059999999987
20
6.611799999999981
30
0
10
-519.65287499999999
20
6.3006499999999832
30
0
0
SPLINE
5
209
100
AcDbEntity
8
0
100
AcDbSpline
70
4
71
3
72
8
73
4
74
0
42
0.000000001
43
0.0000000001
44
0.0000000001
40
0
40
0
40
0
40
0
40
1
40
1
40
1
40
1
41
1
41
1
41
1
41
1
10
-503.93979999999999
20
13.834924999999982
30
0
10
-504.20649999999995
20
12.301399999999987
30
0
10
-504.98437499999994
20
8.5453749999999751
30
0
10
-505.67335000000003
20
5.4783249999999839
30
0
0
SPLINE
5
210
100
AcDbEntity
8
0
100
AcDbSpline
70
4
71
3
72
8
73
4
74
0
42
0.000000001
43
0.0000000001
44
0.0000000001
40
0
40
0
40
0
40
0
40
1
40
1
40
1
40
1
41
1
41
1
41
1
41
1
10
-475.00284999999991
20
3.7225499999999911
30
0
10
-474.89172499999995
20
4.5004249999999857
30
0
10
-474.00272499999994
20
6.4117749999999951
30
0
10
-472.86924999999997
20
8.3231249999999868
30
0
0
SPLINE
5
211
100
AcDbEntity
8
0
100
AcDbSpline
70
4
71
3
72
8
73
4
74
0
42
0.000000001
43
0.0000000001
44
0.0000000001
40
0
40
0
40
0
40
0
40
1
40
1
40
1
40
1
41
1
41
1
41
1
41
1
10
-512.318625
20
-23.347500000000032
30
0
10
-512.85202499999991
20
-23.925350000000023
30
0
10
-514.38554999999997
20
-27.21465000000002
30
0
10
-514.54112499999997
20
-28.05920000000004
30
0
0
SPLINE
5
212
100
AcDbEntity
8
0
100
AcDbSpline
70
4
71
3
72
8
73
4
74
0
42
0.000000001
43
0.0000000001
44
0.0000000001
40
0
40
0
40
0
40
0
40
1
40
1
40
1
40
1
41
1
41
1
41
1
41
1
10
-503.42862499999995
20
-34.704475000000045
30
0
10
-502.45072499999998
20
-34.971175000000017
30
0
10
-501.29502499999995
20
-35.282325000000029
30
0
10
-500.85052499999995
20
-35.415675000000007
30
0
0
SPLINE
5
213
100
AcDbEntity
8
0
100
AcDbSpline
70
4
71
3
72
8
73
4
74
0
42
0.000000001
43
0.0000000001
44
0.0000000001
40
0
40
0
40
0
40
0
40
1
40
1
40
1
40
1
41
1
41
1
41
1
41
1
10
-522.18652499999996
20
-1.4336500000000107
30
0
10
-522.47544999999991
20
-1.7670250000000109
30
0
10
-522.31987499999991
20
-2.367100000000022
30
0
10
-521.8975999999999
20
-2.5226750000000209
30
0
0
SPLINE
5
214
100
AcDbEntity
8
0
100
AcDbSpline
70
4
71
3
72
8
73
4
74
0
42
0.000000001
43
0.0000000001
44
0.0000000001
40
0
40
0
40
0
40
0
40
1
40
1
40
1
40
1
41
1
41
1
41
1
41
1
10
-507.65137499999992
20
-32.970925000000015
30
0
10
-506.29565000000002
20
-33.659900000000022
30
0
10
-504.40652499999999
20
-34.43777500000003
30
0
10
-503.42862499999995
20
-34.704475000000045
30
0
0
SPLINE
5
215
100
AcDbEntity
8
0
100
AcDbSpline
70
4
71
3
72
8
73
4
74
0
42
0.000000001
43
0.0000000001
44
0.0000000001
40
0
40
0
40
0
40
0
40
1
40
1
40
1
40
1
41
1
41
1
41
1
41
1
10
-520.29739999999993
20
1.3889249999999898
30
0
10
-520.09737500000006
20
-0.033475000000020572
30
0
10
-520.31962499999997
20
-0.61132500000001144
30
0
10
-521.18640000000005
20
-0.90025000000002464
30
0
0
SPLINE
5
216
100
AcDbEntity
8
0
100
AcDbSpline
70
4
71
3
72
8
73
4
74
0
42
0.000000001
43
0.0000000001
44
0.0000000001
40
0
40
0
40
0
40
0
40
1
40
1
40
1
40
1
41
1
41
1
41
1
41
1
10
-513.20762500000001
20
-0.41130000000000777
30
0
10
-511.18514999999996
20
3.4336249999999779
30
0
10
-509.873875
20
6.3006499999999832
30
0
10
-509.20712499999991
20
8.3231249999999868
30
0
0
SPLINE
5
217
100
AcDbEntity
8
0
100
AcDbSpline
70
4
71
3
72
8
73
4
74
0
42
0.000000001
43
0.0000000001
44
0.0000000001
40
0
40
0
40
0
40
0
40
1
40
1
40
1
40
1
41
1
41
1
41
1
41
1
10
-502.09512499999994
20
-43.794500000000042
30
0
10
-504.13982499999997
20
-44.639050000000026
30
0
10
-504.11760000000004
20
-44.550150000000031
30
0
10
-505.56222499999996
20
-51.684375000000031
30
0
0
SPLINE
5
218
100
AcDbEntity
8
0
100
AcDbSpline
70
4
71
3
72
8
73
4
74
0
42
0.000000001
43
0.0000000001
44
0.0000000001
40
0
40
0
40
0
40
0
40
1
40
1
40
1
40
1
41
1
41
1
41
1
41
1
10
-500.85052499999995
20
-35.415675000000007
30
0
10
-499.71704999999997
20
-35.749050000000011
30
0
10
-499.38367499999998
20
-35.526800000000023
30
0
10
-498.73915
20
-34.126625000000033
30
0
0
SPLINE
5
219
100
AcDbEntity
8
0
100
AcDbSpline
70
4
71
3
72
8
73
4
74
0
42
0.000000001
43
0.0000000001
44
0.0000000001
40
0
40
0
40
0
40
0
40
1
40
1
40
1
40
1
41
1
41
1
41
1
41
1
10
-495.53874999999999
20
-33.282075000000034
30
0
10
-495.38317499999999
20
-33.437650000000033
30
0
10
-496.18327499999992
20
-34.726700000000044
30
0
10
-497.42787499999997
20
-36.349125000000022
30
0
0
SPLINE
5
220
100
AcDbEntity
8
0
100
AcDbSpline
70
4
71
3
72
8
73
4
74
0
42
0.000000001
43
0.0000000001
44
0.0000000001
40
0
40
0
40
0
40
0
40
1
40
1
40
1
40
1
41
1
41
1
41
1
41
1
10
-505.56222499999996
20
-51.684375000000031
30
0
10
-505.80669999999998
20
-52.906750000000038
30
0
10
-506.07339999999994
20
-54.684750000000037
30
0
10
-506.14007500000002
20
-55.618200000000044
30
0
0
SPLINE
5
221
100
AcDbEntity
8
0
100
AcDbSpline
70
4
71
3
72
8
73
4
74
0
42
0.000000001
43
0.0000000001
44
0.0000000001
40
0
40
0
40
0
40
0
40
1
40
1
40
1
40
1
41
1
41
1
41
1
41
1
10
-515.65237499999989
20
-2.5226750000000209
30
0
10
-515.45235000000002
20
-3.7895000000000145
30
0
10
-515.38567499999999
20
-3.9006250000000264
30
0
10
-514.8744999999999
20
-3.9006250000000264
30
0
0
SPLINE
5
222
100
AcDbEntity
8
0
100
AcDbSpline
70
4
71
3
72
8
73
4
74
0
42
0.000000001
43
0.0000000001
44
0.0000000001
40
0
40
0
40
0
40
0
40
1
40
1
40
1
40
1
41
1
41
1
41
1
41
1
10
-489.31574999999998
20
-42.549900000000029
30
0
10
-489.31574999999998
20
-42.505450000000039
30
0
10
-488.91569999999996
20
-41.794250000000034
30
0
10
-488.42674999999997
20
-40.994150000000019
30
0
0
SPLINE
5
223
100
AcDbEntity
8
0
100
AcDbSpline
70
4
71
3
72
8
73
4
74
0
42
0.000000001
43
0.0000000001
44
0.0000000001
40
0
40
0
40
0
40
0
40
1
40
1
40
1
40
1
41
1
41
1
41
1
41
1
10
-521.18640000000005
20
-0.90025000000002464
30
0
10
-521.60867499999995
20
-1.0336000000000212
30
0
10
-522.0531749999999
20
-1.2780750000000118
30
0
10
-522.18652499999996
20
-1.4336500000000107
30
0
0
SPLINE
5
224
100
AcDbEntity
8
0
100
AcDbSpline
70
4
71
3
72
8
73
4
74
0
42
0.000000001
43
0.0000000001
44
0.0000000001
40
0
40
0
40
0
40
0
40
1
40
1
40
1
40
1
41
1
41
1
41
1
41
1
10
-515.76350000000002
20
8.4120249999999963
30
0
10
-515.76350000000002
20
8.0786499999999961
30
0
10
-517.78597500000001
20
6.8784999999999741
30
0
10
-518.34159999999997
20
6.8784999999999741
30
0
0
SPLINE
5
225
100
AcDbEntity
8
0
100
AcDbSpline
70
4
71
3
72
8
73
4
74
0
42
0.000000001
43
0.0000000001
44
0.0000000001
40
0
40
0
40
0
40
0
40
1
40
1
40
1
40
1
41
1
41
1
41
1
41
1
10
-508.87374999999997
20
-12.101650000000017
30
0
10
-509.62939999999998
20
-17.013375000000028
30
0
10
-510.1405749999999
20
-19.080300000000019
30
0
10
-511.11847499999999
20
-21.125000000000025
30
0
0
SPLINE
5
226
100
AcDbEntity
8
0
100
AcDbSpline
70
4
71
3
72
8
73
4
74
0
42
0.000000001
43
0.0000000001
44
0.0000000001
40
0
40
0
40
0
40
0
40
1
40
1
40
1
40
1
41
1
41
1
41
1
41
1
10
-490.44922499999996
20
-44.372350000000026
30
0
10
-489.82692499999996
20
-43.416675000000012
30
0
10
-489.31574999999998
20
-42.61657500000004
30
0
10
-489.31574999999998
20
-42.549900000000029
30
0
0
SPLINE
5
227
100
AcDbEntity
8
0
100
AcDbSpline
70
4
71
3
72
8
73
4
74
0
42
0.000000001
43
0.0000000001
44
0.0000000001
40
0
40
0
40
0
40
0
40
1
40
1
40
1
40
1
41
1
41
1
41
1
41
1
10
-484.33735000000001
20
-35.504575000000038
30
0
10
-483.75949999999995
20
-34.793375000000033
30
0
10
-483.00384999999994
20
-34.082175000000007
30
0
10
-482.69269999999995
20
-33.926600000000029
30
0
0
LINE
5
228
100
AcDbEntity
8
0
100
AcDbLine
10
-498.73915
20
-34.126625000000033
30
0
11
-498.18352499999997
21
-32.904250000000033
31
0
0
SPLINE
5
229
100
AcDbEntity
8
0
100
AcDbSpline
70
4
71
3
72
8
73
4
74
0
42
0.000000001
43
0.0000000001
44
0.0000000001
40
0
40
0
40
0
40
0
40
1
40
1
40
1
40
1
41
1
41
1
41
1
41
1
10
-440.3762999999999
20
-58.218525000000021
30
0
10
-437.93155000000002
20
-58.129625000000033
30
0
10
-437.48704999999995
20
-58.062950000000043
30
0
10
-436.93142499999993
20
-57.662900000000036
30
0
0
SPLINE
5
230
100
AcDbEntity
8
0
100
AcDbSpline
70
4
71
3
72
8
73
4
74
0
42
0.000000001
43
0.0000000001
44
0.0000000001
40
0
40
0
40
0
40
0
40
1
40
1
40
1
40
1
41
1
41
1
41
1
41
1
10
-513.9410499999999
20
-2.5226750000000209
30
0
10
-513.74102500000004
20
-1.7448000000000086
30
0
10
-513.40764999999999
20
-0.81135000000001511
30
0
10
-513.20762500000001
20
-0.41130000000000777
30
0
0
SPLINE
5
231
100
AcDbEntity
8
0
100
AcDbSpline
70
4
71
3
72
8
73
4
74
0
42
0.000000001
43
0.0000000001
44
0.0000000001
40
0
40
0
40
0
40
0
40
1
40
1
40
1
40
1
41
1
41
1
41
1
41
1
10
-500.05042499999996
20
-59.818725000000029
30
0
10
-498.11685
20
-60.241000000000042
30
0
10
-488.27117499999997
20
-59.86317500000002
30
0
10
-487.64887499999998
20
-59.352000000000032
30
0
0
SPLINE
5
232
100
AcDbEntity
8
0
100
AcDbSpline
70
4
71
3
72
8
73
4
74
0
42
0.000000001
43
0.0000000001
44
0.0000000001
40
0
40
0
40
0
40
0
40
1
40
1
40
1
40
1
41
1
41
1
41
1
41
1
10
-506.42899999999997
20
14.057174999999988
30
0
10
-505.87337499999995
20
14.790599999999987
30
0
10
-505.20662500000003
20
15.679599999999985
30
0
10
-504.96214999999995
20
16.079649999999994
30
0
0
SPLINE
5
233
100
AcDbEntity
8
0
100
AcDbSpline
70
4
71
3
72
8
73
4
74
0
42
0.000000001
43
0.0000000001
44
0.0000000001
40
0
40
0
40
0
40
0
40
1
40
1
40
1
40
1
41
1
41
1
41
1
41
1
10
-487.64887499999998
20
-59.352000000000032
30
0
10
-486.89322499999997
20
-58.729700000000037
30
0
10
-487.49329999999992
20
-56.729450000000043
30
0
10
-488.60454999999996
20
-56.173825000000051
30
0
0
SPLINE
5
234
100
AcDbEntity
8
0
100
AcDbSpline
70
4
71
3
72
8
73
4
74
0
42
0.000000001
43
0.0000000001
44
0.0000000001
40
0
40
0
40
0
40
0
40
1
40
1
40
1
40
1
41
1
41
1
41
1
41
1
10
-515.00784999999996
20
9.4565999999999839
30
0
10
-515.43012499999998
20
8.9676499999999848
30
0
10
-515.76350000000002
20
8.5009249999999881
30
0
10
-515.76350000000002
20
8.4120249999999963
30
0
0
SPLINE
5
235
100
AcDbEntity
8
0
100
AcDbSpline
70
4
71
3
72
8
73
4
74
0
42
0.000000001
43
0.0000000001
44
0.0000000001
40
0
40
0
40
0
40
0
40
1
40
1
40
1
40
1
41
1
41
1
41
1
41
1
10
-504.96214999999995
20
16.079649999999994
30
0
10
-503.58419999999995
20
18.124349999999989
30
0
10
-503.3175
20
17.524274999999989
30
0
10
-503.93979999999999
20
13.834924999999982
30
0
0
SPLINE
5
236
100
AcDbEntity
8
0
100
AcDbSpline
70
4
71
3
72
8
73
4
74
0
42
0.000000001
43
0.0000000001
44
0.0000000001
40
0
40
0
40
0
40
0
40
1
40
1
40
1
40
1
41
1
41
1
41
1
41
1
10
-511.11847499999999
20
-21.125000000000025
30
0
10
-511.60742499999998
20
-22.16957500000003
30
0
10
-512.16305
20
-23.169700000000031
30
0
10
-512.318625
20
-23.347500000000032
30
0
0
SPLINE
5
237
100
AcDbEntity
8
0
100
AcDbSpline
70
4
71
3
72
8
73
4
74
0
42
0.000000001
43
0.0000000001
44
0.0000000001
40
0
40
0
40
0
40
0
40
1
40
1
40
1
40
1
41
1
41
1
41
1
41
1
10
-456.2894
20
-28.525925000000019
30
0
10
-457.00059999999996
20
-25.947825000000044
30
0
10
-459.97874999999993
20
-18.124625000000023
30
0
10
-460.88997499999994
20
-16.391075000000015
30
0
0
SPLINE
5
238
100
AcDbEntity
8
0
100
AcDbSpline
70
4
71
3
72
8
73
4
74
0
42
0.000000001
43
0.0000000001
44
0.0000000001
40
0
40
0
40
0
40
0
40
1
40
1
40
1
40
1
41
1
41
1
41
1
41
1
10
-506.14007500000002
20
-55.618200000000044
30
0
10
-506.34009999999995
20
-58.218525000000021
30
0
10
-505.78447499999993
20
-58.818600000000032
30
0
10
-502.65074999999996
20
-59.329775000000033
30
0
0
SPLINE
5
239
100
AcDbEntity
8
0
100
AcDbSpline
70
4
71
3
72
8
73
4
74
0
42
0.000000001
43
0.0000000001
44
0.0000000001
40
0
40
0
40
0
40
0
40
1
40
1
40
1
40
1
41
1
41
1
41
1
41
1
10
-467.89084999999994
20
-7.1232500000000165
30
0
10
-468.44647499999996
20
-6.3231500000000196
30
0
10
-469.29102499999999
20
-5.1674500000000201
30
0
10
-469.77997499999992
20
-4.5673750000000268
30
0
0
SPLINE
5
240
100
AcDbEntity
8
0
100
AcDbSpline
70
4
71
3
72
8
73
4
74
0
42
0.000000001
43
0.0000000001
44
0.0000000001
40
0
40
0
40
0
40
0
40
1
40
1
40
1
40
1
41
1
41
1
41
1
41
1
10
-471.73577499999993
20
10.990124999999979
30
0
10
-471.49130000000002
20
11.856899999999992
30
0
10
-471.06902499999995
20
13.123724999999986
30
0
10
-470.82454999999993
20
13.834924999999982
30
0
0
SPLINE
5
241
100
AcDbEntity
8
0
100
AcDbSpline
70
4
71
3
72
8
73
4
74
0
42
0.000000001
43
0.0000000001
44
0.0000000001
40
0
40
0
40
0
40
0
40
1
40
1
40
1
40
1
41
1
41
1
41
1
41
1
10
-460.88997499999994
20
-16.391075000000015
30
0
10
-461.71229999999991
20
-14.85755000000001
30
0
10
-463.71254999999991
20
-12.101650000000017
30
0
10
-465.20162499999998
20
-10.457000000000019
30
0
0
SPLINE
5
242
100
AcDbEntity
8
0
100
AcDbSpline
70
4
71
3
72
8
73
4
74
0
42
0.000000001
43
0.0000000001
44
0.0000000001
40
0
40
0
40
0
40
0
40
1
40
1
40
1
40
1
41
1
41
1
41
1
41
1
10
-514.8744999999999
20
-3.9006250000000264
30
0
10
-514.38554999999997
20
-3.9006250000000264
30
0
10
-514.27442499999995
20
-3.7450500000000275
30
0
10
-513.9410499999999
20
-2.5226750000000209
30
0
0
SPLINE
5
243
100
AcDbEntity
8
0
100
AcDbSpline
70
4
71
3
72
8
73
4
74
0
42
0.000000001
43
0.0000000001
44
0.0000000001
40
0
40
0
40
0
40
0
40
1
40
1
40
1
40
1
41
1
41
1
41
1
41
1
10
-474.6028
20
2.3001499999999808
30
0
10
-475.0250749999999
20
2.8113249999999823
30
0
10
-475.11397499999993
20
3.1224749999999801
30
0
10
-475.00284999999991
20
3.7225499999999911
30
0
0
SPLINE
5
244
100
AcDbEntity
8
0
100
AcDbSpline
70
4
71
3
72
8
73
4
74
0
42
0.000000001
43
0.0000000001
44
0.0000000001
40
0
40
0
40
0
40
0
40
1
40
1
40
1
40
1
41
1
41
1
41
1
41
1
10
-516.00797499999999
20
-1.0336000000000212
30
0
10
-515.94129999999996
20
-1.1002750000000106
30
0
10
-515.76350000000002
20
-1.7670250000000109
30
0
10
-515.65237499999989
20
-2.5226750000000209
30
0
0
SPLINE
5
245
100
AcDbEntity
8
0
100
AcDbSpline
70
4
71
3
72
8
73
4
74
0
42
0.000000001
43
0.0000000001
44
0.0000000001
40
0
40
0
40
0
40
0
40
1
40
1
40
1
40
1
41
1
41
1
41
1
41
1
10
-521.8975999999999
20
-2.5226750000000209
30
0
10
-521.51977499999998
20
-2.6782500000000198
30
0
10
-519.56397499999991
20
-2.1893000000000207
30
0
10
-517.67484999999988
20
-1.4781000000000155
30
0
0
SPLINE
5
246
100
AcDbEntity
8
0
100
AcDbSpline
70
4
71
3
72
8
73
4
74
0
42
0.000000001
43
0.0000000001
44
0.0000000001
40
0
40
0
40
0
40
0
40
1
40
1
40
1
40
1
41
1
41
1
41
1
41
1
10
-465.20162499999998
20
-10.457000000000019
30
0
10
-466.13507499999997
20
-9.4124250000000309
30
0
10
-467.35744999999997
20
-7.9233500000000134
30
0
10
-467.89084999999994
20
-7.1232500000000165
30
0
0
SPLINE
5
247
100
AcDbEntity
8
0
100
AcDbSpline
70
4
71
3
72
8
73
4
74
0
42
0.000000001
43
0.0000000001
44
0.0000000001
40
0
40
0
40
0
40
0
40
1
40
1
40
1
40
1
41
1
41
1
41
1
41
1
10
-436.93142499999993
20
-57.662900000000036
30
0
10
-436.59804999999994
20
-57.396200000000036
30
0
10
-436.2646749999999
20
-57.018375000000034
30
0
10
-436.24244999999996
20
-56.818350000000031
30
0
0
SPLINE
5
248
100
AcDbEntity
8
0
100
AcDbSpline
70
4
71
3
72
8
73
4
74
0
42
0.000000001
43
0.0000000001
44
0.0000000001
40
0
40
0
40
0
40
0
40
1
40
1
40
1
40
1
41
1
41
1
41
1
41
1
10
-502.65074999999996
20
-59.329775000000033
30
0
10
-501.73952499999996
20
-59.485350000000032
30
0
10
-500.5616
20
-59.707600000000042
30
0
10
-500.05042499999996
20
-59.818725000000029
30
0
0
SPLINE
5
249
100
AcDbEntity
8
0
100
AcDbSpline
70
4
71
3
72
8
73
4
74
0
42
0.000000001
43
0.0000000001
44
0.0000000001
40
0
40
0
40
0
40
0
40
1
40
1
40
1
40
1
41
1
41
1
41
1
41
1
10
-522.36432500000001
20
5.2782999999999802
30
0
10
-524.63127499999996
20
4.7448999999999941
30
0
10
-524.92020000000002
20
4.5670999999999928
30
0
10
-524.83129999999994
20
3.7892249999999805
30
0
0
SPLINE
5
250
100
AcDbEntity
8
0
100
AcDbSpline
70
4
71
3
72
8
73
4
74
0
42
0.000000001
43
0.0000000001
44
0.0000000001
40
0
40
0
40
0
40
0
40
1
40
1
40
1
40
1
41
1
41
1
41
1
41
1
10
-482.69269999999995
20
-33.926600000000029
30
0
10
-481.91482499999995
20
-33.526550000000022
30
0
10
-477.78097499999996
20
-32.726450000000042
30
0
10
-474.98062499999997
20
-32.437525000000029
30
0
0
SPLINE
5
251
100
AcDbEntity
8
0
100
AcDbSpline
70
4
71
3
72
8
73
4
74
0
42
0.000000001
43
0.0000000001
44
0.0000000001
40
0
40
0
40
0
40
0
40
1
40
1
40
1
40
1
41
1
41
1
41
1
41
1
10
-448.06614999999994
20
-56.351625000000034
30
0
10
-445.84364999999991
20
-57.951825000000042
30
0
10
-444.26567499999987
20
-58.329650000000029
30
0
10
-440.3762999999999
20
-58.218525000000021
30
0
0
SPLINE
5
252
100
AcDbEntity
8
0
100
AcDbSpline
70
4
71
3
72
8
73
4
74
0
42
0.000000001
43
0.0000000001
44
0.0000000001
40
0
40
0
40
0
40
0
40
1
40
1
40
1
40
1
41
1
41
1
41
1
41
1
10
-512.87424999999996
20
18.657749999999986
30
0
10
-513.65212499999996
20
17.390924999999982
30
0
10
-513.69657499999994
20
17.190899999999985
30
0
10
-513.9855
20
13.457099999999986
30
0
0
SPLINE
5
253
100
AcDbEntity
8
0
100
AcDbSpline
70
4
71
3
72
8
73
4
74
0
42
0.000000001
43
0.0000000001
44
0.0000000001
40
0
40
0
40
0
40
0
40
1
40
1
40
1
40
1
41
1
41
1
41
1
41
1
10
-450.35532499999994
20
-38.793875000000035
30
0
10
-450.66647499999993
20
-38.593850000000032
30
0
10
-451.08875
20
-37.993775000000021
30
0
10
-451.33322499999991
20
-37.460375000000035
30
0
0
SPLINE
5
254
100
AcDbEntity
8
0
100
AcDbSpline
70
4
71
3
72
8
73
4
74
0
42
0.000000001
43
0.0000000001
44
0.0000000001
40
0
40
0
40
0
40
0
40
1
40
1
40
1
40
1
41
1
41
1
41
1
41
1
10
-457.62289999999996
20
-52.484475000000046
30
0
10
-457.75624999999991
20
-53.32902500000003
30
0
10
-457.73402499999997
20
-53.884650000000036
30
0
10
-457.55622499999993
20
-54.21802500000004
30
0
0
LINE
5
255
100
AcDbEntity
8
0
100
AcDbLine
10
-493.53849999999994
20
57.929324999999999
30
0
11
-493.53849999999994
21
56.351349999999996
31
0
0
SPLINE
5
256
100
AcDbEntity
8
0
100
AcDbSpline
70
4
71
3
72
8
73
4
74
0
42
0.000000001
43
0.0000000001
44
0.0000000001
40
0
40
0
40
0
40
0
40
1
40
1
40
1
40
1
41
1
41
1
41
1
41
1
10
-460.44547499999993
20
-41.683125000000025
30
0
10
-459.55647499999998
20
-43.083300000000015
30
0
10
-458.91194999999993
20
-44.239000000000033
30
0
10
-458.13407499999994
20
-45.794750000000036
30
0
0
SPLINE
5
257
100
AcDbEntity
8
0
100
AcDbSpline
70
4
71
3
72
8
73
4
74
0
42
0.000000001
43
0.0000000001
44
0.0000000001
40
0
40
0
40
0
40
0
40
1
40
1
40
1
40
1
41
1
41
1
41
1
41
1
10
-458.13407499999994
20
-45.794750000000036
30
0
10
-457.48954999999995
20
-47.106025000000017
30
0
10
-457.42287499999998
20
-47.417175000000015
30
0
10
-457.44509999999991
20
-49.239625000000032
30
0
0
LINE
5
258
100
AcDbEntity
8
0
100
AcDbLine
10
-495.13869999999997
20
58.907224999999997
30
0
11
-493.53849999999994
21
57.929324999999999
31
0
0
LINE
5
259
100
AcDbEntity
8
0
100
AcDbLine
10
-493.53849999999994
20
56.351349999999996
30
0
11
-493.53849999999994
21
54.773374999999987
31
0
0
SPLINE
5
260
100
AcDbEntity
8
0
100
AcDbSpline
70
4
71
3
72
8
73
4
74
0
42
0.000000001
43
0.0000000001
44
0.0000000001
40
0
40
0
40
0
40
0
40
1
40
1
40
1
40
1
41
1
41
1
41
1
41
1
10
-448.93292499999995
20
-40.416300000000014
30
0
10
-449.42187499999994
20
-39.72732500000005
30
0
10
-450.04417499999994
20
-38.993900000000025
30
0
10
-450.35532499999994
20
-38.793875000000035
30
0
0
SPLINE
5
261
100
AcDbEntity
8
0
100
AcDbSpline
70
4
71
3
72
8
73
4
74
0
42
0.000000001
43
0.0000000001
44
0.0000000001
40
0
40
0
40
0
40
0
40
1
40
1
40
1
40
1
41
1
41
1
41
1
41
1
10
-465.15717499999994
20
-32.459750000000028
30
0
10
-464.84602499999994
20
-33.01537500000002
30
0
10
-464.3348499999999
20
-33.90437500000003
30
0
10
-464.00147499999997
20
-34.460000000000036
30
0
0
SPLINE
5
262
100
AcDbEntity
8
0
100
AcDbSpline
70
4
71
3
72
8
73
4
74
0
42
0.000000001
43
0.0000000001
44
0.0000000001
40
0
40
0
40
0
40
0
40
1
40
1
40
1
40
1
41
1
41
1
41
1
41
1
10
-470.46894999999995
20
16.724174999999981
30
0
10
-470.55784999999992
20
18.168799999999983
30
0
10
-470.71342499999992
20
18.613299999999988
30
0
10
-471.95802500000002
20
20.991374999999984
30
0
0
SPLINE
5
263
100
AcDbEntity
8
0
100
AcDbSpline
70
4
71
3
72
8
73
4
74
0
42
0.000000001
43
0.0000000001
44
0.0000000001
40
0
40
0
40
0
40
0
40
1
40
1
40
1
40
1
41
1
41
1
41
1
41
1
10
-471.40239999999994
20
55.173425000000009
30
0
10
-470.91344999999995
20
56.106874999999988
30
0
10
-470.91344999999995
20
58.64052499999999
30
0
10
-471.40239999999994
20
60.085149999999992
30
0
0
LINE
5
264
100
AcDbEntity
8
0
100
AcDbLine
10
-476.580825
20
49.261574999999993
30
0
11
-477.33647499999995
21
50.195024999999987
31
0
0
SPLINE
5
265
100
AcDbEntity
8
0
100
AcDbSpline
70
4
71
3
72
8
73
4
74
0
42
0.000000001
43
0.0000000001
44
0.0000000001
40
0
40
0
40
0
40
0
40
1
40
1
40
1
40
1
41
1
41
1
41
1
41
1
10
-488.69344999999998
20
70.330874999999992
30
0
10
-490.42699999999996
20
69.864150000000009
30
0
10
-493.00509999999997
20
68.463975000000005
30
0
10
-494.58307499999995
20
67.130475000000004
30
0
0
ENDSEC
0
SECTION
2
OBJECTS
0
DICTIONARY
5
C
100
AcDbDictionary
3
ACAD_GROUP
350
D
3
ACAD_MLINESTYLE
350
17
0
DICTIONARY
5
D
100
AcDbDictionary
0
DICTIONARY
5
1A
330
C
100
AcDbDictionary
0
DICTIONARY
5
17
100
AcDbDictionary
0
ENDSEC
0
EOF
