0
SECTION
2
HEADER
9
$INSUNITS
70
4
9
$ACADVER
1
AC1014
9
$HANDSEED
5
FFFF
0
ENDSEC
0
SECTION
2
TABLES
0
TABLE
2
VPORT
5
8
100
AcDbSymbolTable
0
ENDTAB
0
TABLE
2
LTYPE
5
5
100
AcDbSymbolTable
0
LTYPE
5
14
100
AcDbSymbolTableRecord
100
AcDbLinetypeTableRecord
2
BYBLOCK
70
0
0
LTYPE
5
15
100
AcDbSymbolTableRecord
100
AcDbLinetypeTableRecord
2
BYLAYER
70
0
0
LTYPE
5
16
100
AcDbSymbolTableRecord
100
AcDbLinetypeTableRecord
2
DASHED
70
0
3
Dashed __ __ __ __ __ __ __ __ __ __ __ __ __ _
72
65
73
2
40
0.75
49
0.5
74
0
49
-0.25
74
0
0
ENDTAB
0
TABLE
2
LAYER
5
2
100
AcDbSymbolTable
70
2
0
LAYER
5
50
100
AcDbSymbolTableRecord
100
AcDbLayerTableRecord
2
0
70
0
62
7
6
CONTINUOUS
0
ENDTAB
0
TABLE
2
STYLE
5
3
100
AcDbSymbolTable
70
1
0
STYLE
5
11
100
AcDbSymbolTableRecord
100
AcDbTextStyleTableRecord
2
STANDARD
70
0
0
ENDTAB
0
TABLE
2
VIEW
5
6
100
AcDbSymbolTable
70
0
0
ENDTAB
0
TABLE
2
UCS
5
7
100
AcDbSymbolTable
70
0
0
ENDTAB
0
TABLE
2
APPID
5
9
100
AcDbSymbolTable
70
2
0
APPID
5
12
100
AcDbSymbolTableRecord
100
AcDbRegAppTableRecord
2
ACAD
70
0
0
ENDTAB
0
TABLE
2
DIMSTYLE
5
A
100
AcDbSymbolTable
70
1
0
ENDTAB
0
TABLE
2
BLOCK_RECORD
5
1
100
AcDbSymbolTable
70
1
0
BLOCK_RECORD
5
1F
100
AcDbSymbolTableRecord
100
AcDbBlockTableRecord
2
*MODEL_SPACE
0
BLOCK_RECORD
5
1B
100
AcDbSymbolTableRecord
100
AcDbBlockTableRecord
2
*PAPER_SPACE
0
ENDTAB
0
ENDSEC
0
SECTION
2
BLOCKS
0
BLOCK
5
20
100
AcDbEntity
100
AcDbBlockBegin
2
*MODEL_SPACE
0
ENDBLK
5
21
100
AcDbEntity
100
AcDbBlockEnd
0
BLOCK
5
1C
100
AcDbEntity
100
AcDbBlockBegin
2
*PAPER_SPACE
0
ENDBLK
5
1D
100
AcDbEntity
100
AcDbBlockEnd
0
ENDSEC
0
SECTION
2
ENTITIES
0
LWPOLYLINE
5
100
100
AcDbEntity
8
0
100
AcDbPolyline
90
8
70
1
43
0.0
10
-238.83949754894871
20
18.800136414745275
42
0.41421356237313273
10
-239.33949754894871
20
19.300136414745275
10
-276.94037322924197
20
19.300136414745278
42
0.41421356237304691
10
-277.44037322924197
20
18.800136414745278
10
-277.44037322924197
20
0.2501362061290332
42
0.41421356237310186
10
-276.94037322924197
20
-0.24986379387097396
10
-239.33949754894871
20
-0.24986379387097399
42
0.4142135623730771
10
-238.83949754894871
20
0.2501362061290191
0
LWPOLYLINE
5
101
100
AcDbEntity
8
0
100
AcDbPolyline
90
52
70
1
43
0.0
10
-315.78884833381608
20
46.925238037661302
42
0.41421356237313667
10
-315.28884833381608
20
46.425238037661302
10
-311.98646821003604
20
46.425238037661302
42
0.00092975201670496331
10
-311.98647166778545
20
46.423378538422
10
-311.98647166778545
20
27.873378329805757
42
0.41421356237310281
10
-311.48647166778545
20
27.37337832980575
10
-254.58017351112926
20
27.37337832980575
42
0.00042237228215185008
10
-254.57932876701986
20
27.373379043398867
10
-254.57932876701986
20
24.064206927480321
42
0.41421356237310025
10
-254.07932876701983
20
23.564206927480313
10
-233.29440208587343
20
23.564206927480313
42
0.052407779283010082
10
-233.19044624046455
20
23.575133127113411
10
-157.45182755819491
20
39.673873499853549
42
0.41421356237310891
10
-157.06670960323686
20
40.266903145629342
10
-160.92347151128007
20
58.4115413432989
42
0.0039918445550639814
10
-160.92519367868164
20
58.419336944619083
10
-152.09553546798438
20
60.296138734606387
42
0.4142135623731103
10
-151.71041751302636
20
60.889168380382166
10
-155.56717942106954
20
79.033806578051738
42
0.41421356237308893
10
-156.16020906684531
20
79.418924533009744
10
-157.53095353770928
20
79.127563801354711
10
-161.38590269912663
20
97.263673696667155
10
-153.52697938687288
20
98.934139414348209
42
0.41421356237310086
10
-153.14186143191483
20
99.527169060123981
10
-160.9528433100725
20
136.2749495886948
42
0.41421356121061192
10
-161.54587295390712
20
136.66006754406544
10
-212.37383388227528
20
125.87993510517755
42
0.051766565162720934
10
-212.4765107707891
20
125.86901054127787
10
-235.76620534831849
20
120.91863313953327
42
0.41421356237310736
10
-236.15132330327654
20
120.32560349375744
10
-232.69756479525961
20
104.07694722607357
10
-250.45917076709623
20
104.07694722607357
42
0.13190065873110002
10
-250.70959313915094
20
104.00971579652949
42
0.13190065873115431
10
-250.96001551120568
20
104.07694722607357
10
-257.64258143571789
20
104.07694722607357
42
0.00043000205412539939
10
-257.64258069611111
20
104.07780722965869
10
-257.64258069611111
20
122.62780743827494
42
0.41421356237310542
10
-258.14258069611117
20
123.12780743827496
10
-286.71258090472742
20
123.12780743827496
42
0.41421356237313667
10
-287.21258090472747
20
122.62780743827494
10
-287.21258090472747
20
104.07780722965869
42
0.0004300020541092625
10
-287.21258016512076
20
104.07694722607357
10
-303.09519457064346
20
104.07694722607357
42
0.41421356237313667
10
-303.59519457064346
20
103.57694722607356
10
-303.59519457064346
20
85.026947017457317
42
0.00042618713498928013
10
-303.59519384410174
20
85.026094643610008
10
-316.62858935268758
20
85.026094643610008
42
0.41421356237310542
10
-317.12858935268758
20
84.526094643610008
10
-317.12858935268758
20
65.976094434993769
42
0.41421356237312101
10
-316.62858935268758
20
65.476094434993769
10
-315.78884760075641
20
65.476094434993769
42
0.00042809457217165886
10
-315.78884833381608
20
65.475238246277542
0
LWPOLYLINE
5
102
100
AcDbEntity
8
0
100
AcDbPolyline
90
8
70
1
43
0.0
10
-231.6083136441114
20
0.10099220617719587
42
0.41421356237309653
10
-231.01528399833566
20
-0.28412574878081243
10
-156.96867273573307
20
15.454967344514705
42
0.41421356237311141
10
-156.58355478077505
20
16.047996990290493
10
-160.4403166888182
20
34.192635187960065
42
0.41421356237308893
10
-161.03334633459397
20
34.57775314291807
10
-235.0799575971966
20
18.838660049622558
42
0.41421356237310086
10
-235.46507555215464
20
18.245630403846757
0
CIRCLE
5
103
100
AcDbEntity
8
0
100
AcDbCircle
10
-216.08069753950815
20
-8.4304199773065474
30
0
40
2.5499999999999901
210
0
220
-0
230
1
0
CIRCLE
5
104
100
AcDbEntity
8
0
100
AcDbCircle
10
6.8143024604918709
20
-7.4304199773066406
30
0
40
2.5499999999999998
210
0
220
-0
230
1
0
LWPOLYLINE
5
105
100
AcDbEntity
8
0
100
AcDbPolyline
90
59
70
1
43
0.0
10
0.0027211916305008325
20
84.526947017457331
42
0.41421356237311485
10
0.50272119163048845
20
85.026947017457317
10
0.50272119163049467
20
103.57694722607357
42
0.0056695197723311977
10
0.502592626077904
20
103.58828517224907
10
0.49704173768509274
20
104.07780722965869
10
0.49704173768509607
20
122.62780743827494
42
0.41421356237311352
10
-0.002958262314916027
20
123.12780743827496
10
-28.572958470931166
20
123.12780743827496
42
0.41421356237309503
10
-29.072958470931187
20
122.62780743827494
10
-29.072958470931177
20
104.07780722965869
42
0.00043000203347017023
10
-29.072957731324447
20
104.07694722607359
10
-42.867279016985776
20
104.07694722607359
42
0.062837852898569607
10
-42.991475738527178
20
104.06127683941391
42
0.062837852898522839
10
-43.115672460068467
20
104.07694722607357
10
-62.549495001450225
20
104.07694722607359
10
-59.03112323994722
20
120.62958495157946
42
0.41421356237308593
10
-59.416241194905254
20
121.22261459735525
10
-82.705935772434671
20
126.17299199909988
42
0.032309733586146069
10
-82.769811904984408
20
126.18230922655869
10
-138.38311702992408
20
137.99313739346391
42
0.41421356237312773
10
-138.97614667569988
20
137.60801943850586
10
-142.83290858374306
20
119.4633812408363
42
0.41421356237311757
10
-142.44779062878504
20
118.8703515950605
10
-136.40214650825521
20
117.5853102677201
10
-140.24642204072151
20
99.499415848547812
42
0.41421356237310525
10
-139.86130408576349
20
98.906386202772012
10
-131.97484302985276
20
97.230067156983097
10
-135.83089934247053
20
79.088748524797154
42
0.4142135623731012
10
-135.44578138751251
20
78.495718879021368
10
-129.72110354610334
20
77.278901040382863
42
0.020130744805801657
10
-129.73104849135817
20
77.239903955779738
10
-133.58781039940138
20
59.095265758110159
42
0.0063126145698074237
10
-133.59027911756507
20
59.082884759010682
10
-142.98336047718828
20
61.07944583629898
42
0.41421356237309104
10
-143.57639012296409
20
60.694327881340953
10
-147.43315203100727
20
42.549689683671374
42
0.41421356237311358
10
-147.04803407604925
20
41.956660037895581
10
-69.786018279512859
20
25.534111612489887
10
-69.786018279512859
20
24.064206927480321
42
0.41421356237310025
10
-69.286018279512845
20
23.564206927480313
10
-50.736018070896577
20
23.564206927480313
42
0.41421356237310542
10
-50.236018070896606
20
24.064206927480306
10
-50.236018070896584
20
27.373381787555125
42
0.00092975203109399755
10
-50.234158571657289
20
27.37337832980575
10
-31.684158363041032
20
27.37337832980575
42
0.13161041365115345
10
-31.434230016510018
20
27.440324266667815
42
0.13161041365115644
10
-31.184301669979018
20
27.37337832980575
10
-12.634301461362728
20
27.37337832980575
42
0.4142135623730937
10
-12.134301461362734
20
27.873378329805742
10
-12.134301461362735
20
46.423378538422
42
0.00092975203104921848
10
-12.134304919112129
20
46.425238037661302
10
-7.6243014613627302
20
46.425238037661302
42
0.41421356237308526
10
-7.1243014613627222
20
46.925238037661288
10
-7.1243014613627365
20
65.475238246277542
42
0.00042809459288650385
10
-7.1243021944223788
20
65.476094434993769
10
-4.767278808369503
20
65.476094434993769
42
0.41421356237309598
10
-4.2672788083695128
20
65.976094434993755
10
-4.2672788083695092
20
84.526094643610023
42
0.00042618715582939872
10
-4.2672795349112196
20
84.526947017457331
0
CIRCLE
5
106
100
AcDbEntity
8
0
100
AcDbCircle
10
-95.58150033724759
20
140.59623392031267
30
0
40
2.5500000000000078
210
0
220
-0
230
1
0
LWPOLYLINE
5
107
100
AcDbEntity
8
0
100
AcDbPolyline
90
14
70
1
43
0.0
10
-46.92484195495944
20
-0.24986379387097385
42
0.13190402189330747
10
-46.674413860601341
20
-0.18262905305448451
42
0.13190402189330042
10
-46.423985766243248
20
-0.24986379387097396
10
-27.873985557626973
20
-0.2498637938709739
42
0.41421356237309803
10
-27.37398555762697
20
0.2501362061290191
10
-27.37398555762698
20
18.800136414745275
42
0.41421356237309631
10
-27.873985557626977
20
19.300136414745271
10
-46.423985766243241
20
19.300136414745278
42
0.13190402189331299
10
-46.674413860601348
20
19.232901673928783
42
0.13190402189328057
10
-46.924841954959447
20
19.300136414745271
10
-65.474842163575715
20
19.300136414745278
42
0.41421356237309503
10
-65.974842163575701
20
18.800136414745278
10
-65.97484216357573
20
0.2501362061290332
42
0.41421356237309304
10
-65.47484216357573
20
-0.24986379387097396
0
CIRCLE
5
108
100
AcDbEntity
8
0
100
AcDbCircle
10
-354.18571489936113
20
133.56957823455414
30
0
40
2.5500000000000256
210
0
220
-0
230
1
0
LWPOLYLINE
5
109
100
AcDbEntity
8
0
100
AcDbPolyline
90
8
70
1
43
0.0
10
-146.83545821777773
20
17.115706437541604
42
0.41421356237308682
10
-146.45034026281971
20
16.522676791765811
10
-72.403729000217098
20
0.78358369847025766
42
0.4142135623730912
10
-71.81069935444134
20
1.1687016534282746
10
-67.953937446398129
20
19.313339851097862
42
0.41421356237309759
10
-68.339055401356163
20
19.906369496873641
10
-142.38566666395877
20
35.64546259016921
42
0.41421356237308399
10
-142.97869630973454
20
35.260344635211183
0
LWPOLYLINE
5
110
100
AcDbEntity
8
0
100
AcDbPolyline
90
8
70
1
43
0.0
10
-0.70378685998946933
20
18.800136414745275
42
0.41421356237309681
10
-1.2037868599894663
20
19.300136414745271
10
-19.753787068605735
20
19.300136414745278
42
0.41421356237308982
10
-20.253787068605735
20
18.800136414745278
10
-20.253787068605746
20
0.2501362061290332
42
0.41421356237310147
10
-19.753787068605725
20
-0.24986379387097174
10
-1.2037868599894626
20
-0.24986379387097396
42
0.41421356237309459
10
-0.70378685998947976
20
0.2501362061290191
0
CIRCLE
5
111
100
AcDbEntity
8
0
100
AcDbCircle
10
-92.922197539508048
20
-8.4304199773065474
30
0
40
2.5500000000000078
210
0
220
-0
230
1
0
LWPOLYLINE
5
112
100
AcDbEntity
8
0
100
AcDbPolyline
90
21
70
1
43
0.0
10
-308.37376383854348
20
125.98493824822563
42
0.13165243632120643
10
-308.62376373423535
20
125.91795101034016
42
0.13165243632127246
10
-308.87376362992723
20
125.98493824822563
10
-327.42376383854349
20
125.98493824822563
42
0.13215801153941623
10
-327.67462394643667
20
125.91745322631058
42
0.13215801153946483
10
-327.92548405432996
20
125.98493824822569
10
-346.47548426294622
20
125.98493824822566
42
0.41421356237312623
10
-346.97548426294617
20
125.48493824822565
10
-346.97548426294617
20
106.93493803960942
42
0.4142135623730222
10
-346.47548426294622
20
106.43493803960945
10
-327.92548405433001
20
106.43493803960942
42
0.00086010507031031595
10
-327.92376383854344
20
106.43493824822563
10
-327.92376383854344
20
87.884938039609409
42
0.4142135623730222
10
-327.42376383854349
20
87.384938039609409
10
-308.87376362992723
20
87.384938039609409
42
0.41421356237311585
10
-308.37376362992723
20
87.884938039609381
10
-308.37376362992723
20
106.43493824822563
10
-289.82376362992721
20
106.43493803960939
42
0.41421356237311585
10
-289.32376362992721
20
106.93493803960936
10
-289.32376362992721
20
125.48493824822563
42
0.41421356237309503
10
-289.82376362992721
20
125.98493824822563
0
CIRCLE
5
113
100
AcDbEntity
8
0
100
AcDbCircle
10
6.8142905246616978
20
133.56957823455414
30
0
40
2.5500000000000012
210
0
220
-0
230
1
0
LWPOLYLINE
5
114
100
AcDbEntity
8
0
100
AcDbPolyline
90
28
70
1
43
0.0
10
-335.54410181963374
20
0.82302194391203964
10
-335.54410181963374
20
19.373022152528261
10
-337.90310759691567
20
19.373018367472454
42
-0.41421356237301959
10
-338.40310759691562
20
19.87301836747244
10
-338.40310759691562
20
38.423018576088651
42
-0.00085820235834845428
10
-338.40310465087487
20
38.424734977006281
10
-340.75935530545155
20
38.424734977006295
42
-0.4142135623730222
10
-341.25935530545149
20
38.924734977006288
10
-341.25935530545149
20
57.474735185622507
10
-343.61836108273337
20
57.474731400566696
42
-0.4142135623730222
10
-344.11836108273337
20
57.974731400566682
10
-344.11836108273337
20
76.524731609182908
42
-0.41421356237310542
10
-343.61836108273337
20
77.024731609182908
10
-325.06836087411716
20
77.024731609182965
42
-0.4142135623730222
10
-324.5683608741171
20
76.524731609182908
10
-324.56836087411716
20
57.974731400566654
10
-322.20935509683528
20
57.974735185622563
42
-0.4142135623730222
10
-321.70935509683522
20
57.474735185622507
10
-321.70935509683534
20
38.924734977006246
42
-0.00085820235842927852
10
-321.70935804287609
20
38.923018576088666
10
-319.35310738829941
20
38.923018576088666
42
-0.41421356237315488
10
-318.85310738829935
20
38.423018576088658
10
-318.85310738829935
20
19.873018367472405
10
-316.49410161101753
20
19.873022152528264
42
-0.41421356237313406
10
-315.99410161101753
20
19.373022152528261
10
-315.99410161101753
20
0.82302194391200356
42
-0.41421356237311702
10
-316.49410161101753
20
0.32302194391203254
10
-335.0441018196338
20
0.32302194391205508
42
-0.41421356237301948
0
CIRCLE
5
115
100
AcDbEntity
8
0
100
AcDbCircle
10
-200.61537446414263
20
140.59623392031267
30
0
40
2.5499999999999901
210
0
220
-0
230
1
0
CIRCLE
5
116
100
AcDbEntity
8
0
100
AcDbCircle
10
-354.18569753950834
20
-7.4304199773066406
30
0
40
2.5500000000000256
210
0
220
-0
230
1
0
LWPOLYLINE
5
117
100
AcDbEntity
8
0
100
AcDbPolyline
90
14
70
1
43
0.0
10
-229.58521022489668
20
140.57373619378015
10
-353.18569753950828
20
140.56958002269346
42
0.41421356237309631
10
-361.18569753950823
20
132.56958002269346
10
-361.18569753950823
20
-6.4304199773065562
42
0.41421356237309503
10
-353.18569753950828
20
-14.430419977306528
10
5.8143024604918025
20
-14.430419977306618
42
0.41421356237309898
10
13.81430246049181
20
-6.4304199773066086
10
13.814302460491829
20
132.5695800226934
42
0.41421356237310025
10
5.8143024604918567
20
140.56958002269337
10
-66.58318559917754
20
140.57373619378012
10
-122.26173789509156
20
152.40857782856412
42
0.052407779283030968
10
-123.92503142163363
20
152.5833970226937
10
-172.24336440244059
20
152.5833970226937
42
0.05240777928303151
10
-173.90665792898267
20
152.40857782856415
0
ENDSEC
0
SECTION
2
OBJECTS
0
DICTIONARY
5
C
100
AcDbDictionary
3
ACAD_GROUP
350
D
3
ACAD_MLINESTYLE
350
17
0
DICTIONARY
5
D
100
AcDbDictionary
0
DICTIONARY
5
1A
330
C
100
AcDbDictionary
0
DICTIONARY
5
17
100
AcDbDictionary
0
ENDSEC
0
EOF
